  0
SECTION
  2
HEADER
  9
$ACADVER
  1
AC1014
  9
$HANDSEED
  5
FFFF
  9
$MEASUREMENT
 70
     1
  0
ENDSEC
  0
SECTION
  2
TABLES
  0
TABLE
  2
VPORT
  5
8
330
0
100
AcDbSymbolTable
 70
     4
  0
VPORT
  5
2E
330
8
100
AcDbSymbolTableRecord
100
AcDbViewportTableRecord
  2
*ACTIVE
 70
     0
 10
0.0
 20
0.0
 11
1.0
 21
1.0
 12
210.0
 22
148.5
 13
0.0
 23
0.0
 14
10.0
 24
10.0
 15
10.0
 25
10.0
 16
0.0
 26
0.0
 36
1.0
 17
0.0
 27
0.0
 37
0.0
 40
341.0
 41
1.24
 42
50.0
 43
0.0
 44
0.0
 50
0.0
 51
0.0
 71
     0
 72
   100
 73
     1
 74
     3
 75
     0
 76
     0
 77
     0
 78
     0
  0
ENDTAB
  0
TABLE
  2
LTYPE
  5
5
330
0
100
AcDbSymbolTable
 70
     1
  0
LTYPE
  5
14
330
5
100
AcDbSymbolTableRecord
100
AcDbLinetypeTableRecord
  2
BYBLOCK
 70
     0
  3

 72
    65
 73
     0
 40
0.0
  0
LTYPE
  5
15
330
5
100
AcDbSymbolTableRecord
100
AcDbLinetypeTableRecord
  2
BYLAYER
 70
     0
  3

 72
    65
 73
     0
 40
0.0
  0
LTYPE
  5
16
330
5
100
AcDbSymbolTableRecord
100
AcDbLinetypeTableRecord
  2
CONTINUOUS
 70
     0
  3
Solid line
 72
    65
 73
     0
 40
0.0
  0
ENDTAB
  0
TABLE
  2
LAYER
  5
2
100
AcDbSymbolTable
 70
2
  0
LAYER
  5
50
100
AcDbSymbolTableRecord
100
AcDbLayerTableRecord
  2
0
 70
0
  6
CONTINUOUS
  0
LAYER
  5
51
100
AcDbSymbolTableRecord
100
AcDbLayerTableRecord
  2
Layer_1
 70
0
  6
CONTINUOUS
  0
ENDTAB
  0
TABLE
  2
STYLE
  5
3
330
0
100
AcDbSymbolTable
 70
     1
  0
STYLE
  5
11
330
3
100
AcDbSymbolTableRecord
100
AcDbTextStyleTableRecord
  2
STANDARD
 70
     0
 40
0.0
 41
1.0
 50
0.0
 71
     0
 42
2.5
  3
txt
  4

  0
ENDTAB
  0
TABLE
  2
VIEW
  5
6
330
0
100
AcDbSymbolTable
 70
     0
  0
ENDTAB
  0
TABLE
  2
UCS
  5
7
330
0
100
AcDbSymbolTable
 70
     0
  0
ENDTAB
  0
TABLE
  2
APPID
  5
9
330
0
100
AcDbSymbolTable
 70
     2
  0
APPID
  5
12
330
9
100
AcDbSymbolTableRecord
100
AcDbRegAppTableRecord
  2
ACAD
 70
     0
  0
ENDTAB
  0
TABLE
  2
DIMSTYLE
  5
A
330
0
100
AcDbSymbolTable
 70
     1
  0
DIMSTYLE
105
27
330
A
100
AcDbSymbolTableRecord
100
AcDbDimStyleTableRecord
  2
ISO-25
 70
     0
  3

  4

  5

  6

  7

 40
1.0
 41
2.5
 42
0.625
 43
3.75
 44
1.25
 45
0.0
 46
0.0
 47
0.0
 48
0.0
140
2.5
141
2.5
142
0.0
143
0.03937007874016
144
1.0
145
0.0
146
1.0
147
0.625
 71
     0
 72
     0
 73
     0
 74
     0
 75
     0
 76
     0
 77
     1
 78
     8
170
     0
171
     3
172
     1
173
     0
174
     0
175
     0
176
     0
177
     0
178
     0
270
     2
271
     2
272
     2
273
     2
274
     3
340
11
275
     0
280
     0
281
     0
282
     0
283
     0
284
     8
285
     0
286
     0
287
     3
288
     0
  0
ENDTAB
  0
TABLE
  2
BLOCK_RECORD
  5
1
330
0
100
AcDbSymbolTable
 70
     1
  0
BLOCK_RECORD
  5
1F
330
1
100
AcDbSymbolTableRecord
100
AcDbBlockTableRecord
  2
*MODEL_SPACE
  0
BLOCK_RECORD
  5
1B
330
1
100
AcDbSymbolTableRecord
100
AcDbBlockTableRecord
  2
*PAPER_SPACE
  0
ENDTAB
  0
ENDSEC
  0
SECTION
  2
BLOCKS
  0
BLOCK
  5
20
330
1F
100
AcDbEntity
  8
0
100
AcDbBlockBegin
  2
*MODEL_SPACE
 70
     0
 10
0.0
 20
0.0
 30
0.0
  3
*MODEL_SPACE
  1

  0
ENDBLK
  5
21
330
1F
100
AcDbEntity
  8
0
100
AcDbBlockEnd
  0
BLOCK
  5
1C
330
1B
100
AcDbEntity
 67
     1
  8
0
100
AcDbBlockBegin
  2
*PAPER_SPACE
  1

  0
ENDBLK
  5
1D
330
1B
100
AcDbEntity
 67
     1
  8
0
100
AcDbBlockEnd
  0
ENDSEC
  0
SECTION
  2
ENTITIES
  0
LINE
  5
100
100
AcDbEntity
  8
Layer_1
 62
7
100
AcDbLine
 10
285.035848
 20
369.216800
 30
0.0
 11
310.024275
 21
369.216800
 31
0.0
  0
LINE
  5
101
100
AcDbEntity
  8
Layer_1
 62
7
100
AcDbLine
 10
285.035848
 20
377.113180
 30
0.0
 11
285.035848
 21
369.216800
 31
0.0
  0
LINE
  5
102
100
AcDbEntity
  8
Layer_1
 62
7
100
AcDbLine
 10
285.035848
 20
377.113180
 30
0.0
 11
310.024275
 21
377.113180
 31
0.0
  0
LINE
  5
103
100
AcDbEntity
  8
Layer_1
 62
7
100
AcDbLine
 10
310.024275
 20
377.113180
 30
0.0
 11
310.024275
 21
369.216800
 31
0.0
  0
LINE
  5
104
100
AcDbEntity
  8
Layer_1
 62
7
100
AcDbLine
 10
210.691405
 20
262.930983
 30
0.0
 11
210.691405
 21
282.921723
 31
0.0
  0
LINE
  5
105
100
AcDbEntity
  8
Layer_1
 62
7
100
AcDbLine
 10
124.131507
 20
282.921723
 30
0.0
 11
210.691405
 21
282.921723
 31
0.0
  0
LINE
  5
106
100
AcDbEntity
  8
Layer_1
 62
7
100
AcDbLine
 10
124.131507
 20
262.930983
 30
0.0
 11
124.131507
 21
282.921723
 31
0.0
  0
LINE
  5
107
100
AcDbEntity
  8
Layer_1
 62
7
100
AcDbLine
 10
124.131507
 20
262.930983
 30
0.0
 11
210.691405
 21
262.930983
 31
0.0
  0
LINE
  5
108
100
AcDbEntity
  8
Layer_1
 62
7
100
AcDbLine
 10
404.010856
 20
272.921085
 30
0.0
 11
404.010856
 21
392.865535
 31
0.0
  0
LINE
  5
109
100
AcDbEntity
  8
Layer_1
 62
7
100
AcDbLine
 10
317.450958
 20
392.865535
 30
0.0
 11
404.010856
 21
392.865535
 31
0.0
  0
LINE
  5
10a
100
AcDbEntity
  8
Layer_1
 62
7
100
AcDbLine
 10
317.450958
 20
272.921085
 30
0.0
 11
317.450958
 21
392.865535
 31
0.0
  0
LINE
  5
10b
100
AcDbEntity
  8
Layer_1
 62
7
100
AcDbLine
 10
317.450958
 20
272.921085
 30
0.0
 11
404.010856
 21
272.921085
 31
0.0
  0
LINE
  5
10c
100
AcDbEntity
  8
Layer_1
 62
5
100
AcDbLine
 10
15.804247
 20
368.479664
 30
0.0
 11
15.804247
 21
358.484304
 31
0.0
  0
SPLINE
  5
10d
100
AcDbEntity
  8
Layer_1
 62
5
100
AcDbSpline
 70
0
 71
3
 72
10
 73
6
 74
4
 40
0.000000
 40
0.000000
 40
0.000000
 40
0.000000
 40
0.052262
 40
0.102976
 40
0.155240
 40
0.155240
 40
0.155240
 40
0.155240
 10
15.804247
 20
368.479664
 30
0.0
 10
15.806997
 20
368.497178
 30
0.0
 10
15.812416
 20
368.531689
 30
0.0
 10
15.852184
 20
368.571450
 30
0.0
 10
15.886695
 20
368.576867
 30
0.0
 10
15.904210
 20
368.579616
 30
0.0
 11
15.804247
 21
368.479664
 31
0.0
 11
15.817896
 21
368.530112
 31
0.0
 11
15.853759
 21
368.565970
 31
0.0
 11
15.904210
 21
368.579616
 31
0.0
  0
LINE
  5
10e
100
AcDbEntity
  8
Layer_1
 62
5
100
AcDbLine
 10
25.899567
 20
358.384327
 30
0.0
 11
15.904210
 21
358.384327
 31
0.0
  0
SPLINE
  5
10f
100
AcDbEntity
  8
Layer_1
 62
5
100
AcDbSpline
 70
0
 71
3
 72
10
 73
6
 74
4
 40
0.000000
 40
0.000000
 40
0.000000
 40
0.000000
 40
0.052265
 40
0.102987
 40
0.155258
 40
0.155258
 40
0.155258
 40
0.155258
 10
15.904210
 20
358.384327
 30
0.0
 10
15.886695
 20
358.387077
 30
0.0
 10
15.852181
 20
358.392498
 30
0.0
 10
15.812415
 20
358.432271
 30
0.0
 10
15.806997
 20
358.466786
 30
0.0
 10
15.804247
 20
358.484304
 30
0.0
 11
15.904210
 21
358.384327
 31
0.0
 11
15.853759
 21
358.397978
 31
0.0
 11
15.817896
 21
358.433846
 31
0.0
 11
15.804247
 21
358.484304
 31
0.0
  0
LINE
  5
110
100
AcDbEntity
  8
Layer_1
 62
5
100
AcDbLine
 10
25.999530
 20
368.479664
 30
0.0
 11
25.999530
 21
358.484304
 31
0.0
  0
SPLINE
  5
111
100
AcDbEntity
  8
Layer_1
 62
5
100
AcDbSpline
 70
0
 71
3
 72
10
 73
6
 74
4
 40
0.000000
 40
0.000000
 40
0.000000
 40
0.000000
 40
0.052272
 40
0.102993
 40
0.155258
 40
0.155258
 40
0.155258
 40
0.155258
 10
25.999530
 20
358.484304
 30
0.0
 10
25.996780
 20
358.466786
 30
0.0
 10
25.991362
 20
358.432271
 30
0.0
 10
25.951596
 20
358.392498
 30
0.0
 10
25.917083
 20
358.387077
 30
0.0
 10
25.899567
 20
358.384327
 30
0.0
 11
25.999530
 21
358.484304
 31
0.0
 11
25.985881
 21
358.433846
 31
0.0
 11
25.950018
 21
358.397978
 31
0.0
 11
25.899567
 21
358.384327
 31
0.0
  0
LINE
  5
112
100
AcDbEntity
  8
Layer_1
 62
5
100
AcDbLine
 10
25.899567
 20
368.579616
 30
0.0
 11
15.904210
 21
368.579616
 31
0.0
  0
SPLINE
  5
113
100
AcDbEntity
  8
Layer_1
 62
5
100
AcDbSpline
 70
0
 71
3
 72
10
 73
6
 74
4
 40
0.000000
 40
0.000000
 40
0.000000
 40
0.000000
 40
0.052264
 40
0.102978
 40
0.155240
 40
0.155240
 40
0.155240
 40
0.155240
 10
25.899567
 20
368.579616
 30
0.0
 10
25.917082
 20
368.576867
 30
0.0
 10
25.951593
 20
368.571450
 30
0.0
 10
25.991362
 20
368.531689
 30
0.0
 10
25.996780
 20
368.497178
 30
0.0
 10
25.999530
 20
368.479664
 30
0.0
 11
25.899567
 21
368.579616
 31
0.0
 11
25.950018
 21
368.565970
 31
0.0
 11
25.985881
 21
368.530112
 31
0.0
 11
25.999530
 21
368.479664
 31
0.0
  0
LINE
  5
114
100
AcDbEntity
  8
Layer_1
 62
5
100
AcDbLine
 10
258.967738
 20
368.479664
 30
0.0
 11
258.967738
 21
358.484304
 31
0.0
  0
SPLINE
  5
115
100
AcDbEntity
  8
Layer_1
 62
5
100
AcDbSpline
 70
0
 71
3
 72
10
 73
6
 74
4
 40
0.000000
 40
0.000000
 40
0.000000
 40
0.000000
 40
0.052262
 40
0.102976
 40
0.155240
 40
0.155240
 40
0.155240
 40
0.155240
 10
258.967738
 20
368.479664
 30
0.0
 10
258.970488
 20
368.497178
 30
0.0
 10
258.975906
 20
368.531689
 30
0.0
 10
259.015675
 20
368.571450
 30
0.0
 10
259.050186
 20
368.576867
 30
0.0
 10
259.067701
 20
368.579616
 30
0.0
 11
258.967738
 21
368.479664
 31
0.0
 11
258.981387
 21
368.530112
 31
0.0
 11
259.017250
 21
368.565970
 31
0.0
 11
259.067701
 21
368.579616
 31
0.0
  0
LINE
  5
116
100
AcDbEntity
  8
Layer_1
 62
5
100
AcDbLine
 10
259.067701
 20
358.384327
 30
0.0
 11
269.063081
 21
358.384327
 31
0.0
  0
SPLINE
  5
117
100
AcDbEntity
  8
Layer_1
 62
5
100
AcDbSpline
 70
0
 71
3
 72
10
 73
6
 74
4
 40
0.000000
 40
0.000000
 40
0.000000
 40
0.000000
 40
0.052265
 40
0.102987
 40
0.155258
 40
0.155258
 40
0.155258
 40
0.155258
 10
259.067701
 20
358.384327
 30
0.0
 10
259.050185
 20
358.387077
 30
0.0
 10
259.015672
 20
358.392498
 30
0.0
 10
258.975906
 20
358.432271
 30
0.0
 10
258.970488
 20
358.466786
 30
0.0
 10
258.967738
 20
358.484304
 30
0.0
 11
259.067701
 21
358.384327
 31
0.0
 11
259.017250
 21
358.397978
 31
0.0
 11
258.981387
 21
358.433846
 31
0.0
 11
258.967738
 21
358.484304
 31
0.0
  0
LINE
  5
118
100
AcDbEntity
  8
Layer_1
 62
5
100
AcDbLine
 10
269.163015
 20
368.479664
 30
0.0
 11
269.163015
 21
358.484304
 31
0.0
  0
SPLINE
  5
119
100
AcDbEntity
  8
Layer_1
 62
5
100
AcDbSpline
 70
0
 71
3
 72
10
 73
6
 74
4
 40
0.000000
 40
0.000000
 40
0.000000
 40
0.000000
 40
0.052270
 40
0.102982
 40
0.155240
 40
0.155240
 40
0.155240
 40
0.155240
 10
269.163015
 20
358.484304
 30
0.0
 10
269.160268
 20
358.466787
 30
0.0
 10
269.154854
 20
358.432275
 30
0.0
 10
269.115103
 20
358.392496
 30
0.0
 10
269.080594
 20
358.387077
 30
0.0
 10
269.063081
 20
358.384327
 30
0.0
 11
269.163015
 21
358.484304
 31
0.0
 11
269.149374
 21
358.433846
 31
0.0
 11
269.113524
 21
358.397978
 31
0.0
 11
269.063081
 21
358.384327
 31
0.0
  0
LINE
  5
11a
100
AcDbEntity
  8
Layer_1
 62
5
100
AcDbLine
 10
259.067701
 20
368.579616
 30
0.0
 11
269.063081
 21
368.579616
 31
0.0
  0
SPLINE
  5
11b
100
AcDbEntity
  8
Layer_1
 62
5
100
AcDbSpline
 70
0
 71
3
 72
10
 73
6
 74
4
 40
0.000000
 40
0.000000
 40
0.000000
 40
0.000000
 40
0.052257
 40
0.102961
 40
0.155221
 40
0.155221
 40
0.155221
 40
0.155221
 10
269.063081
 20
368.579616
 30
0.0
 10
269.080594
 20
368.576867
 30
0.0
 10
269.115100
 20
368.571451
 30
0.0
 10
269.154854
 20
368.531685
 30
0.0
 10
269.160268
 20
368.497178
 30
0.0
 10
269.163015
 20
368.479664
 30
0.0
 11
269.063081
 21
368.579616
 31
0.0
 11
269.113524
 21
368.565970
 31
0.0
 11
269.149374
 21
368.530112
 31
0.0
 11
269.163015
 21
368.479664
 31
0.0
  0
LINE
  5
11c
100
AcDbEntity
  8
Layer_1
 62
7
100
AcDbLine
 10
77.963528
 20
350.188133
 30
0.0
 11
77.963528
 21
353.086804
 31
0.0
  0
LINE
  5
11d
100
AcDbEntity
  8
Layer_1
 62
7
100
AcDbLine
 10
79.862657
 20
353.086804
 30
0.0
 11
77.963528
 21
353.086804
 31
0.0
  0
SPLINE
  5
11e
100
AcDbEntity
  8
Layer_1
 62
7
100
AcDbSpline
 70
0
 71
3
 72
10
 73
6
 74
4
 40
0.000000
 40
0.000000
 40
0.000000
 40
0.000000
 40
0.052261
 40
0.102971
 40
0.155234
 40
0.155234
 40
0.155234
 40
0.155234
 10
77.963528
 20
350.188133
 30
0.0
 10
77.966277
 20
350.170619
 30
0.0
 10
77.971695
 20
350.136109
 30
0.0
 10
78.011467
 20
350.096355
 30
0.0
 10
78.045976
 20
350.090941
 30
0.0
 10
78.063491
 20
350.088193
 30
0.0
 11
77.963528
 21
350.188133
 31
0.0
 11
77.977177
 21
350.137686
 31
0.0
 11
78.013040
 21
350.101835
 31
0.0
 11
78.063491
 21
350.088193
 31
0.0
  0
LINE
  5
11f
100
AcDbEntity
  8
Layer_1
 62
7
100
AcDbLine
 10
79.962592
 20
353.186744
 30
0.0
 11
79.962592
 21
356.085415
 31
0.0
  0
LINE
  5
120
100
AcDbEntity
  8
Layer_1
 62
7
100
AcDbLine
 10
79.962592
 20
356.085415
 30
0.0
 11
77.963528
 21
356.085415
 31
0.0
  0
LINE
  5
121
100
AcDbEntity
  8
Layer_1
 62
7
100
AcDbLine
 10
77.963528
 20
356.085415
 30
0.0
 11
77.963528
 21
361.982671
 31
0.0
  0
SPLINE
  5
122
100
AcDbEntity
  8
Layer_1
 62
7
100
AcDbSpline
 70
0
 71
3
 72
10
 73
6
 74
4
 40
0.000000
 40
0.000000
 40
0.000000
 40
0.000000
 40
0.052259
 40
0.102959
 40
0.155215
 40
0.155215
 40
0.155215
 40
0.155215
 10
79.962592
 20
353.186744
 30
0.0
 10
79.959845
 20
353.169230
 30
0.0
 10
79.954432
 20
353.134725
 30
0.0
 10
79.914675
 20
353.094965
 30
0.0
 10
79.880170
 20
353.089551
 30
0.0
 10
79.862657
 20
353.086804
 30
0.0
 11
79.962592
 21
353.186744
 31
0.0
 11
79.948951
 21
353.136297
 31
0.0
 11
79.913101
 21
353.100446
 31
0.0
 11
79.862657
 21
353.086804
 31
0.0
  0
LINE
  5
123
100
AcDbEntity
  8
Layer_1
 62
7
100
AcDbLine
 10
74.964917
 20
362.082626
 30
0.0
 11
77.863565
 21
362.082626
 31
0.0
  0
SPLINE
  5
124
100
AcDbEntity
  8
Layer_1
 62
7
100
AcDbSpline
 70
0
 71
3
 72
10
 73
6
 74
4
 40
0.000000
 40
0.000000
 40
0.000000
 40
0.000000
 40
0.052264
 40
0.102979
 40
0.155242
 40
0.155242
 40
0.155242
 40
0.155242
 10
77.863565
 20
362.082626
 30
0.0
 10
77.881080
 20
362.079877
 30
0.0
 10
77.915591
 20
362.074459
 30
0.0
 10
77.955359
 20
362.034697
 30
0.0
 10
77.960778
 20
362.000186
 30
0.0
 10
77.963528
 20
361.982671
 30
0.0
 11
77.863565
 21
362.082626
 31
0.0
 11
77.914015
 21
362.068979
 31
0.0
 11
77.949879
 21
362.033120
 31
0.0
 11
77.963528
 21
361.982671
 31
0.0
  0
LINE
  5
125
100
AcDbEntity
  8
Layer_1
 62
7
100
AcDbLine
 10
74.864953
 20
356.085415
 30
0.0
 11
74.864953
 21
361.982671
 31
0.0
  0
LINE
  5
126
100
AcDbEntity
  8
Layer_1
 62
7
100
AcDbLine
 10
74.864953
 20
356.085415
 30
0.0
 11
72.865889
 21
356.085415
 31
0.0
  0
LINE
  5
127
100
AcDbEntity
  8
Layer_1
 62
7
100
AcDbLine
 10
72.865889
 20
353.186744
 30
0.0
 11
72.865889
 21
356.085415
 31
0.0
  0
SPLINE
  5
128
100
AcDbEntity
  8
Layer_1
 62
7
100
AcDbSpline
 70
0
 71
3
 72
10
 73
6
 74
4
 40
0.000000
 40
0.000000
 40
0.000000
 40
0.000000
 40
0.052262
 40
0.102978
 40
0.155242
 40
0.155242
 40
0.155242
 40
0.155242
 10
74.864953
 20
361.982671
 30
0.0
 10
74.867703
 20
362.000186
 30
0.0
 10
74.873122
 20
362.034697
 30
0.0
 10
74.912890
 20
362.074459
 30
0.0
 10
74.947401
 20
362.079877
 30
0.0
 10
74.964917
 20
362.082626
 30
0.0
 11
74.864953
 21
361.982671
 31
0.0
 11
74.878603
 21
362.033120
 31
0.0
 11
74.914466
 21
362.068979
 31
0.0
 11
74.964917
 21
362.082626
 31
0.0
  0
LINE
  5
129
100
AcDbEntity
  8
Layer_1
 62
7
100
AcDbLine
 10
74.864953
 20
353.086804
 30
0.0
 11
72.965852
 21
353.086804
 31
0.0
  0
LINE
  5
12a
100
AcDbEntity
  8
Layer_1
 62
7
100
AcDbLine
 10
74.864953
 20
350.188133
 30
0.0
 11
74.864953
 21
353.086804
 31
0.0
  0
SPLINE
  5
12b
100
AcDbEntity
  8
Layer_1
 62
7
100
AcDbSpline
 70
0
 71
3
 72
10
 73
6
 74
4
 40
0.000000
 40
0.000000
 40
0.000000
 40
0.000000
 40
0.052263
 40
0.102972
 40
0.155234
 40
0.155234
 40
0.155234
 40
0.155234
 10
72.965852
 20
353.086804
 30
0.0
 10
72.948337
 20
353.089552
 30
0.0
 10
72.913828
 20
353.094966
 30
0.0
 10
72.874056
 20
353.134721
 30
0.0
 10
72.868638
 20
353.169230
 30
0.0
 10
72.865889
 20
353.186744
 30
0.0
 11
72.965852
 21
353.086804
 31
0.0
 11
72.915401
 21
353.100446
 31
0.0
 11
72.879538
 21
353.136297
 31
0.0
 11
72.865889
 21
353.186744
 31
0.0
  0
LINE
  5
12c
100
AcDbEntity
  8
Layer_1
 62
7
100
AcDbLine
 10
59.282082
 20
350.088193
 30
0.0
 11
74.765019
 21
350.088193
 31
0.0
  0
SPLINE
  5
12d
100
AcDbEntity
  8
Layer_1
 62
7
100
AcDbSpline
 70
0
 71
3
 72
10
 73
6
 74
4
 40
0.000000
 40
0.000000
 40
0.000000
 40
0.000000
 40
0.052256
 40
0.102956
 40
0.155215
 40
0.155215
 40
0.155215
 40
0.155215
 10
74.765019
 20
350.088193
 30
0.0
 10
74.782531
 20
350.090940
 30
0.0
 10
74.817036
 20
350.096353
 30
0.0
 10
74.856794
 20
350.136114
 30
0.0
 10
74.862206
 20
350.170619
 30
0.0
 10
74.864953
 20
350.188133
 30
0.0
 11
74.765019
 21
350.088193
 31
0.0
 11
74.815462
 21
350.101835
 31
0.0
 11
74.851312
 21
350.137686
 31
0.0
 11
74.864953
 21
350.188133
 31
0.0
  0
SPLINE
  5
12e
100
AcDbEntity
  8
Layer_1
 62
7
100
AcDbSpline
 70
0
 71
3
 72
10
 73
6
 74
4
 40
0.000000
 40
0.000000
 40
0.000000
 40
0.000000
 40
4.558899
 40
9.011233
 40
13.570134
 40
13.570134
 40
13.570134
 40
13.570134
 10
49.488632
 20
342.091886
 30
0.0
 10
49.998042
 20
343.544439
 30
0.0
 10
51.004955
 20
346.415590
 30
0.0
 10
54.742467
 20
349.467255
 30
0.0
 10
57.756993
 20
349.879588
 30
0.0
 10
59.282082
 20
350.088193
 30
0.0
 11
49.488632
 21
342.091886
 31
0.0
 11
51.394380
 21
346.233345
 31
0.0
 11
54.843144
 21
349.049248
 31
0.0
 11
59.282082
 21
350.088193
 31
0.0
  0
LINE
  5
12f
100
AcDbEntity
  8
Layer_1
 62
7
100
AcDbLine
 10
46.589984
 20
339.094932
 30
0.0
 11
46.589984
 21
335.095137
 31
0.0
  0
SPLINE
  5
130
100
AcDbEntity
  8
Layer_1
 62
7
100
AcDbSpline
 70
0
 71
3
 72
10
 73
6
 74
4
 40
0.000000
 40
0.000000
 40
0.000000
 40
0.000000
 40
1.534760
 40
3.025617
 40
4.560351
 40
4.560351
 40
4.560351
 40
4.560351
 10
46.589984
 20
339.094932
 30
0.0
 10
46.668971
 20
339.609105
 30
0.0
 10
46.824686
 20
340.622742
 30
0.0
 10
47.969512
 20
341.806388
 30
0.0
 10
48.977387
 20
341.995804
 30
0.0
 10
49.488632
 20
342.091886
 30
0.0
 11
46.589984
 21
339.094932
 31
0.0
 11
46.982317
 21
340.578698
 31
0.0
 11
48.018793
 21
341.650319
 31
0.0
 11
49.488632
 21
342.091886
 31
0.0
  0
LINE
  5
131
100
AcDbEntity
  8
Layer_1
 62
7
100
AcDbLine
 10
39.593243
 20
332.096526
 30
0.0
 11
43.591373
 21
332.096526
 31
0.0
  0
SPLINE
  5
132
100
AcDbEntity
  8
Layer_1
 62
7
100
AcDbSpline
 70
0
 71
3
 72
10
 73
6
 74
4
 40
0.000000
 40
0.000000
 40
0.000000
 40
0.000000
 40
1.567849
 40
3.089200
 40
4.657049
 40
4.657049
 40
4.657049
 40
4.657049
 10
43.591373
 20
332.096526
 30
0.0
 10
44.116806
 20
332.179004
 30
0.0
 10
45.152089
 20
332.341515
 30
0.0
 10
46.344995
 20
333.534421
 30
0.0
 10
46.507506
 20
334.569704
 30
0.0
 10
46.589984
 20
335.095137
 30
0.0
 11
43.591373
 21
332.096526
 31
0.0
 11
45.104826
 21
332.505926
 31
0.0
 11
46.180584
 21
333.581684
 31
0.0
 11
46.589984
 21
335.095137
 31
0.0
  0
LINE
  5
133
100
AcDbEntity
  8
Layer_1
 62
7
100
AcDbLine
 10
36.594632
 20
339.093275
 30
0.0
 11
36.594632
 21
335.095137
 31
0.0
  0
SPLINE
  5
134
100
AcDbEntity
  8
Layer_1
 62
7
100
AcDbSpline
 70
0
 71
3
 72
10
 73
6
 74
4
 40
0.000000
 40
0.000000
 40
0.000000
 40
0.000000
 40
1.567847
 40
3.089194
 40
4.657055
 40
4.657055
 40
4.657055
 40
4.657055
 10
36.594632
 20
335.095137
 30
0.0
 10
36.677108
 20
334.569705
 30
0.0
 10
36.839614
 20
333.534423
 30
0.0
 10
38.032518
 20
332.341510
 30
0.0
 10
39.067806
 20
332.179003
 30
0.0
 10
39.593243
 20
332.096526
 30
0.0
 11
36.594632
 21
335.095137
 31
0.0
 11
37.004026
 21
333.581684
 31
0.0
 11
38.079778
 21
332.505926
 31
0.0
 11
39.593243
 21
332.096526
 31
0.0
  0
LINE
  5
135
100
AcDbEntity
  8
Layer_1
 62
7
100
AcDbLine
 10
33.596021
 20
342.091886
 30
0.0
 11
31.596928
 21
342.091886
 31
0.0
  0
SPLINE
  5
136
100
AcDbEntity
  8
Layer_1
 62
7
100
AcDbSpline
 70
0
 71
3
 72
10
 73
6
 74
4
 40
0.000000
 40
0.000000
 40
0.000000
 40
0.000000
 40
1.567849
 40
3.089200
 40
4.657049
 40
4.657049
 40
4.657049
 40
4.657049
 10
33.596021
 20
342.091886
 30
0.0
 10
34.121454
 20
342.009408
 30
0.0
 10
35.156738
 20
341.846898
 30
0.0
 10
36.349644
 20
340.653991
 30
0.0
 10
36.512154
 20
339.618708
 30
0.0
 10
36.594632
 20
339.093275
 30
0.0
 11
33.596021
 21
342.091886
 31
0.0
 11
35.109474
 21
341.682486
 31
0.0
 11
36.185232
 21
340.606728
 31
0.0
 11
36.594632
 21
339.093275
 31
0.0
  0
SPLINE
  5
137
100
AcDbEntity
  8
Layer_1
 62
7
100
AcDbSpline
 70
0
 71
3
 72
13
 73
9
 74
7
 40
0.000000
 40
0.000000
 40
0.000000
 40
0.000000
 40
13.274473
 40
26.155229
 40
39.429699
 40
52.704171
 40
65.584925
 40
78.859398
 40
78.859398
 40
78.859398
 40
78.859398
 10
31.596928
 20
342.091886
 30
0.0
 10
27.121400
 20
342.790194
 30
0.0
 10
18.303088
 20
344.166099
 30
0.0
 10
8.594849
 20
354.266049
 30
0.0
 10
4.997654
 20
367.480126
 30
0.0
 10
8.594848
 20
380.694204
 30
0.0
 10
18.303088
 20
390.794152
 30
0.0
 10
27.121400
 20
392.170056
 30
0.0
 10
31.596928
 20
392.868363
 30
0.0
 11
31.596928
 21
342.091886
 31
0.0
 11
18.782997
 21
345.558127
 31
0.0
 11
9.674929
 21
354.666198
 31
0.0
 11
6.208691
 21
367.480126
 31
0.0
 11
9.674929
 21
380.294056
 31
0.0
 11
18.782997
 21
389.402125
 31
0.0
 11
31.596928
 21
392.868363
 31
0.0
  0
LINE
  5
138
100
AcDbEntity
  8
Layer_1
 62
7
100
AcDbLine
 10
251.371275
 20
342.091886
 30
0.0
 11
253.370340
 21
342.091886
 31
0.0
  0
SPLINE
  5
139
100
AcDbEntity
  8
Layer_1
 62
7
100
AcDbSpline
 70
0
 71
3
 72
13
 73
9
 74
7
 40
0.000000
 40
0.000000
 40
0.000000
 40
0.000000
 40
13.274470
 40
26.155225
 40
39.429694
 40
52.704166
 40
65.584919
 40
78.859388
 40
78.859388
 40
78.859388
 40
78.859388
 10
253.370340
 20
342.091886
 30
0.0
 10
257.845866
 20
342.790195
 30
0.0
 10
266.664177
 20
344.166100
 30
0.0
 10
276.372414
 20
354.266049
 30
0.0
 10
279.969609
 20
367.480126
 30
0.0
 10
276.372415
 20
380.694204
 30
0.0
 10
266.664177
 20
390.794152
 30
0.0
 10
257.845866
 20
392.170056
 30
0.0
 10
253.370340
 20
392.868363
 30
0.0
 11
253.370340
 21
342.091886
 31
0.0
 11
266.184266
 21
345.558127
 31
0.0
 11
275.292333
 21
354.666198
 31
0.0
 11
278.758571
 21
367.480126
 31
0.0
 11
275.292333
 21
380.294056
 31
0.0
 11
266.184266
 21
389.402125
 31
0.0
 11
253.370340
 21
392.868363
 31
0.0
  0
LINE
  5
13a
100
AcDbEntity
  8
Layer_1
 62
7
100
AcDbLine
 10
248.372664
 20
339.093275
 30
0.0
 11
248.372664
 21
335.095137
 31
0.0
  0
SPLINE
  5
13b
100
AcDbEntity
  8
Layer_1
 62
7
100
AcDbSpline
 70
0
 71
3
 72
10
 73
6
 74
4
 40
0.000000
 40
0.000000
 40
0.000000
 40
0.000000
 40
1.567847
 40
3.089194
 40
4.657055
 40
4.657055
 40
4.657055
 40
4.657055
 10
248.372664
 20
339.093275
 30
0.0
 10
248.455140
 20
339.618708
 30
0.0
 10
248.617646
 20
340.653990
 30
0.0
 10
249.810550
 20
341.846902
 30
0.0
 10
250.845837
 20
342.009409
 30
0.0
 10
251.371275
 20
342.091886
 30
0.0
 11
248.372664
 21
339.093275
 31
0.0
 11
248.782058
 21
340.606728
 31
0.0
 11
249.857809
 21
341.682486
 31
0.0
 11
251.371275
 21
342.091886
 31
0.0
  0
LINE
  5
13c
100
AcDbEntity
  8
Layer_1
 62
7
100
AcDbLine
 10
245.374053
 20
332.096526
 30
0.0
 11
241.375895
 21
332.096526
 31
0.0
  0
SPLINE
  5
13d
100
AcDbEntity
  8
Layer_1
 62
7
100
AcDbSpline
 70
0
 71
3
 72
10
 73
6
 74
4
 40
0.000000
 40
0.000000
 40
0.000000
 40
0.000000
 40
1.567849
 40
3.089200
 40
4.657049
 40
4.657049
 40
4.657049
 40
4.657049
 10
245.374053
 20
332.096526
 30
0.0
 10
245.899486
 20
332.179004
 30
0.0
 10
246.934769
 20
332.341515
 30
0.0
 10
248.127675
 20
333.534421
 30
0.0
 10
248.290186
 20
334.569704
 30
0.0
 10
248.372664
 20
335.095137
 30
0.0
 11
245.374053
 21
332.096526
 31
0.0
 11
246.887506
 21
332.505926
 31
0.0
 11
247.963264
 21
333.581684
 31
0.0
 11
248.372664
 21
335.095137
 31
0.0
  0
LINE
  5
13e
100
AcDbEntity
  8
Layer_1
 62
7
100
AcDbLine
 10
238.377284
 20
339.094932
 30
0.0
 11
238.377284
 21
335.095137
 31
0.0
  0
SPLINE
  5
13f
100
AcDbEntity
  8
Layer_1
 62
7
100
AcDbSpline
 70
0
 71
3
 72
10
 73
6
 74
4
 40
0.000000
 40
0.000000
 40
0.000000
 40
0.000000
 40
1.567849
 40
3.089200
 40
4.657049
 40
4.657049
 40
4.657049
 40
4.657049
 10
238.377284
 20
335.095137
 30
0.0
 10
238.459762
 20
334.569704
 30
0.0
 10
238.622273
 20
333.534421
 30
0.0
 10
239.815179
 20
332.341515
 30
0.0
 10
240.850462
 20
332.179004
 30
0.0
 10
241.375895
 20
332.096526
 30
0.0
 11
238.377284
 21
335.095137
 31
0.0
 11
238.786684
 21
333.581684
 31
0.0
 11
239.862442
 21
332.505926
 31
0.0
 11
241.375895
 21
332.096526
 31
0.0
  0
SPLINE
  5
140
100
AcDbEntity
  8
Layer_1
 62
7
100
AcDbSpline
 70
0
 71
3
 72
10
 73
6
 74
4
 40
0.000000
 40
0.000000
 40
0.000000
 40
0.000000
 40
1.534745
 40
3.025598
 40
4.560357
 40
4.560357
 40
4.560357
 40
4.560357
 10
235.478636
 20
342.091886
 30
0.0
 10
235.989886
 20
341.995806
 30
0.0
 10
236.997764
 20
341.806393
 30
0.0
 10
238.142589
 20
340.622741
 30
0.0
 10
238.298299
 20
339.609104
 30
0.0
 10
238.377284
 20
339.094932
 30
0.0
 11
235.478636
 21
342.091886
 31
0.0
 11
236.948487
 21
341.650319
 31
0.0
 11
237.984958
 21
340.578698
 31
0.0
 11
238.377284
 21
339.094932
 31
0.0
  0
LINE
  5
141
100
AcDbEntity
  8
Layer_1
 62
7
100
AcDbLine
 10
210.202278
 20
350.088193
 30
0.0
 11
225.685215
 21
350.088193
 31
0.0
  0
SPLINE
  5
142
100
AcDbEntity
  8
Layer_1
 62
7
100
AcDbSpline
 70
0
 71
3
 72
10
 73
6
 74
4
 40
0.000000
 40
0.000000
 40
0.000000
 40
0.000000
 40
4.558881
 40
9.011209
 40
13.570108
 40
13.570108
 40
13.570108
 40
13.570108
 10
225.685215
 20
350.088193
 30
0.0
 10
227.210296
 20
349.879587
 30
0.0
 10
230.224814
 20
349.467252
 30
0.0
 10
233.962314
 20
346.415587
 30
0.0
 10
234.969226
 20
343.544438
 30
0.0
 10
235.478636
 20
342.091886
 30
0.0
 11
225.685215
 21
350.088193
 31
0.0
 11
230.124132
 21
349.049248
 31
0.0
 11
233.572889
 21
346.233345
 31
0.0
 11
235.478636
 21
342.091886
 31
0.0
  0
LINE
  5
143
100
AcDbEntity
  8
Layer_1
 62
7
100
AcDbLine
 10
210.102315
 20
350.188133
 30
0.0
 11
210.102315
 21
353.086804
 31
0.0
  0
LINE
  5
144
100
AcDbEntity
  8
Layer_1
 62
7
100
AcDbLine
 10
210.102315
 20
353.086804
 30
0.0
 11
212.001444
 21
353.086804
 31
0.0
  0
SPLINE
  5
145
100
AcDbEntity
  8
Layer_1
 62
7
100
AcDbSpline
 70
0
 71
3
 72
10
 73
6
 74
4
 40
0.000000
 40
0.000000
 40
0.000000
 40
0.000000
 40
0.052261
 40
0.102971
 40
0.155234
 40
0.155234
 40
0.155234
 40
0.155234
 10
210.102315
 20
350.188133
 30
0.0
 10
210.105064
 20
350.170619
 30
0.0
 10
210.110482
 20
350.136109
 30
0.0
 10
210.150254
 20
350.096355
 30
0.0
 10
210.184763
 20
350.090941
 30
0.0
 10
210.202278
 20
350.088193
 30
0.0
 11
210.102315
 21
350.188133
 31
0.0
 11
210.115964
 21
350.137686
 31
0.0
 11
210.151827
 21
350.101835
 31
0.0
 11
210.202278
 21
350.088193
 31
0.0
  0
LINE
  5
146
100
AcDbEntity
  8
Layer_1
 62
7
100
AcDbLine
 10
212.101379
 20
353.186744
 30
0.0
 11
212.101379
 21
356.085415
 31
0.0
  0
LINE
  5
147
100
AcDbEntity
  8
Layer_1
 62
7
100
AcDbLine
 10
210.102315
 20
356.085415
 30
0.0
 11
212.101379
 21
356.085415
 31
0.0
  0
LINE
  5
148
100
AcDbEntity
  8
Layer_1
 62
7
100
AcDbLine
 10
210.102315
 20
356.085415
 30
0.0
 11
210.102315
 21
361.982671
 31
0.0
  0
SPLINE
  5
149
100
AcDbEntity
  8
Layer_1
 62
7
100
AcDbSpline
 70
0
 71
3
 72
10
 73
6
 74
4
 40
0.000000
 40
0.000000
 40
0.000000
 40
0.000000
 40
0.052259
 40
0.102959
 40
0.155215
 40
0.155215
 40
0.155215
 40
0.155215
 10
212.101379
 20
353.186744
 30
0.0
 10
212.098632
 20
353.169230
 30
0.0
 10
212.093219
 20
353.134725
 30
0.0
 10
212.053462
 20
353.094965
 30
0.0
 10
212.018957
 20
353.089551
 30
0.0
 10
212.001444
 20
353.086804
 30
0.0
 11
212.101379
 21
353.186744
 31
0.0
 11
212.087737
 21
353.136297
 31
0.0
 11
212.051888
 21
353.100446
 31
0.0
 11
212.001444
 21
353.086804
 31
0.0
  0
LINE
  5
14a
100
AcDbEntity
  8
Layer_1
 62
7
100
AcDbLine
 10
210.002351
 20
362.082626
 30
0.0
 11
207.103703
 21
362.082626
 31
0.0
  0
SPLINE
  5
14b
100
AcDbEntity
  8
Layer_1
 62
7
100
AcDbSpline
 70
0
 71
3
 72
10
 73
6
 74
4
 40
0.000000
 40
0.000000
 40
0.000000
 40
0.000000
 40
0.052264
 40
0.102979
 40
0.155242
 40
0.155242
 40
0.155242
 40
0.155242
 10
210.002351
 20
362.082626
 30
0.0
 10
210.019867
 20
362.079877
 30
0.0
 10
210.054378
 20
362.074459
 30
0.0
 10
210.094146
 20
362.034697
 30
0.0
 10
210.099564
 20
362.000186
 30
0.0
 10
210.102315
 20
361.982671
 30
0.0
 11
210.002351
 21
362.082626
 31
0.0
 11
210.052802
 21
362.068979
 31
0.0
 11
210.088665
 21
362.033120
 31
0.0
 11
210.102315
 21
361.982671
 31
0.0
  0
LINE
  5
14c
100
AcDbEntity
  8
Layer_1
 62
7
100
AcDbLine
 10
207.003740
 20
356.085415
 30
0.0
 11
207.003740
 21
361.982671
 31
0.0
  0
LINE
  5
14d
100
AcDbEntity
  8
Layer_1
 62
7
100
AcDbLine
 10
205.004676
 20
356.085415
 30
0.0
 11
207.003740
 21
356.085415
 31
0.0
  0
LINE
  5
14e
100
AcDbEntity
  8
Layer_1
 62
7
100
AcDbLine
 10
205.004676
 20
353.186744
 30
0.0
 11
205.004676
 21
356.085415
 31
0.0
  0
SPLINE
  5
14f
100
AcDbEntity
  8
Layer_1
 62
7
100
AcDbSpline
 70
0
 71
3
 72
10
 73
6
 74
4
 40
0.000000
 40
0.000000
 40
0.000000
 40
0.000000
 40
0.052262
 40
0.102978
 40
0.155242
 40
0.155242
 40
0.155242
 40
0.155242
 10
207.003740
 20
361.982671
 30
0.0
 10
207.006490
 20
362.000186
 30
0.0
 10
207.011909
 20
362.034697
 30
0.0
 10
207.051677
 20
362.074459
 30
0.0
 10
207.086188
 20
362.079877
 30
0.0
 10
207.103703
 20
362.082626
 30
0.0
 11
207.003740
 21
361.982671
 31
0.0
 11
207.017389
 21
362.033120
 31
0.0
 11
207.053253
 21
362.068979
 31
0.0
 11
207.103703
 21
362.082626
 31
0.0
  0
LINE
  5
150
100
AcDbEntity
  8
Layer_1
 62
7
100
AcDbLine
 10
205.104639
 20
353.086804
 30
0.0
 11
207.003740
 21
353.086804
 31
0.0
  0
LINE
  5
151
100
AcDbEntity
  8
Layer_1
 62
7
100
AcDbLine
 10
207.003740
 20
350.188133
 30
0.0
 11
207.003740
 21
353.086804
 31
0.0
  0
SPLINE
  5
152
100
AcDbEntity
  8
Layer_1
 62
7
100
AcDbSpline
 70
0
 71
3
 72
10
 73
6
 74
4
 40
0.000000
 40
0.000000
 40
0.000000
 40
0.000000
 40
0.052263
 40
0.102972
 40
0.155234
 40
0.155234
 40
0.155234
 40
0.155234
 10
205.104639
 20
353.086804
 30
0.0
 10
205.087124
 20
353.089552
 30
0.0
 10
205.052615
 20
353.094966
 30
0.0
 10
205.012843
 20
353.134721
 30
0.0
 10
205.007425
 20
353.169230
 30
0.0
 10
205.004676
 20
353.186744
 30
0.0
 11
205.104639
 21
353.086804
 31
0.0
 11
205.054188
 21
353.100446
 31
0.0
 11
205.018325
 21
353.136297
 31
0.0
 11
205.004676
 21
353.186744
 31
0.0
  0
LINE
  5
153
100
AcDbEntity
  8
Layer_1
 62
7
100
AcDbLine
 10
78.063491
 20
350.088193
 30
0.0
 11
206.903805
 21
350.088193
 31
0.0
  0
LINE
  5
154
100
AcDbEntity
  8
Layer_1
 62
7
100
AcDbLine
 10
253.370340
 20
392.868363
 30
0.0
 11
31.596928
 21
392.868363
 31
0.0
  0
SPLINE
  5
155
100
AcDbEntity
  8
Layer_1
 62
7
100
AcDbSpline
 70
0
 71
3
 72
10
 73
6
 74
4
 40
0.000000
 40
0.000000
 40
0.000000
 40
0.000000
 40
0.052256
 40
0.102956
 40
0.155215
 40
0.155215
 40
0.155215
 40
0.155215
 10
206.903805
 20
350.088193
 30
0.0
 10
206.921318
 20
350.090940
 30
0.0
 10
206.955823
 20
350.096353
 30
0.0
 10
206.995580
 20
350.136114
 30
0.0
 10
207.000993
 20
350.170619
 30
0.0
 10
207.003740
 20
350.188133
 30
0.0
 11
206.903805
 21
350.088193
 31
0.0
 11
206.954249
 21
350.101835
 31
0.0
 11
206.990099
 21
350.137686
 31
0.0
 11
207.003740
 21
350.188133
 31
0.0
  0
SPLINE
  5
156
100
AcDbEntity
  8
Layer_1
 62
7
100
AcDbSpline
 70
0
 71
3
 72
10
 73
6
 74
4
 40
0.000000
 40
0.000000
 40
0.000000
 40
0.000000
 40
4.558901
 40
9.011234
 40
13.570124
 40
13.570124
 40
13.570124
 40
13.570124
 10
93.789484
 20
328.010435
 30
0.0
 10
92.264396
 20
328.219040
 30
0.0
 10
89.249870
 20
328.631374
 30
0.0
 10
85.512360
 20
331.683036
 30
0.0
 10
84.505445
 20
334.554183
 30
0.0
 10
83.996034
 20
336.006732
 30
0.0
 11
93.789484
 21
328.010435
 31
0.0
 11
89.350547
 21
329.049381
 31
0.0
 11
85.901783
 21
331.865282
 31
0.0
 11
83.996034
 21
336.006732
 31
0.0
  0
LINE
  5
157
100
AcDbEntity
  8
Layer_1
 62
7
100
AcDbLine
 10
83.996034
 20
336.006732
 30
0.0
 11
66.104331
 21
336.006732
 31
0.0
  0
SPLINE
  5
158
100
AcDbEntity
  8
Layer_1
 62
7
100
AcDbSpline
 70
0
 71
3
 72
10
 73
6
 74
4
 40
0.000000
 40
0.000000
 40
0.000000
 40
0.000000
 40
4.558890
 40
9.011218
 40
13.570099
 40
13.570099
 40
13.570099
 40
13.570099
 10
269.986039
 20
336.006732
 30
0.0
 10
269.476628
 20
334.554183
 30
0.0
 10
268.469714
 20
331.683038
 30
0.0
 10
264.732216
 20
328.631377
 30
0.0
 10
261.717699
 20
328.219041
 30
0.0
 10
260.192617
 20
328.010435
 30
0.0
 11
269.986039
 21
336.006732
 31
0.0
 11
268.080291
 21
331.865282
 31
0.0
 11
264.631535
 21
329.049381
 31
0.0
 11
260.192617
 21
328.010435
 31
0.0
  0
LINE
  5
159
100
AcDbEntity
  8
Layer_1
 62
7
100
AcDbLine
 10
66.104331
 20
285.230255
 30
0.0
 11
287.877742
 21
285.230255
 31
0.0
  0
SPLINE
  5
15a
100
AcDbEntity
  8
Layer_1
 62
7
100
AcDbSpline
 70
0
 71
3
 72
13
 73
9
 74
7
 40
0.000000
 40
0.000000
 40
0.000000
 40
0.000000
 40
13.274469
 40
26.155223
 40
39.429697
 40
52.704166
 40
65.584919
 40
78.859387
 40
78.859387
 40
78.859387
 40
78.859387
 10
66.104331
 20
336.006732
 30
0.0
 10
61.628804
 20
335.308424
 30
0.0
 10
52.810494
 20
333.932519
 30
0.0
 10
43.102256
 20
323.832569
 30
0.0
 10
39.505063
 20
310.618491
 30
0.0
 10
43.102257
 20
297.404413
 30
0.0
 10
52.810495
 20
287.304467
 30
0.0
 10
61.628805
 20
285.928563
 30
0.0
 10
66.104331
 20
285.230255
 30
0.0
 11
66.104331
 21
336.006732
 31
0.0
 11
53.290404
 21
332.540492
 31
0.0
 11
44.182338
 21
323.432421
 31
0.0
 11
40.716101
 21
310.618489
 31
0.0
 11
44.182338
 21
297.804562
 31
0.0
 11
53.290404
 21
288.696494
 31
0.0
 11
66.104331
 21
285.230255
 31
0.0
  0
LINE
  5
15b
100
AcDbEntity
  8
Layer_1
 62
7
100
AcDbLine
 10
269.986039
 20
336.006732
 30
0.0
 11
287.877742
 21
336.006732
 31
0.0
  0
LINE
  5
15c
100
AcDbEntity
  8
Layer_1
 62
7
100
AcDbLine
 10
260.192617
 20
328.010435
 30
0.0
 11
93.789484
 21
328.010435
 31
0.0
  0
LINE
  5
15d
100
AcDbEntity
  8
Layer_1
 62
5
100
AcDbLine
 10
293.475140
 20
319.714282
 30
0.0
 11
303.670424
 21
319.714282
 31
0.0
  0
LINE
  5
15e
100
AcDbEntity
  8
Layer_1
 62
5
100
AcDbLine
 10
60.506933
 20
319.714282
 30
0.0
 11
50.311655
 21
319.714282
 31
0.0
  0
LINE
  5
15f
100
AcDbEntity
  8
Layer_1
 62
5
100
AcDbLine
 10
60.506933
 20
309.519002
 30
0.0
 11
60.506933
 21
319.714282
 31
0.0
  0
LINE
  5
160
100
AcDbEntity
  8
Layer_1
 62
5
100
AcDbLine
 10
60.506933
 20
309.519002
 30
0.0
 11
50.311655
 21
309.519002
 31
0.0
  0
LINE
  5
161
100
AcDbEntity
  8
Layer_1
 62
5
100
AcDbLine
 10
50.311655
 20
309.519002
 30
0.0
 11
50.311655
 21
319.714282
 31
0.0
  0
LINE
  5
162
100
AcDbEntity
  8
Layer_1
 62
5
100
AcDbLine
 10
303.670424
 20
309.519002
 30
0.0
 11
303.670424
 21
319.714282
 31
0.0
  0
LINE
  5
163
100
AcDbEntity
  8
Layer_1
 62
5
100
AcDbLine
 10
293.475140
 20
309.519002
 30
0.0
 11
303.670424
 21
309.519002
 31
0.0
  0
LINE
  5
164
100
AcDbEntity
  8
Layer_1
 62
5
100
AcDbLine
 10
293.475140
 20
309.519002
 30
0.0
 11
293.475140
 21
319.714282
 31
0.0
  0
LINE
  5
165
100
AcDbEntity
  8
Layer_1
 62
7
100
AcDbLine
 10
285.035848
 20
355.532607
 30
0.0
 11
310.024269
 21
355.532607
 31
0.0
  0
LINE
  5
166
100
AcDbEntity
  8
Layer_1
 62
7
100
AcDbLine
 10
285.035848
 20
363.428959
 30
0.0
 11
285.035848
 21
355.532607
 31
0.0
  0
LINE
  5
167
100
AcDbEntity
  8
Layer_1
 62
7
100
AcDbLine
 10
285.035848
 20
363.428959
 30
0.0
 11
310.024269
 21
363.428959
 31
0.0
  0
LINE
  5
168
100
AcDbEntity
  8
Layer_1
 62
7
100
AcDbLine
 10
310.024269
 20
363.428959
 30
0.0
 11
310.024269
 21
355.532607
 31
0.0
  0
LINE
  5
169
100
AcDbEntity
  8
Layer_1
 62
7
100
AcDbLine
 10
285.035848
 20
341.848470
 30
0.0
 11
310.024269
 21
341.848470
 31
0.0
  0
LINE
  5
16a
100
AcDbEntity
  8
Layer_1
 62
7
100
AcDbLine
 10
285.035848
 20
349.744793
 30
0.0
 11
285.035848
 21
341.848470
 31
0.0
  0
LINE
  5
16b
100
AcDbEntity
  8
Layer_1
 62
7
100
AcDbLine
 10
285.035848
 20
349.744793
 30
0.0
 11
310.024269
 21
349.744793
 31
0.0
  0
LINE
  5
16c
100
AcDbEntity
  8
Layer_1
 62
7
100
AcDbLine
 10
310.024269
 20
349.744793
 30
0.0
 11
310.024269
 21
341.848470
 31
0.0
  0
LINE
  5
16d
100
AcDbEntity
  8
Layer_1
 62
7
100
AcDbLine
 10
285.035848
 20
382.901042
 30
0.0
 11
310.024269
 21
382.901042
 31
0.0
  0
LINE
  5
16e
100
AcDbEntity
  8
Layer_1
 62
7
100
AcDbLine
 10
285.035848
 20
390.797422
 30
0.0
 11
285.035848
 21
382.901042
 31
0.0
  0
LINE
  5
16f
100
AcDbEntity
  8
Layer_1
 62
7
100
AcDbLine
 10
285.035848
 20
390.797422
 30
0.0
 11
310.024269
 21
390.797422
 31
0.0
  0
LINE
  5
170
100
AcDbEntity
  8
Layer_1
 62
7
100
AcDbLine
 10
310.024269
 20
390.797422
 30
0.0
 11
310.024269
 21
382.901042
 31
0.0
  0
LINE
  5
171
100
AcDbEntity
  8
Layer_1
 62
7
100
AcDbLine
 10
214.214795
 20
271.750952
 30
0.0
 11
214.214795
 21
281.746326
 31
0.0
  0
LINE
  5
172
100
AcDbEntity
  8
Layer_1
 62
7
100
AcDbLine
 10
313.668720
 20
281.746326
 30
0.0
 11
214.214795
 21
281.746326
 31
0.0
  0
LINE
  5
173
100
AcDbEntity
  8
Layer_1
 62
7
100
AcDbLine
 10
313.668720
 20
271.750952
 30
0.0
 11
214.214795
 21
271.750952
 31
0.0
  0
LINE
  5
174
100
AcDbEntity
  8
Layer_1
 62
7
100
AcDbLine
 10
313.668720
 20
271.750952
 30
0.0
 11
313.668720
 21
281.746326
 31
0.0
  0
LINE
  5
175
100
AcDbEntity
  8
Layer_1
 62
7
100
AcDbLine
 10
120.707319
 20
263.101976
 30
0.0
 11
120.707319
 21
283.092715
 31
0.0
  0
LINE
  5
176
100
AcDbEntity
  8
Layer_1
 62
7
100
AcDbLine
 10
34.147393
 20
283.092715
 30
0.0
 11
120.707319
 21
283.092715
 31
0.0
  0
LINE
  5
177
100
AcDbEntity
  8
Layer_1
 62
7
100
AcDbLine
 10
34.147393
 20
263.101976
 30
0.0
 11
34.147393
 21
283.092715
 31
0.0
  0
LINE
  5
178
100
AcDbEntity
  8
Layer_1
 62
7
100
AcDbLine
 10
34.147393
 20
263.101976
 30
0.0
 11
120.707319
 21
263.101976
 31
0.0
  0
LINE
  5
179
100
AcDbEntity
  8
Layer_1
 62
7
100
AcDbLine
 10
196.953578
 20
330.581992
 30
0.0
 11
196.953578
 21
347.574121
 31
0.0
  0
LINE
  5
17a
100
AcDbEntity
  8
Layer_1
 62
7
100
AcDbLine
 10
196.953578
 20
330.581992
 30
0.0
 11
96.999893
 21
330.581992
 31
0.0
  0
LINE
  5
17b
100
AcDbEntity
  8
Layer_1
 62
7
100
AcDbLine
 10
96.999893
 20
347.574121
 30
0.0
 11
99.998505
 21
347.574121
 31
0.0
  0
LINE
  5
17c
100
AcDbEntity
  8
Layer_1
 62
7
100
AcDbLine
 10
99.998505
 20
342.576436
 30
0.0
 11
99.998505
 21
347.574121
 31
0.0
  0
LINE
  5
17d
100
AcDbEntity
  8
Layer_1
 62
7
100
AcDbLine
 10
104.996180
 20
342.576436
 30
0.0
 11
99.998505
 21
342.576436
 31
0.0
  0
LINE
  5
17e
100
AcDbEntity
  8
Layer_1
 62
7
100
AcDbLine
 10
104.996180
 20
342.576436
 30
0.0
 11
104.996180
 21
347.574121
 31
0.0
  0
LINE
  5
17f
100
AcDbEntity
  8
Layer_1
 62
7
100
AcDbLine
 10
146.976736
 20
342.576436
 30
0.0
 11
146.976736
 21
347.574121
 31
0.0
  0
LINE
  5
180
100
AcDbEntity
  8
Layer_1
 62
7
100
AcDbLine
 10
151.974412
 20
342.576436
 30
0.0
 11
146.976736
 21
342.576436
 31
0.0
  0
LINE
  5
181
100
AcDbEntity
  8
Layer_1
 62
7
100
AcDbLine
 10
151.974412
 20
342.576436
 30
0.0
 11
151.974412
 21
347.574121
 31
0.0
  0
LINE
  5
182
100
AcDbEntity
  8
Layer_1
 62
7
100
AcDbLine
 10
96.999893
 20
347.574121
 30
0.0
 11
96.999893
 21
330.581992
 31
0.0
  0
LINE
  5
183
100
AcDbEntity
  8
Layer_1
 62
7
100
AcDbLine
 10
104.996180
 20
347.574121
 30
0.0
 11
146.976736
 21
347.574121
 31
0.0
  0
LINE
  5
184
100
AcDbEntity
  8
Layer_1
 62
7
100
AcDbLine
 10
151.974412
 20
347.574121
 30
0.0
 11
196.953578
 21
347.574121
 31
0.0
  0
LINE
  5
185
100
AcDbEntity
  8
Layer_1
 62
7
100
AcDbLine
 10
134.257255
 20
242.549882
 30
0.0
 11
134.257255
 21
259.542010
 31
0.0
  0
LINE
  5
186
100
AcDbEntity
  8
Layer_1
 62
7
100
AcDbLine
 10
134.257255
 20
242.549882
 30
0.0
 11
34.303570
 21
242.549882
 31
0.0
  0
LINE
  5
187
100
AcDbEntity
  8
Layer_1
 62
7
100
AcDbLine
 10
34.303570
 20
259.542010
 30
0.0
 11
37.302181
 21
259.542010
 31
0.0
  0
LINE
  5
188
100
AcDbEntity
  8
Layer_1
 62
7
100
AcDbLine
 10
37.302181
 20
254.544323
 30
0.0
 11
37.302181
 21
259.542010
 31
0.0
  0
LINE
  5
189
100
AcDbEntity
  8
Layer_1
 62
7
100
AcDbLine
 10
42.299857
 20
254.544323
 30
0.0
 11
37.302181
 21
254.544323
 31
0.0
  0
LINE
  5
18a
100
AcDbEntity
  8
Layer_1
 62
7
100
AcDbLine
 10
42.299857
 20
254.544323
 30
0.0
 11
42.299857
 21
259.542010
 31
0.0
  0
LINE
  5
18b
100
AcDbEntity
  8
Layer_1
 62
7
100
AcDbLine
 10
84.280412
 20
254.544323
 30
0.0
 11
84.280412
 21
259.542010
 31
0.0
  0
LINE
  5
18c
100
AcDbEntity
  8
Layer_1
 62
7
100
AcDbLine
 10
89.278116
 20
254.544323
 30
0.0
 11
84.280412
 21
254.544323
 31
0.0
  0
LINE
  5
18d
100
AcDbEntity
  8
Layer_1
 62
7
100
AcDbLine
 10
89.278116
 20
254.544323
 30
0.0
 11
89.278116
 21
259.542010
 31
0.0
  0
LINE
  5
18e
100
AcDbEntity
  8
Layer_1
 62
7
100
AcDbLine
 10
34.303570
 20
259.542010
 30
0.0
 11
34.303570
 21
242.549882
 31
0.0
  0
LINE
  5
18f
100
AcDbEntity
  8
Layer_1
 62
7
100
AcDbLine
 10
42.299857
 20
259.542010
 30
0.0
 11
84.280412
 21
259.542010
 31
0.0
  0
LINE
  5
190
100
AcDbEntity
  8
Layer_1
 62
7
100
AcDbLine
 10
89.278116
 20
259.542010
 30
0.0
 11
134.257255
 21
259.542010
 31
0.0
  0
LINE
  5
191
100
AcDbEntity
  8
Layer_1
 62
7
100
AcDbLine
 10
29.630937
 20
240.959500
 30
0.0
 11
19.635563
 21
240.959500
 31
0.0
  0
LINE
  5
192
100
AcDbEntity
  8
Layer_1
 62
7
100
AcDbLine
 10
19.635563
 20
340.413426
 30
0.0
 11
19.635563
 21
240.959500
 31
0.0
  0
LINE
  5
193
100
AcDbEntity
  8
Layer_1
 62
7
100
AcDbLine
 10
29.630937
 20
340.413426
 30
0.0
 11
29.630937
 21
240.959500
 31
0.0
  0
LINE
  5
194
100
AcDbEntity
  8
Layer_1
 62
7
100
AcDbLine
 10
29.630937
 20
340.413426
 30
0.0
 11
19.635563
 21
340.413426
 31
0.0
  0
LINE
  5
195
100
AcDbEntity
  8
Layer_1
 62
7
100
AcDbLine
 10
16.771358
 20
241.623098
 30
0.0
 11
6.775984
 21
241.623098
 31
0.0
  0
LINE
  5
196
100
AcDbEntity
  8
Layer_1
 62
7
100
AcDbLine
 10
6.775984
 20
341.077022
 30
0.0
 11
6.775984
 21
241.623098
 31
0.0
  0
LINE
  5
197
100
AcDbEntity
  8
Layer_1
 62
7
100
AcDbLine
 10
16.771358
 20
341.077022
 30
0.0
 11
16.771358
 21
241.623098
 31
0.0
  0
LINE
  5
198
100
AcDbEntity
  8
Layer_1
 62
7
100
AcDbLine
 10
16.771358
 20
341.077022
 30
0.0
 11
6.775984
 21
341.077022
 31
0.0
  0
LINE
  5
199
100
AcDbEntity
  8
Layer_1
 62
7
100
AcDbLine
 10
313.856621
 20
269.456093
 30
0.0
 11
313.856621
 21
259.460719
 31
0.0
  0
LINE
  5
19a
100
AcDbEntity
  8
Layer_1
 62
7
100
AcDbLine
 10
214.402697
 20
259.460719
 30
0.0
 11
313.856621
 21
259.460719
 31
0.0
  0
LINE
  5
19b
100
AcDbEntity
  8
Layer_1
 62
7
100
AcDbLine
 10
214.402697
 20
269.456093
 30
0.0
 11
313.856621
 21
269.456093
 31
0.0
  0
LINE
  5
19c
100
AcDbEntity
  8
Layer_1
 62
7
100
AcDbLine
 10
214.402697
 20
269.456093
 30
0.0
 11
214.402697
 21
259.460719
 31
0.0
  0
LINE
  5
19d
100
AcDbEntity
  8
Layer_1
 62
5
100
AcDbLine
 10
491.154796
 20
387.773520
 30
0.0
 11
491.154796
 21
382.775861
 31
0.0
  0
LINE
  5
19e
100
AcDbEntity
  8
Layer_1
 62
7
100
AcDbLine
 10
408.293138
 20
272.826780
 30
0.0
 11
494.053416
 21
272.826780
 31
0.0
  0
LINE
  5
19f
100
AcDbEntity
  8
Layer_1
 62
5
100
AcDbLine
 10
411.191814
 20
282.822132
 30
0.0
 11
491.154796
 21
282.822132
 31
0.0
  0
LINE
  5
1a0
100
AcDbEntity
  8
Layer_1
 62
7
100
AcDbLine
 10
408.293138
 20
392.771218
 30
0.0
 11
408.293138
 21
272.826780
 31
0.0
  0
LINE
  5
1a1
100
AcDbEntity
  8
Layer_1
 62
7
100
AcDbLine
 10
408.293138
 20
392.771218
 30
0.0
 11
494.053416
 21
392.771218
 31
0.0
  0
LINE
  5
1a2
100
AcDbEntity
  8
Layer_1
 62
7
100
AcDbLine
 10
494.053416
 20
392.771218
 30
0.0
 11
494.053416
 21
272.826780
 31
0.0
  0
LINE
  5
1a3
100
AcDbEntity
  8
Layer_1
 62
5
100
AcDbLine
 10
411.191814
 20
282.822132
 30
0.0
 11
411.191814
 21
277.824484
 31
0.0
  0
LINE
  5
1a4
100
AcDbEntity
  8
Layer_1
 62
5
100
AcDbLine
 10
411.191814
 20
277.824484
 30
0.0
 11
491.154796
 21
277.824484
 31
0.0
  0
LINE
  5
1a5
100
AcDbEntity
  8
Layer_1
 62
5
100
AcDbLine
 10
491.154796
 20
282.822132
 30
0.0
 11
491.154796
 21
277.824484
 31
0.0
  0
LINE
  5
1a6
100
AcDbEntity
  8
Layer_1
 62
5
100
AcDbLine
 10
411.191814
 20
387.773520
 30
0.0
 11
491.154796
 21
387.773520
 31
0.0
  0
LINE
  5
1a7
100
AcDbEntity
  8
Layer_1
 62
5
100
AcDbLine
 10
411.191814
 20
387.773520
 30
0.0
 11
411.191814
 21
382.775861
 31
0.0
  0
LINE
  5
1a8
100
AcDbEntity
  8
Layer_1
 62
5
100
AcDbLine
 10
411.191814
 20
382.775861
 30
0.0
 11
491.154796
 21
382.775861
 31
0.0
  0
SPLINE
  5
1a9
100
AcDbEntity
  8
Layer_1
 62
7
100
AcDbSpline
 70
0
 71
3
 72
13
 73
9
 74
7
 40
0.000000
 40
0.000000
 40
0.000000
 40
0.000000
 40
13.274473
 40
26.155229
 40
39.429703
 40
52.704172
 40
65.584926
 40
78.859399
 40
78.859399
 40
78.859399
 40
78.859399
 10
287.877742
 20
336.006732
 30
0.0
 10
292.353270
 20
335.308424
 30
0.0
 10
301.171583
 20
333.932520
 30
0.0
 10
310.879823
 20
323.832569
 30
0.0
 10
314.477017
 20
310.618491
 30
0.0
 10
310.879823
 20
297.404413
 30
0.0
 10
301.171582
 20
287.304466
 30
0.0
 10
292.353270
 20
285.928563
 30
0.0
 10
287.877742
 20
285.230255
 30
0.0
 11
287.877742
 21
336.006732
 31
0.0
 11
300.691673
 21
332.540492
 31
0.0
 11
309.799741
 21
323.432421
 31
0.0
 11
313.265979
 21
310.618489
 31
0.0
 11
309.799741
 21
297.804562
 31
0.0
 11
300.691673
 21
288.696494
 31
0.0
 11
287.877742
 21
285.230255
 31
0.0
  0
ENDSEC
  0
SECTION
  2
OBJECTS
  0
DICTIONARY
  5
C
330
0
100
AcDbDictionary
  3
ACAD_GROUP
350
D
  3
ACAD_MLINESTYLE
350
17
  0
DICTIONARY
  5
D
330
C
100
AcDbDictionary
  0
DICTIONARY
  5
1A
330
C
100
AcDbDictionary
  0
DICTIONARY
  5
17
330
C
100
AcDbDictionary
  3
STANDARD
350
18
  0
DICTIONARY
  5
19
330
C
100
AcDbDictionary
  0
ENDSEC
  0
EOF
