  0
SECTION
  2
HEADER
  9
$ACADVER
  1
AC1014
  9
$HANDSEED
  5
FFFF
  9
$MEASUREMENT
 70
     1
  0
ENDSEC
  0
SECTION
  2
TABLES
  0
TABLE
  2
VPORT
  5
8
330
0
100
AcDbSymbolTable
 70
     4
  0
VPORT
  5
2E
330
8
100
AcDbSymbolTableRecord
100
AcDbViewportTableRecord
  2
*ACTIVE
 70
     0
 10
0.0
 20
0.0
 11
1.0
 21
1.0
 12
210.0
 22
148.5
 13
0.0
 23
0.0
 14
10.0
 24
10.0
 15
10.0
 25
10.0
 16
0.0
 26
0.0
 36
1.0
 17
0.0
 27
0.0
 37
0.0
 40
341.0
 41
1.24
 42
50.0
 43
0.0
 44
0.0
 50
0.0
 51
0.0
 71
     0
 72
   100
 73
     1
 74
     3
 75
     0
 76
     0
 77
     0
 78
     0
  0
ENDTAB
  0
TABLE
  2
LTYPE
  5
5
330
0
100
AcDbSymbolTable
 70
     1
  0
LTYPE
  5
14
330
5
100
AcDbSymbolTableRecord
100
AcDbLinetypeTableRecord
  2
BYBLOCK
 70
     0
  3

 72
    65
 73
     0
 40
0.0
  0
LTYPE
  5
15
330
5
100
AcDbSymbolTableRecord
100
AcDbLinetypeTableRecord
  2
BYLAYER
 70
     0
  3

 72
    65
 73
     0
 40
0.0
  0
LTYPE
  5
16
330
5
100
AcDbSymbolTableRecord
100
AcDbLinetypeTableRecord
  2
CONTINUOUS
 70
     0
  3
Solid line
 72
    65
 73
     0
 40
0.0
  0
ENDTAB
  0
TABLE
  2
LAYER
  5
2
100
AcDbSymbolTable
 70
2
  0
LAYER
  5
50
100
AcDbSymbolTableRecord
100
AcDbLayerTableRecord
  2
0
 70
0
  6
CONTINUOUS
  0
LAYER
  5
51
100
AcDbSymbolTableRecord
100
AcDbLayerTableRecord
  2
Layer_1
 70
0
  6
CONTINUOUS
  0
ENDTAB
  0
TABLE
  2
STYLE
  5
3
330
0
100
AcDbSymbolTable
 70
     1
  0
STYLE
  5
11
330
3
100
AcDbSymbolTableRecord
100
AcDbTextStyleTableRecord
  2
STANDARD
 70
     0
 40
0.0
 41
1.0
 50
0.0
 71
     0
 42
2.5
  3
txt
  4

  0
ENDTAB
  0
TABLE
  2
VIEW
  5
6
330
0
100
AcDbSymbolTable
 70
     0
  0
ENDTAB
  0
TABLE
  2
UCS
  5
7
330
0
100
AcDbSymbolTable
 70
     0
  0
ENDTAB
  0
TABLE
  2
APPID
  5
9
330
0
100
AcDbSymbolTable
 70
     2
  0
APPID
  5
12
330
9
100
AcDbSymbolTableRecord
100
AcDbRegAppTableRecord
  2
ACAD
 70
     0
  0
ENDTAB
  0
TABLE
  2
DIMSTYLE
  5
A
330
0
100
AcDbSymbolTable
 70
     1
  0
DIMSTYLE
105
27
330
A
100
AcDbSymbolTableRecord
100
AcDbDimStyleTableRecord
  2
ISO-25
 70
     0
  3

  4

  5

  6

  7

 40
1.0
 41
2.5
 42
0.625
 43
3.75
 44
1.25
 45
0.0
 46
0.0
 47
0.0
 48
0.0
140
2.5
141
2.5
142
0.0
143
0.03937007874016
144
1.0
145
0.0
146
1.0
147
0.625
 71
     0
 72
     0
 73
     0
 74
     0
 75
     0
 76
     0
 77
     1
 78
     8
170
     0
171
     3
172
     1
173
     0
174
     0
175
     0
176
     0
177
     0
178
     0
270
     2
271
     2
272
     2
273
     2
274
     3
340
11
275
     0
280
     0
281
     0
282
     0
283
     0
284
     8
285
     0
286
     0
287
     3
288
     0
  0
ENDTAB
  0
TABLE
  2
BLOCK_RECORD
  5
1
330
0
100
AcDbSymbolTable
 70
     1
  0
BLOCK_RECORD
  5
1F
330
1
100
AcDbSymbolTableRecord
100
AcDbBlockTableRecord
  2
*MODEL_SPACE
  0
BLOCK_RECORD
  5
1B
330
1
100
AcDbSymbolTableRecord
100
AcDbBlockTableRecord
  2
*PAPER_SPACE
  0
ENDTAB
  0
ENDSEC
  0
SECTION
  2
BLOCKS
  0
BLOCK
  5
20
330
1F
100
AcDbEntity
  8
0
100
AcDbBlockBegin
  2
*MODEL_SPACE
 70
     0
 10
0.0
 20
0.0
 30
0.0
  3
*MODEL_SPACE
  1

  0
ENDBLK
  5
21
330
1F
100
AcDbEntity
  8
0
100
AcDbBlockEnd
  0
BLOCK
  5
1C
330
1B
100
AcDbEntity
 67
     1
  8
0
100
AcDbBlockBegin
  2
*PAPER_SPACE
  1

  0
ENDBLK
  5
1D
330
1B
100
AcDbEntity
 67
     1
  8
0
100
AcDbBlockEnd
  0
ENDSEC
  0
SECTION
  2
ENTITIES
  0
LINE
  5
100
100
AcDbEntity
  8
Layer_1
 62
7
100
AcDbLine
 10
36.254521
 20
184.044326
 30
0.0
 11
36.254521
 21
76.604993
 31
0.0
  0
SPLINE
  5
101
100
AcDbEntity
  8
Layer_1
 62
7
100
AcDbSpline
 70
0
 71
3
 72
10
 73
6
 74
4
 40
0.000000
 40
0.000000
 40
0.000000
 40
0.000000
 40
1.291277
 40
2.572132
 40
3.863406
 40
3.863406
 40
3.863406
 40
3.863406
 10
37.682424
 20
187.541976
 30
0.0
 10
37.404791
 20
187.210946
 30
0.0
 10
36.851765
 20
186.551558
 30
0.0
 10
36.354338
 20
185.333106
 30
0.0
 10
36.287883
 20
184.475078
 30
0.0
 10
36.254521
 20
184.044326
 30
0.0
 11
37.682424
 21
187.541976
 31
0.0
 11
36.905438
 21
186.510623
 31
0.0
 11
36.421323
 21
185.324781
 31
0.0
 11
36.254521
 21
184.044326
 31
0.0
  0
LINE
  5
102
100
AcDbEntity
  8
Layer_1
 62
7
100
AcDbLine
 10
34.255428
 20
138.471005
 30
0.0
 11
34.255428
 21
188.941036
 31
0.0
  0
SPLINE
  5
103
100
AcDbEntity
  8
Layer_1
 62
7
100
AcDbSpline
 70
0
 71
3
 72
16
 73
12
 74
10
 40
0.000000
 40
0.000000
 40
0.000000
 40
0.000000
 40
1.045232
 40
2.059463
 40
3.104696
 40
4.149932
 40
5.164171
 40
6.209419
 40
6.725927
 40
7.238270
 40
7.754780
 40
7.754780
 40
7.754780
 40
7.754780
 10
37.682424
 20
187.541976
 30
0.0
 10
37.889809
 20
187.832147
 30
0.0
 10
38.298427
 20
188.403884
 30
0.0
 10
38.264932
 20
189.506870
 30
0.0
 10
37.721682
 20
190.435838
 30
0.0
 10
36.773856
 20
190.967423
 30
0.0
 10
35.694219
 20
190.957035
 30
0.0
 10
34.915431
 20
190.497855
 30
0.0
 10
34.498912
 20
189.939821
 30
0.0
 10
34.294205
 20
189.457571
 30
0.0
 10
34.268388
 20
189.113673
 30
0.0
 10
34.255428
 20
188.941028
 30
0.0
 11
37.682424
 21
187.541976
 31
0.0
 11
38.193602
 21
188.453682
 31
0.0
 11
38.183258
 21
189.467861
 31
0.0
 11
37.653581
 21
190.368945
 31
0.0
 11
36.741872
 21
190.880126
 31
0.0
 11
35.727686
 21
190.869775
 31
0.0
 11
34.826589
 21
190.340088
 31
0.0
 11
34.515800
 21
189.927547
 31
0.0
 11
34.322151
 21
189.453210
 31
0.0
 11
34.255428
 21
188.941028
 31
0.0
  0
SPLINE
  5
104
100
AcDbEntity
  8
Layer_1
 62
7
100
AcDbSpline
 70
0
 71
3
 72
13
 73
9
 74
7
 40
0.000000
 40
0.000000
 40
0.000000
 40
0.000000
 40
2.613094
 40
5.148678
 40
7.761763
 40
9.079481
 40
10.386148
 40
11.703873
 40
11.703873
 40
11.703873
 40
11.703873
 10
25.703840
 20
134.957234
 30
0.0
 10
26.421078
 20
134.427466
 30
0.0
 10
27.834277
 20
133.383644
 30
0.0
 10
30.590806
 20
133.421322
 30
0.0
 10
32.549608
 20
134.529280
 30
0.0
 10
33.622169
 20
135.926763
 30
0.0
 10
34.154367
 20
137.153112
 30
0.0
 10
34.221646
 20
138.030475
 30
0.0
 10
34.255428
 20
138.471005
 30
0.0
 11
25.703840
 21
134.957234
 31
0.0
 11
27.962530
 21
133.643240
 31
0.0
 11
30.498073
 21
133.628839
 31
0.0
 11
32.771532
 21
134.917093
 31
0.0
 11
33.578262
 21
135.958999
 31
0.0
 11
34.081722
 21
137.164779
 31
0.0
 11
34.255428
 21
138.471005
 31
0.0
  0
LINE
  5
105
100
AcDbEntity
  8
Layer_1
 62
7
100
AcDbLine
 10
11.266085
 20
307.740824
 30
0.0
 11
11.266085
 21
170.094942
 31
0.0
  0
SPLINE
  5
106
100
AcDbEntity
  8
Layer_1
 62
7
100
AcDbSpline
 70
0
 71
3
 72
10
 73
6
 74
4
 40
0.000000
 40
0.000000
 40
0.000000
 40
0.000000
 40
12.988119
 40
25.870252
 40
38.858372
 40
38.858372
 40
38.858372
 40
38.858372
 10
11.266085
 20
170.094942
 30
0.0
 10
11.603621
 20
165.762228
 30
0.0
 10
12.275938
 20
157.132156
 30
0.0
 10
17.308086
 20
144.885223
 30
0.0
 10
22.897622
 20
138.275590
 30
0.0
 10
25.703840
 20
134.957234
 30
0.0
 11
11.266085
 21
170.094942
 31
0.0
 11
12.953657
 21
157.216924
 31
0.0
 11
17.849619
 21
145.301434
 31
0.0
 11
25.703840
 21
134.957234
 31
0.0
  0
SPLINE
  5
107
100
AcDbEntity
  8
Layer_1
 62
7
100
AcDbSpline
 70
0
 71
3
 72
10
 73
6
 74
4
 40
0.000000
 40
0.000000
 40
0.000000
 40
0.000000
 40
12.988124
 40
25.870267
 40
38.858388
 40
38.858388
 40
38.858388
 40
38.858388
 10
25.703840
 20
342.878549
 30
0.0
 10
22.897622
 20
339.560192
 30
0.0
 10
17.308083
 20
332.950555
 30
0.0
 10
12.275939
 20
320.703615
 30
0.0
 10
11.603621
 20
312.073539
 30
0.0
 10
11.266085
 20
307.740824
 30
0.0
 11
25.703840
 21
342.878549
 31
0.0
 11
17.849619
 21
332.534345
 31
0.0
 11
12.953657
 21
320.618844
 31
0.0
 11
11.266085
 21
307.740824
 31
0.0
  0
LINE
  5
108
100
AcDbEntity
  8
Layer_1
 62
7
100
AcDbLine
 10
34.255428
 20
288.894731
 30
0.0
 11
34.255428
 21
339.364778
 31
0.0
  0
SPLINE
  5
109
100
AcDbEntity
  8
Layer_1
 62
7
100
AcDbSpline
 70
0
 71
3
 72
13
 73
9
 74
7
 40
0.000000
 40
0.000000
 40
0.000000
 40
0.000000
 40
2.613073
 40
5.148643
 40
7.761732
 40
9.079454
 40
10.386116
 40
11.703839
 40
11.703839
 40
11.703839
 40
11.703839
 10
34.255428
 20
339.364778
 30
0.0
 10
34.117865
 20
340.245770
 30
0.0
 10
33.846820
 20
341.981625
 30
0.0
 10
31.860136
 20
343.892886
 30
0.0
 10
29.688228
 20
344.482181
 30
0.0
 10
27.942974
 20
344.242531
 30
0.0
 10
26.702298
 20
343.744649
 30
0.0
 10
26.037593
 20
343.168059
 30
0.0
 10
25.703840
 20
342.878549
 30
0.0
 11
34.255428
 21
339.364778
 31
0.0
 11
33.573103
 21
341.887194
 31
0.0
 11
31.780184
 21
343.680113
 31
0.0
 11
29.257752
 21
344.362440
 31
0.0
 11
27.951529
 21
344.188736
 31
0.0
 11
26.745753
 21
343.685278
 31
0.0
 11
25.703840
 21
342.878549
 31
0.0
  0
SPLINE
  5
10a
100
AcDbEntity
  8
Layer_1
 62
7
100
AcDbSpline
 70
0
 71
3
 72
16
 73
12
 74
10
 40
0.000000
 40
0.000000
 40
0.000000
 40
0.000000
 40
1.045228
 40
2.059460
 40
3.104696
 40
4.149924
 40
5.164147
 40
6.209373
 40
6.725894
 40
7.238243
 40
7.754754
 40
7.754754
 40
7.754754
 40
7.754754
 10
34.255428
 20
288.894731
 30
0.0
 10
34.310374
 20
288.542328
 30
0.0
 10
34.418637
 20
287.847971
 30
0.0
 10
35.214514
 20
287.083585
 30
0.0
 10
36.252688
 20
286.800242
 30
0.0
 10
37.301732
 20
287.083868
 30
0.0
 10
38.065630
 20
287.846860
 30
0.0
 10
38.300537
 20
288.719876
 30
0.0
 10
38.207517
 20
289.409974
 30
0.0
 10
38.016227
 20
289.897709
 30
0.0
 10
37.793991
 20
290.161422
 30
0.0
 10
37.682424
 20
290.293813
 30
0.0
 11
34.255428
 21
288.894731
 31
0.0
 11
34.528366
 21
287.885768
 31
0.0
 11
35.245547
 21
287.168608
 31
0.0
 11
36.254521
 21
286.895681
 31
0.0
 11
37.263487
 21
287.168608
 31
0.0
 11
37.980654
 21
287.885768
 31
0.0
 11
38.253585
 21
288.894731
 31
0.0
 11
38.186862
 21
289.406924
 31
0.0
 11
37.993213
 21
289.881268
 31
0.0
 11
37.682424
 21
290.293813
 31
0.0
  0
LINE
  5
10b
100
AcDbEntity
  8
Layer_1
 62
7
100
AcDbLine
 10
36.254521
 20
401.230782
 30
0.0
 11
36.254521
 21
293.791463
 31
0.0
  0
LINE
  5
10c
100
AcDbEntity
  8
Layer_1
 62
7
100
AcDbLine
 10
36.254521
 20
401.230782
 30
0.0
 11
138.707063
 21
401.230782
 31
0.0
  0
SPLINE
  5
10d
100
AcDbEntity
  8
Layer_1
 62
7
100
AcDbSpline
 70
0
 71
3
 72
10
 73
6
 74
4
 40
0.000000
 40
0.000000
 40
0.000000
 40
0.000000
 40
1.291287
 40
2.572145
 40
3.863409
 40
3.863409
 40
3.863409
 40
3.863409
 10
36.254521
 20
293.791463
 30
0.0
 10
36.287883
 20
293.360707
 30
0.0
 10
36.354338
 20
292.502673
 30
0.0
 10
36.851760
 20
291.284218
 30
0.0
 10
37.404790
 20
290.624837
 30
0.0
 10
37.682424
 20
290.293813
 30
0.0
 11
36.254521
 21
293.791463
 31
0.0
 11
36.421323
 21
292.510995
 31
0.0
 11
36.905438
 21
291.325149
 31
0.0
 11
37.682424
 21
290.293813
 31
0.0
  0
LINE
  5
10e
100
AcDbEntity
  8
Layer_1
 62
7
100
AcDbLine
 10
140.706136
 20
399.231698
 30
0.0
 11
140.706136
 21
293.791463
 31
0.0
  0
SPLINE
  5
10f
100
AcDbEntity
  8
Layer_1
 62
7
100
AcDbSpline
 70
0
 71
3
 72
10
 73
6
 74
4
 40
0.000000
 40
0.000000
 40
0.000000
 40
0.000000
 40
1.045233
 40
2.059470
 40
3.104706
 40
3.104706
 40
3.104706
 40
3.104706
 10
140.706136
 20
399.231698
 30
0.0
 10
140.651151
 20
399.581986
 30
0.0
 10
140.542811
 20
400.272176
 30
0.0
 10
139.747544
 20
401.067454
 30
0.0
 10
139.057353
 20
401.175796
 30
0.0
 10
138.707063
 20
401.230782
 30
0.0
 11
140.706136
 21
399.231698
 31
0.0
 11
140.433205
 21
400.240668
 31
0.0
 11
139.716034
 21
400.957845
 31
0.0
 11
138.707063
 21
401.230782
 31
0.0
  0
SPLINE
  5
110
100
AcDbEntity
  8
Layer_1
 62
7
100
AcDbSpline
 70
0
 71
3
 72
10
 73
6
 74
4
 40
0.000000
 40
0.000000
 40
0.000000
 40
0.000000
 40
1.291263
 40
2.572122
 40
3.863409
 40
3.863409
 40
3.863409
 40
3.863409
 10
139.278230
 20
290.293813
 30
0.0
 10
139.555863
 20
290.624837
 30
0.0
 10
140.108892
 20
291.284219
 30
0.0
 10
140.606318
 20
292.502673
 30
0.0
 10
140.672774
 20
293.360707
 30
0.0
 10
140.706136
 20
293.791463
 30
0.0
 11
139.278230
 21
290.293813
 31
0.0
 11
140.055214
 21
291.325149
 31
0.0
 11
140.539332
 21
292.510995
 31
0.0
 11
140.706136
 21
293.791463
 31
0.0
  0
LINE
  5
111
100
AcDbEntity
  8
Layer_1
 62
7
100
AcDbLine
 10
142.705212
 20
339.364778
 30
0.0
 11
142.705212
 21
288.894731
 31
0.0
  0
SPLINE
  5
112
100
AcDbEntity
  8
Layer_1
 62
7
100
AcDbSpline
 70
0
 71
3
 72
16
 73
12
 74
10
 40
0.000000
 40
0.000000
 40
0.000000
 40
0.000000
 40
1.045245
 40
2.059477
 40
3.104717
 40
4.149954
 40
5.164186
 40
6.209452
 40
6.725965
 40
7.238305
 40
7.754801
 40
7.754801
 40
7.754801
 40
7.754801
 10
139.278230
 20
290.293813
 30
0.0
 10
139.070843
 20
290.003638
 30
0.0
 10
138.662221
 20
289.431897
 30
0.0
 10
138.695726
 20
288.328901
 30
0.0
 10
139.238988
 20
287.399940
 30
0.0
 10
140.186803
 20
286.868343
 30
0.0
 10
141.266460
 20
286.878742
 30
0.0
 10
142.045205
 20
287.337995
 30
0.0
 10
142.461740
 20
287.896021
 30
0.0
 10
142.666444
 20
288.378269
 30
0.0
 10
142.692260
 20
288.722161
 30
0.0
 10
142.705221
 20
288.894802
 30
0.0
 11
139.278230
 21
290.293813
 31
0.0
 11
138.767048
 21
289.382095
 31
0.0
 11
138.777400
 21
288.367915
 31
0.0
 11
139.307087
 21
287.466828
 31
0.0
 11
140.218794
 21
286.955642
 31
0.0
 11
141.232973
 21
286.966011
 31
0.0
 11
142.134057
 21
287.495756
 31
0.0
 11
142.444852
 21
287.908299
 31
0.0
 11
142.638499
 21
288.382634
 31
0.0
 11
142.705221
 21
288.894802
 31
0.0
  0
SPLINE
  5
113
100
AcDbEntity
  8
Layer_1
 62
7
100
AcDbSpline
 70
0
 71
3
 72
13
 73
9
 74
7
 40
0.000000
 40
0.000000
 40
0.000000
 40
0.000000
 40
2.613081
 40
5.148662
 40
7.761755
 40
9.079471
 40
10.386131
 40
11.703849
 40
11.703849
 40
11.703849
 40
11.703849
 10
151.256805
 20
342.878549
 30
0.0
 10
150.539571
 20
343.408313
 30
0.0
 10
149.126375
 20
344.452128
 30
0.0
 10
146.369843
 20
344.414454
 30
0.0
 10
144.411061
 20
343.306469
 30
0.0
 10
143.338476
 20
341.909007
 30
0.0
 10
142.806274
 20
340.682664
 30
0.0
 10
142.738994
 20
339.805306
 30
0.0
 10
142.705212
 20
339.364778
 30
0.0
 11
151.256805
 21
342.878549
 31
0.0
 11
148.998125
 21
344.192534
 31
0.0
 11
146.462585
 21
344.206931
 31
0.0
 11
144.189125
 21
342.918661
 31
0.0
 11
143.382385
 21
341.876767
 31
0.0
 11
142.878919
 21
340.670996
 31
0.0
 11
142.705212
 21
339.364778
 31
0.0
  0
LINE
  5
114
100
AcDbEntity
  8
Layer_1
 62
7
100
AcDbLine
 10
165.694563
 20
170.094942
 30
0.0
 11
165.694563
 21
307.740824
 31
0.0
  0
SPLINE
  5
115
100
AcDbEntity
  8
Layer_1
 62
7
100
AcDbSpline
 70
0
 71
3
 72
10
 73
6
 74
4
 40
0.000000
 40
0.000000
 40
0.000000
 40
0.000000
 40
12.988121
 40
25.870265
 40
38.858388
 40
38.858388
 40
38.858388
 40
38.858388
 10
165.694563
 20
307.740824
 30
0.0
 10
165.357027
 20
312.073539
 30
0.0
 10
164.684708
 20
320.703615
 30
0.0
 10
159.652562
 20
332.950555
 30
0.0
 10
154.063023
 20
339.560192
 30
0.0
 10
151.256805
 20
342.878549
 30
0.0
 11
165.694563
 21
307.740824
 31
0.0
 11
164.006990
 21
320.618844
 31
0.0
 11
159.111026
 21
332.534345
 31
0.0
 11
151.256805
 21
342.878549
 31
0.0
  0
SPLINE
  5
116
100
AcDbEntity
  8
Layer_1
 62
7
100
AcDbSpline
 70
0
 71
3
 72
10
 73
6
 74
4
 40
0.000000
 40
0.000000
 40
0.000000
 40
0.000000
 40
12.988120
 40
25.870254
 40
38.858373
 40
38.858373
 40
38.858373
 40
38.858373
 10
151.256805
 20
134.957234
 30
0.0
 10
154.063023
 20
138.275590
 30
0.0
 10
159.652559
 20
144.885223
 30
0.0
 10
164.684710
 20
157.132155
 30
0.0
 10
165.357027
 20
165.762228
 30
0.0
 10
165.694563
 20
170.094942
 30
0.0
 11
151.256805
 21
134.957234
 31
0.0
 11
159.111026
 21
145.301434
 31
0.0
 11
164.006990
 21
157.216924
 31
0.0
 11
165.694563
 21
170.094942
 31
0.0
  0
LINE
  5
117
100
AcDbEntity
  8
Layer_1
 62
7
100
AcDbLine
 10
142.705212
 20
188.941036
 30
0.0
 11
142.705212
 21
138.471005
 31
0.0
  0
SPLINE
  5
118
100
AcDbEntity
  8
Layer_1
 62
7
100
AcDbSpline
 70
0
 71
3
 72
13
 73
9
 74
7
 40
0.000000
 40
0.000000
 40
0.000000
 40
0.000000
 40
2.613086
 40
5.148667
 40
7.761752
 40
9.079477
 40
10.386144
 40
11.703868
 40
11.703868
 40
11.703868
 40
11.703868
 10
142.705212
 20
138.471005
 30
0.0
 10
142.842776
 20
137.590009
 30
0.0
 10
143.113824
 20
135.854147
 30
0.0
 10
145.100513
 20
133.942881
 30
0.0
 10
147.272422
 20
133.353578
 30
0.0
 10
149.017678
 20
133.593232
 30
0.0
 10
150.258356
 20
134.091120
 30
0.0
 10
150.923055
 20
134.667720
 30
0.0
 10
151.256805
 20
134.957234
 30
0.0
 11
142.705212
 21
138.471005
 31
0.0
 11
143.387542
 21
135.948577
 31
0.0
 11
145.180468
 21
134.155651
 31
0.0
 11
147.702897
 21
133.473321
 31
0.0
 11
149.009122
 21
133.647028
 31
0.0
 11
150.214900
 21
134.150493
 31
0.0
 11
151.256805
 21
134.957234
 31
0.0
  0
SPLINE
  5
119
100
AcDbEntity
  8
Layer_1
 62
7
100
AcDbSpline
 70
0
 71
3
 72
16
 73
12
 74
10
 40
0.000000
 40
0.000000
 40
0.000000
 40
0.000000
 40
1.045232
 40
2.059465
 40
3.104700
 40
4.149933
 40
5.164164
 40
6.209397
 40
6.725909
 40
7.238252
 40
7.754762
 40
7.754762
 40
7.754762
 40
7.754762
 10
142.705212
 20
188.941036
 30
0.0
 10
142.650268
 20
189.293441
 30
0.0
 10
142.542009
 20
189.987800
 30
0.0
 10
141.746144
 20
190.752199
 30
0.0
 10
140.707967
 20
191.035547
 30
0.0
 10
139.658920
 20
190.751914
 30
0.0
 10
138.895021
 20
189.988914
 30
0.0
 10
138.660112
 20
189.115897
 30
0.0
 10
138.753131
 20
188.425802
 30
0.0
 10
138.944421
 20
187.938072
 30
0.0
 10
139.166660
 20
187.674364
 30
0.0
 10
139.278230
 20
187.541976
 30
0.0
 11
142.705212
 21
188.941036
 31
0.0
 11
142.432280
 21
189.950006
 31
0.0
 11
141.715108
 21
190.667175
 31
0.0
 11
140.706136
 21
190.940107
 31
0.0
 11
139.697166
 21
190.667175
 31
0.0
 11
138.979996
 21
189.950006
 31
0.0
 11
138.707063
 21
188.941036
 31
0.0
 11
138.773786
 21
188.428852
 31
0.0
 11
138.967434
 21
187.954515
 31
0.0
 11
139.278230
 21
187.541976
 31
0.0
  0
LINE
  5
11a
100
AcDbEntity
  8
Layer_1
 62
7
100
AcDbLine
 10
140.706136
 20
78.604066
 30
0.0
 11
140.706136
 21
184.044326
 31
0.0
  0
SPLINE
  5
11b
100
AcDbEntity
  8
Layer_1
 62
7
100
AcDbSpline
 70
0
 71
3
 72
10
 73
6
 74
4
 40
0.000000
 40
0.000000
 40
0.000000
 40
0.000000
 40
1.291275
 40
2.572130
 40
3.863406
 40
3.863406
 40
3.863406
 40
3.863406
 10
140.706136
 20
184.044326
 30
0.0
 10
140.672774
 20
184.475078
 30
0.0
 10
140.606317
 20
185.333107
 30
0.0
 10
140.108887
 20
186.551557
 30
0.0
 10
139.555863
 20
187.210946
 30
0.0
 10
139.278230
 20
187.541976
 30
0.0
 11
140.706136
 21
184.044326
 31
0.0
 11
140.539332
 21
185.324781
 31
0.0
 11
140.055214
 21
186.510623
 31
0.0
 11
139.278230
 21
187.541976
 31
0.0
  0
LINE
  5
11c
100
AcDbEntity
  8
Layer_1
 62
7
100
AcDbLine
 10
36.254521
 20
76.604993
 30
0.0
 11
138.707063
 21
76.604993
 31
0.0
  0
SPLINE
  5
11d
100
AcDbEntity
  8
Layer_1
 62
7
100
AcDbSpline
 70
0
 71
3
 72
10
 73
6
 74
4
 40
0.000000
 40
0.000000
 40
0.000000
 40
0.000000
 40
1.045234
 40
2.059467
 40
3.104700
 40
3.104700
 40
3.104700
 40
3.104700
 10
138.707063
 20
76.604993
 30
0.0
 10
139.057353
 20
76.659978
 30
0.0
 10
139.747542
 20
76.768316
 30
0.0
 10
140.542813
 20
77.563588
 30
0.0
 10
140.651152
 20
78.253777
 30
0.0
 10
140.706136
 20
78.604066
 30
0.0
 11
138.707063
 21
76.604993
 31
0.0
 11
139.716034
 21
76.877925
 31
0.0
 11
140.433205
 21
77.595096
 31
0.0
 11
140.706136
 21
78.604066
 31
0.0
  0
SPLINE
  5
11e
100
AcDbEntity
  8
Layer_1
 62
5
100
AcDbSpline
 70
0
 71
3
 72
19
 73
15
 74
13
 40
0.000000
 40
0.000000
 40
0.000000
 40
0.000000
 40
2.221122
 40
4.376375
 40
6.597495
 40
8.818628
 40
10.973877
 40
13.194997
 40
15.416117
 40
17.571365
 40
19.792498
 40
22.013619
 40
24.168872
 40
26.389993
 40
26.389993
 40
26.389993
 40
26.389993
 10
40.302632
 20
304.987289
 30
0.0
 10
40.419390
 20
304.238432
 30
0.0
 10
40.649444
 20
302.762925
 30
0.0
 10
42.340656
 20
301.138513
 30
0.0
 10
44.546773
 20
300.536609
 30
0.0
 10
46.776055
 20
301.138508
 30
0.0
 10
48.399153
 20
302.762927
 30
0.0
 10
49.001489
 20
304.987289
 30
0.0
 10
48.399153
 20
307.211651
 30
0.0
 10
46.776055
 20
308.836070
 30
0.0
 10
44.546773
 20
309.437969
 30
0.0
 10
42.340656
 20
308.836066
 30
0.0
 10
40.649444
 20
307.211653
 30
0.0
 10
40.419390
 20
305.736146
 30
0.0
 10
40.302632
 20
304.987289
 30
0.0
 11
40.302632
 21
304.987289
 31
0.0
 11
40.882616
 21
302.843228
 31
0.0
 11
42.406609
 21
301.319232
 31
0.0
 11
44.550669
 21
300.739246
 31
0.0
 11
46.694741
 21
301.319232
 31
0.0
 11
48.218728
 21
302.843228
 31
0.0
 11
48.798706
 21
304.987289
 31
0.0
 11
48.218728
 21
307.131351
 31
0.0
 11
46.694741
 21
308.655346
 31
0.0
 11
44.550669
 21
309.235332
 31
0.0
 11
42.406609
 21
308.655346
 31
0.0
 11
40.882616
 21
307.131351
 31
0.0
 11
40.302632
 21
304.987289
 31
0.0
  0
LINE
  5
11f
100
AcDbEntity
  8
Layer_1
 62
5
100
AcDbLine
 10
47.049521
 20
144.523534
 30
0.0
 11
42.051817
 21
144.523534
 31
0.0
  0
SPLINE
  5
120
100
AcDbEntity
  8
Layer_1
 62
5
100
AcDbSpline
 70
0
 71
3
 72
10
 73
6
 74
4
 40
0.000000
 40
0.000000
 40
0.000000
 40
0.000000
 40
0.522611
 40
1.029721
 40
1.552339
 40
1.552339
 40
1.552339
 40
1.552339
 10
47.049521
 20
144.523534
 30
0.0
 10
47.224664
 20
144.496042
 30
0.0
 10
47.569755
 20
144.441873
 30
0.0
 10
47.967382
 20
144.044234
 30
0.0
 10
48.021548
 20
143.699141
 30
0.0
 10
48.049039
 20
143.523996
 30
0.0
 11
47.049521
 21
144.523534
 31
0.0
 11
47.554000
 21
144.387069
 31
0.0
 11
47.912577
 21
144.028484
 31
0.0
 11
48.049039
 21
143.523996
 31
0.0
  0
LINE
  5
121
100
AcDbEntity
  8
Layer_1
 62
5
100
AcDbLine
 10
41.052298
 20
132.529090
 30
0.0
 11
41.052298
 21
143.523996
 31
0.0
  0
SPLINE
  5
122
100
AcDbEntity
  8
Layer_1
 62
5
100
AcDbSpline
 70
0
 71
3
 72
10
 73
6
 74
4
 40
0.000000
 40
0.000000
 40
0.000000
 40
0.000000
 40
0.522618
 40
1.029728
 40
1.552339
 40
1.552339
 40
1.552339
 40
1.552339
 10
41.052298
 20
143.523996
 30
0.0
 10
41.079789
 20
143.699141
 30
0.0
 10
41.133955
 20
144.044234
 30
0.0
 10
41.531582
 20
144.441873
 30
0.0
 10
41.876674
 20
144.496042
 30
0.0
 10
42.051817
 20
144.523534
 30
0.0
 11
41.052298
 21
143.523996
 31
0.0
 11
41.188760
 21
144.028484
 31
0.0
 11
41.547337
 21
144.387069
 31
0.0
 11
42.051817
 21
144.523534
 31
0.0
  0
LINE
  5
123
100
AcDbEntity
  8
Layer_1
 62
5
100
AcDbLine
 10
47.049521
 20
131.529552
 30
0.0
 11
42.051817
 21
131.529552
 31
0.0
  0
SPLINE
  5
124
100
AcDbEntity
  8
Layer_1
 62
5
100
AcDbSpline
 70
0
 71
3
 72
10
 73
6
 74
4
 40
0.000000
 40
0.000000
 40
0.000000
 40
0.000000
 40
0.522612
 40
1.029723
 40
1.552338
 40
1.552338
 40
1.552338
 40
1.552338
 10
42.051817
 20
131.529552
 30
0.0
 10
41.876674
 20
131.557044
 30
0.0
 10
41.531582
 20
131.611214
 30
0.0
 10
41.133956
 20
132.008854
 30
0.0
 10
41.079790
 20
132.353946
 30
0.0
 10
41.052298
 20
132.529090
 30
0.0
 11
42.051817
 21
131.529552
 31
0.0
 11
41.547337
 21
131.666019
 31
0.0
 11
41.188760
 21
132.024605
 31
0.0
 11
41.052298
 21
132.529090
 31
0.0
  0
LINE
  5
125
100
AcDbEntity
  8
Layer_1
 62
5
100
AcDbLine
 10
48.049039
 20
132.529090
 30
0.0
 11
48.049039
 21
143.523996
 31
0.0
  0
SPLINE
  5
126
100
AcDbEntity
  8
Layer_1
 62
5
100
AcDbSpline
 70
0
 71
3
 72
10
 73
6
 74
4
 40
0.000000
 40
0.000000
 40
0.000000
 40
0.000000
 40
0.522615
 40
1.029726
 40
1.552338
 40
1.552338
 40
1.552338
 40
1.552338
 10
48.049039
 20
132.529090
 30
0.0
 10
48.021548
 20
132.353946
 30
0.0
 10
47.967381
 20
132.008854
 30
0.0
 10
47.569755
 20
131.611214
 30
0.0
 10
47.224664
 20
131.557044
 30
0.0
 10
47.049521
 20
131.529552
 30
0.0
 11
48.049039
 21
132.529090
 31
0.0
 11
47.912577
 21
132.024605
 31
0.0
 11
47.554000
 21
131.666019
 31
0.0
 11
47.049521
 21
131.529552
 31
0.0
  0
LINE
  5
127
100
AcDbEntity
  8
Layer_1
 62
5
100
AcDbLine
 10
41.052298
 20
345.306685
 30
0.0
 11
41.052298
 21
334.311764
 31
0.0
  0
SPLINE
  5
128
100
AcDbEntity
  8
Layer_1
 62
5
100
AcDbSpline
 70
0
 71
3
 72
10
 73
6
 74
4
 40
0.000000
 40
0.000000
 40
0.000000
 40
0.000000
 40
0.522612
 40
1.029718
 40
1.552328
 40
1.552328
 40
1.552328
 40
1.552328
 10
41.052298
 20
345.306685
 30
0.0
 10
41.079789
 20
345.481828
 30
0.0
 10
41.133956
 20
345.826918
 30
0.0
 10
41.531584
 20
346.224550
 30
0.0
 10
41.876674
 20
346.278717
 30
0.0
 10
42.051817
 20
346.306209
 30
0.0
 11
41.052298
 21
345.306685
 31
0.0
 11
41.188760
 21
345.811166
 31
0.0
 11
41.547337
 21
346.169745
 31
0.0
 11
42.051817
 21
346.306209
 31
0.0
  0
LINE
  5
129
100
AcDbEntity
  8
Layer_1
 62
5
100
AcDbLine
 10
47.049521
 20
333.312240
 30
0.0
 11
42.051817
 21
333.312240
 31
0.0
  0
SPLINE
  5
12a
100
AcDbEntity
  8
Layer_1
 62
5
100
AcDbSpline
 70
0
 71
3
 72
10
 73
6
 74
4
 40
0.000000
 40
0.000000
 40
0.000000
 40
0.000000
 40
0.522611
 40
1.029717
 40
1.552328
 40
1.552328
 40
1.552328
 40
1.552328
 10
42.051817
 20
333.312240
 30
0.0
 10
41.876674
 20
333.339732
 30
0.0
 10
41.531584
 20
333.393899
 30
0.0
 10
41.133956
 20
333.791531
 30
0.0
 10
41.079789
 20
334.136621
 30
0.0
 10
41.052298
 20
334.311764
 30
0.0
 11
42.051817
 21
333.312240
 31
0.0
 11
41.547337
 21
333.448704
 31
0.0
 11
41.188760
 21
333.807283
 31
0.0
 11
41.052298
 21
334.311764
 31
0.0
  0
LINE
  5
12b
100
AcDbEntity
  8
Layer_1
 62
5
100
AcDbLine
 10
48.049039
 20
345.306685
 30
0.0
 11
48.049039
 21
334.311764
 31
0.0
  0
SPLINE
  5
12c
100
AcDbEntity
  8
Layer_1
 62
5
100
AcDbSpline
 70
0
 71
3
 72
10
 73
6
 74
4
 40
0.000000
 40
0.000000
 40
0.000000
 40
0.000000
 40
0.522612
 40
1.029718
 40
1.552328
 40
1.552328
 40
1.552328
 40
1.552328
 10
48.049039
 20
334.311764
 30
0.0
 10
48.021548
 20
334.136621
 30
0.0
 10
47.967382
 20
333.791531
 30
0.0
 10
47.569753
 20
333.393899
 30
0.0
 10
47.224663
 20
333.339732
 30
0.0
 10
47.049521
 20
333.312240
 30
0.0
 11
48.049039
 21
334.311764
 31
0.0
 11
47.912577
 21
333.807283
 31
0.0
 11
47.554000
 21
333.448704
 31
0.0
 11
47.049521
 21
333.312240
 31
0.0
  0
LINE
  5
12d
100
AcDbEntity
  8
Layer_1
 62
5
100
AcDbLine
 10
47.049521
 20
346.306209
 30
0.0
 11
42.051817
 21
346.306209
 31
0.0
  0
SPLINE
  5
12e
100
AcDbEntity
  8
Layer_1
 62
5
100
AcDbSpline
 70
0
 71
3
 72
10
 73
6
 74
4
 40
0.000000
 40
0.000000
 40
0.000000
 40
0.000000
 40
0.522611
 40
1.029717
 40
1.552328
 40
1.552328
 40
1.552328
 40
1.552328
 10
47.049521
 20
346.306209
 30
0.0
 10
47.224663
 20
346.278717
 30
0.0
 10
47.569753
 20
346.224550
 30
0.0
 10
47.967382
 20
345.826918
 30
0.0
 10
48.021548
 20
345.481828
 30
0.0
 10
48.049039
 20
345.306685
 30
0.0
 11
47.049521
 21
346.306209
 31
0.0
 11
47.554000
 21
346.169745
 31
0.0
 11
47.912577
 21
345.811166
 31
0.0
 11
48.049039
 21
345.306685
 31
0.0
  0
LINE
  5
12f
100
AcDbEntity
  8
Layer_1
 62
1
100
AcDbLine
 10
76.389230
 20
306.833234
 30
0.0
 11
76.244027
 21
306.862515
 31
0.0
  0
LINE
  5
130
100
AcDbEntity
  8
Layer_1
 62
1
100
AcDbLine
 10
76.244027
 20
306.862515
 30
0.0
 11
76.151176
 21
306.926509
 31
0.0
  0
LINE
  5
131
100
AcDbEntity
  8
Layer_1
 62
1
100
AcDbLine
 10
76.622938
 20
306.926472
 30
0.0
 11
76.501272
 21
306.851260
 31
0.0
  0
LINE
  5
132
100
AcDbEntity
  8
Layer_1
 62
1
100
AcDbLine
 10
76.501272
 20
306.851260
 30
0.0
 11
76.389230
 21
306.833282
 31
0.0
  0
LINE
  5
133
100
AcDbEntity
  8
Layer_1
 62
1
100
AcDbLine
 10
76.721095
 20
307.209578
 30
0.0
 11
76.690305
 21
307.027262
 31
0.0
  0
LINE
  5
134
100
AcDbEntity
  8
Layer_1
 62
1
100
AcDbLine
 10
76.690305
 20
307.027262
 30
0.0
 11
76.622938
 21
306.926472
 31
0.0
  0
LINE
  5
135
100
AcDbEntity
  8
Layer_1
 62
1
100
AcDbLine
 10
76.622938
 20
307.491024
 30
0.0
 11
76.702102
 21
307.357566
 31
0.0
  0
LINE
  5
136
100
AcDbEntity
  8
Layer_1
 62
1
100
AcDbLine
 10
76.702102
 20
307.357566
 30
0.0
 11
76.721010
 21
307.209578
 31
0.0
  0
LINE
  5
137
100
AcDbEntity
  8
Layer_1
 62
1
100
AcDbLine
 10
76.389230
 20
307.582641
 30
0.0
 11
76.529325
 21
307.554066
 31
0.0
  0
LINE
  5
138
100
AcDbEntity
  8
Layer_1
 62
1
100
AcDbLine
 10
76.529325
 20
307.554066
 30
0.0
 11
76.622938
 21
307.491165
 31
0.0
  0
LINE
  5
139
100
AcDbEntity
  8
Layer_1
 62
1
100
AcDbLine
 10
76.151176
 20
307.492646
 30
0.0
 11
76.272588
 21
307.565211
 31
0.0
  0
LINE
  5
13a
100
AcDbEntity
  8
Layer_1
 62
1
100
AcDbLine
 10
76.272588
 20
307.565211
 30
0.0
 11
76.389230
 21
307.582512
 31
0.0
  0
LINE
  5
13b
100
AcDbEntity
  8
Layer_1
 62
1
100
AcDbLine
 10
76.056264
 20
307.209578
 30
0.0
 11
76.086039
 21
307.393479
 31
0.0
  0
LINE
  5
13c
100
AcDbEntity
  8
Layer_1
 62
1
100
AcDbLine
 10
76.086039
 20
307.393479
 30
0.0
 11
76.151176
 21
307.492646
 31
0.0
  0
LINE
  5
13d
100
AcDbEntity
  8
Layer_1
 62
1
100
AcDbLine
 10
76.151176
 20
306.926472
 30
0.0
 11
76.074637
 21
307.061233
 31
0.0
  0
LINE
  5
13e
100
AcDbEntity
  8
Layer_1
 62
1
100
AcDbLine
 10
76.074637
 20
307.061233
 30
0.0
 11
76.056292
 21
307.209578
 31
0.0
  0
LINE
  5
13f
100
AcDbEntity
  8
Layer_1
 62
1
100
AcDbLine
 10
80.740504
 20
306.203066
 30
0.0
 11
79.330578
 21
302.488457
 31
0.0
  0
LINE
  5
140
100
AcDbEntity
  8
Layer_1
 62
1
100
AcDbLine
 10
80.137480
 20
306.203066
 30
0.0
 11
80.740504
 21
306.203066
 31
0.0
  0
LINE
  5
141
100
AcDbEntity
  8
Layer_1
 62
1
100
AcDbLine
 10
79.248141
 20
303.740573
 30
0.0
 11
79.397888
 21
304.161261
 31
0.0
  0
LINE
  5
142
100
AcDbEntity
  8
Layer_1
 62
1
100
AcDbLine
 10
79.397888
 20
304.161261
 30
0.0
 11
79.624851
 21
304.791004
 31
0.0
  0
LINE
  5
143
100
AcDbEntity
  8
Layer_1
 62
1
100
AcDbLine
 10
79.624851
 20
304.791004
 30
0.0
 11
79.857346
 21
305.432495
 31
0.0
  0
LINE
  5
144
100
AcDbEntity
  8
Layer_1
 62
1
100
AcDbLine
 10
79.857346
 20
305.432495
 30
0.0
 11
80.137480
 21
306.203069
 31
0.0
  0
LINE
  5
145
100
AcDbEntity
  8
Layer_1
 62
1
100
AcDbLine
 10
79.012796
 20
302.997092
 30
0.0
 11
79.104772
 21
303.318439
 31
0.0
  0
LINE
  5
146
100
AcDbEntity
  8
Layer_1
 62
1
100
AcDbLine
 10
79.104772
 20
303.318439
 30
0.0
 11
79.248141
 21
303.740573
 31
0.0
  0
LINE
  5
147
100
AcDbEntity
  8
Layer_1
 62
1
100
AcDbLine
 10
78.985674
 20
302.997092
 30
0.0
 11
79.012768
 21
302.997092
 31
0.0
  0
LINE
  5
148
100
AcDbEntity
  8
Layer_1
 62
1
100
AcDbLine
 10
78.666820
 20
304.000321
 30
0.0
 11
78.900443
 21
303.304644
 31
0.0
  0
LINE
  5
149
100
AcDbEntity
  8
Layer_1
 62
1
100
AcDbLine
 10
78.900443
 20
303.304644
 30
0.0
 11
78.985674
 21
302.997095
 31
0.0
  0
LINE
  5
14a
100
AcDbEntity
  8
Layer_1
 62
1
100
AcDbLine
 10
77.866409
 20
306.203066
 30
0.0
 11
78.666820
 21
304.000321
 31
0.0
  0
LINE
  5
14b
100
AcDbEntity
  8
Layer_1
 62
1
100
AcDbLine
 10
77.263385
 20
306.203066
 30
0.0
 11
77.866409
 21
306.203066
 31
0.0
  0
LINE
  5
14c
100
AcDbEntity
  8
Layer_1
 62
1
100
AcDbLine
 10
78.673311
 20
302.488457
 30
0.0
 11
77.263385
 21
306.203069
 31
0.0
  0
LINE
  5
14d
100
AcDbEntity
  8
Layer_1
 62
1
100
AcDbLine
 10
79.330578
 20
302.488457
 30
0.0
 11
78.673311
 21
302.488457
 31
0.0
  0
LINE
  5
14e
100
AcDbEntity
  8
Layer_1
 62
1
100
AcDbLine
 10
45.516885
 20
213.929460
 30
0.0
 11
45.516885
 21
253.910941
 31
0.0
  0
LINE
  5
14f
100
AcDbEntity
  8
Layer_1
 62
1
100
AcDbLine
 10
45.516885
 20
253.910941
 30
0.0
 11
46.724655
 21
253.910941
 31
0.0
  0
LINE
  5
150
100
AcDbEntity
  8
Layer_1
 62
1
100
AcDbLine
 10
44.550669
 20
263.906314
 30
0.0
 11
46.724655
 21
253.910941
 31
0.0
  0
LINE
  5
151
100
AcDbEntity
  8
Layer_1
 62
1
100
AcDbLine
 10
42.376683
 20
253.910941
 30
0.0
 11
44.550669
 21
263.906314
 31
0.0
  0
LINE
  5
152
100
AcDbEntity
  8
Layer_1
 62
1
100
AcDbLine
 10
43.584453
 20
253.910941
 30
0.0
 11
42.376683
 21
253.910941
 31
0.0
  0
LINE
  5
153
100
AcDbEntity
  8
Layer_1
 62
1
100
AcDbLine
 10
43.584453
 20
213.929460
 30
0.0
 11
43.584453
 21
253.910941
 31
0.0
  0
LINE
  5
154
100
AcDbEntity
  8
Layer_1
 62
1
100
AcDbLine
 10
43.584453
 20
213.929460
 30
0.0
 11
45.516885
 21
213.929460
 31
0.0
  0
LINE
  5
155
100
AcDbEntity
  8
Layer_1
 62
1
100
AcDbLine
 10
67.175832
 20
170.522091
 30
0.0
 11
66.851982
 21
170.401204
 31
0.0
  0
LINE
  5
156
100
AcDbEntity
  8
Layer_1
 62
1
100
AcDbLine
 10
66.851982
 20
170.401204
 30
0.0
 11
66.611867
 21
170.337715
 31
0.0
  0
LINE
  5
157
100
AcDbEntity
  8
Layer_1
 62
1
100
AcDbLine
 10
67.175832
 20
171.024246
 30
0.0
 11
67.175832
 21
170.522091
 31
0.0
  0
LINE
  5
158
100
AcDbEntity
  8
Layer_1
 62
1
100
AcDbLine
 10
65.990385
 20
170.773709
 30
0.0
 11
66.657700
 21
170.852280
 31
0.0
  0
LINE
  5
159
100
AcDbEntity
  8
Layer_1
 62
1
100
AcDbLine
 10
66.657700
 20
170.852280
 30
0.0
 11
67.175832
 21
171.024246
 31
0.0
  0
LINE
  5
15a
100
AcDbEntity
  8
Layer_1
 62
1
100
AcDbLine
 10
65.107566
 20
171.112638
 30
0.0
 11
65.538886
 21
170.839328
 31
0.0
  0
LINE
  5
15b
100
AcDbEntity
  8
Layer_1
 62
1
100
AcDbLine
 10
65.538886
 20
170.839328
 30
0.0
 11
65.990385
 21
170.773709
 31
0.0
  0
LINE
  5
15c
100
AcDbEntity
  8
Layer_1
 62
1
100
AcDbLine
 10
64.776773
 20
172.105558
 30
0.0
 11
64.889041
 21
171.471893
 31
0.0
  0
LINE
  5
15d
100
AcDbEntity
  8
Layer_1
 62
1
100
AcDbLine
 10
64.889041
 20
171.471893
 30
0.0
 11
65.107566
 21
171.112638
 31
0.0
  0
LINE
  5
15e
100
AcDbEntity
  8
Layer_1
 62
1
100
AcDbLine
 10
67.335259
 20
172.105558
 30
0.0
 11
64.776773
 21
172.105558
 31
0.0
  0
LINE
  5
15f
100
AcDbEntity
  8
Layer_1
 62
1
100
AcDbLine
 10
67.335259
 20
172.461296
 30
0.0
 11
67.335259
 21
172.105558
 31
0.0
  0
LINE
  5
160
100
AcDbEntity
  8
Layer_1
 62
1
100
AcDbLine
 10
66.928548
 20
173.673300
 30
0.0
 11
67.256519
 21
173.066869
 31
0.0
  0
LINE
  5
161
100
AcDbEntity
  8
Layer_1
 62
1
100
AcDbLine
 10
67.256519
 20
173.066869
 30
0.0
 11
67.335259
 21
172.461296
 31
0.0
  0
LINE
  5
162
100
AcDbEntity
  8
Layer_1
 62
1
100
AcDbLine
 10
65.824467
 20
174.132616
 30
0.0
 11
66.514359
 21
173.988573
 31
0.0
  0
LINE
  5
163
100
AcDbEntity
  8
Layer_1
 62
1
100
AcDbLine
 10
66.514359
 20
173.988573
 30
0.0
 11
66.928548
 21
173.673300
 31
0.0
  0
LINE
  5
164
100
AcDbEntity
  8
Layer_1
 62
1
100
AcDbLine
 10
64.635775
 20
173.603887
 30
0.0
 11
65.226607
 21
174.030254
 31
0.0
  0
LINE
  5
165
100
AcDbEntity
  8
Layer_1
 62
1
100
AcDbLine
 10
65.226607
 20
174.030254
 30
0.0
 11
65.824467
 21
174.132616
 31
0.0
  0
LINE
  5
166
100
AcDbEntity
  8
Layer_1
 62
1
100
AcDbLine
 10
64.193279
 20
172.176054
 30
0.0
 11
64.332048
 21
173.066903
 31
0.0
  0
LINE
  5
167
100
AcDbEntity
  8
Layer_1
 62
1
100
AcDbLine
 10
64.332048
 20
173.066903
 30
0.0
 11
64.635775
 21
173.603887
 31
0.0
  0
LINE
  5
168
100
AcDbEntity
  8
Layer_1
 62
1
100
AcDbLine
 10
64.669924
 20
170.783471
 30
0.0
 11
64.285537
 21
171.467648
 31
0.0
  0
LINE
  5
169
100
AcDbEntity
  8
Layer_1
 62
1
100
AcDbLine
 10
64.285537
 20
171.467648
 30
0.0
 11
64.193279
 21
172.176054
 31
0.0
  0
LINE
  5
16a
100
AcDbEntity
  8
Layer_1
 62
1
100
AcDbLine
 10
65.969783
 20
170.281316
 30
0.0
 11
65.156475
 21
170.438793
 31
0.0
  0
LINE
  5
16b
100
AcDbEntity
  8
Layer_1
 62
1
100
AcDbLine
 10
65.156475
 20
170.438793
 30
0.0
 11
64.669924
 21
170.783471
 31
0.0
  0
LINE
  5
16c
100
AcDbEntity
  8
Layer_1
 62
1
100
AcDbLine
 10
66.611867
 20
170.337715
 30
0.0
 11
66.279550
 21
170.292235
 31
0.0
  0
LINE
  5
16d
100
AcDbEntity
  8
Layer_1
 62
1
100
AcDbLine
 10
66.279550
 20
170.292235
 30
0.0
 11
65.969783
 21
170.281313
 31
0.0
  0
LINE
  5
16e
100
AcDbEntity
  8
Layer_1
 62
1
100
AcDbLine
 10
86.416049
 20
170.522091
 30
0.0
 11
86.092199
 21
170.401204
 31
0.0
  0
LINE
  5
16f
100
AcDbEntity
  8
Layer_1
 62
1
100
AcDbLine
 10
86.092199
 20
170.401204
 30
0.0
 11
85.852085
 21
170.337715
 31
0.0
  0
LINE
  5
170
100
AcDbEntity
  8
Layer_1
 62
1
100
AcDbLine
 10
86.416049
 20
171.024246
 30
0.0
 11
86.416049
 21
170.522091
 31
0.0
  0
LINE
  5
171
100
AcDbEntity
  8
Layer_1
 62
1
100
AcDbLine
 10
85.230603
 20
170.773709
 30
0.0
 11
85.897946
 21
170.852280
 31
0.0
  0
LINE
  5
172
100
AcDbEntity
  8
Layer_1
 62
1
100
AcDbLine
 10
85.897946
 20
170.852280
 30
0.0
 11
86.416049
 21
171.024246
 31
0.0
  0
LINE
  5
173
100
AcDbEntity
  8
Layer_1
 62
1
100
AcDbLine
 10
84.347784
 20
171.112638
 30
0.0
 11
84.779104
 21
170.839328
 31
0.0
  0
LINE
  5
174
100
AcDbEntity
  8
Layer_1
 62
1
100
AcDbLine
 10
84.779104
 20
170.839328
 30
0.0
 11
85.230603
 21
170.773709
 31
0.0
  0
LINE
  5
175
100
AcDbEntity
  8
Layer_1
 62
1
100
AcDbLine
 10
84.016991
 20
172.105558
 30
0.0
 11
84.129287
 21
171.471893
 31
0.0
  0
LINE
  5
176
100
AcDbEntity
  8
Layer_1
 62
1
100
AcDbLine
 10
84.129287
 20
171.471893
 30
0.0
 11
84.347784
 21
171.112638
 31
0.0
  0
LINE
  5
177
100
AcDbEntity
  8
Layer_1
 62
1
100
AcDbLine
 10
86.575477
 20
172.105558
 30
0.0
 11
84.016991
 21
172.105558
 31
0.0
  0
LINE
  5
178
100
AcDbEntity
  8
Layer_1
 62
1
100
AcDbLine
 10
86.575477
 20
172.461296
 30
0.0
 11
86.575477
 21
172.105558
 31
0.0
  0
LINE
  5
179
100
AcDbEntity
  8
Layer_1
 62
1
100
AcDbLine
 10
86.168766
 20
173.673300
 30
0.0
 11
86.496737
 21
173.066869
 31
0.0
  0
LINE
  5
17a
100
AcDbEntity
  8
Layer_1
 62
1
100
AcDbLine
 10
86.496737
 20
173.066869
 30
0.0
 11
86.575477
 21
172.461296
 31
0.0
  0
LINE
  5
17b
100
AcDbEntity
  8
Layer_1
 62
1
100
AcDbLine
 10
85.064685
 20
174.132616
 30
0.0
 11
85.754577
 21
173.988573
 31
0.0
  0
LINE
  5
17c
100
AcDbEntity
  8
Layer_1
 62
1
100
AcDbLine
 10
85.754577
 20
173.988573
 30
0.0
 11
86.168766
 21
173.673300
 31
0.0
  0
LINE
  5
17d
100
AcDbEntity
  8
Layer_1
 62
1
100
AcDbLine
 10
83.875993
 20
173.603887
 30
0.0
 11
84.466825
 21
174.030254
 31
0.0
  0
LINE
  5
17e
100
AcDbEntity
  8
Layer_1
 62
1
100
AcDbLine
 10
84.466825
 20
174.030254
 30
0.0
 11
85.064685
 21
174.132616
 31
0.0
  0
LINE
  5
17f
100
AcDbEntity
  8
Layer_1
 62
1
100
AcDbLine
 10
83.433497
 20
172.176054
 30
0.0
 11
83.572265
 21
173.066903
 31
0.0
  0
LINE
  5
180
100
AcDbEntity
  8
Layer_1
 62
1
100
AcDbLine
 10
83.572265
 20
173.066903
 30
0.0
 11
83.875993
 21
173.603887
 31
0.0
  0
LINE
  5
181
100
AcDbEntity
  8
Layer_1
 62
1
100
AcDbLine
 10
83.910142
 20
170.783471
 30
0.0
 11
83.525783
 21
171.467648
 31
0.0
  0
LINE
  5
182
100
AcDbEntity
  8
Layer_1
 62
1
100
AcDbLine
 10
83.525783
 20
171.467648
 30
0.0
 11
83.433497
 21
172.176054
 31
0.0
  0
LINE
  5
183
100
AcDbEntity
  8
Layer_1
 62
1
100
AcDbLine
 10
85.210001
 20
170.281316
 30
0.0
 11
84.396721
 21
170.438793
 31
0.0
  0
LINE
  5
184
100
AcDbEntity
  8
Layer_1
 62
1
100
AcDbLine
 10
84.396721
 20
170.438793
 30
0.0
 11
83.910142
 21
170.783471
 31
0.0
  0
LINE
  5
185
100
AcDbEntity
  8
Layer_1
 62
1
100
AcDbLine
 10
85.852085
 20
170.337715
 30
0.0
 11
85.519768
 21
170.292235
 31
0.0
  0
LINE
  5
186
100
AcDbEntity
  8
Layer_1
 62
1
100
AcDbLine
 10
85.519768
 20
170.292235
 30
0.0
 11
85.210001
 21
170.281313
 31
0.0
  0
LINE
  5
187
100
AcDbEntity
  8
Layer_1
 62
1
100
AcDbLine
 10
65.902558
 20
306.271400
 30
0.0
 11
66.674548
 21
306.108663
 31
0.0
  0
LINE
  5
188
100
AcDbEntity
  8
Layer_1
 62
1
100
AcDbLine
 10
66.674548
 20
306.108663
 30
0.0
 11
67.140582
 21
305.752464
 31
0.0
  0
LINE
  5
189
100
AcDbEntity
  8
Layer_1
 62
1
100
AcDbLine
 10
64.641194
 20
305.764388
 30
0.0
 11
65.260700
 21
306.173258
 31
0.0
  0
LINE
  5
18a
100
AcDbEntity
  8
Layer_1
 62
1
100
AcDbLine
 10
65.260700
 20
306.173258
 30
0.0
 11
65.902558
 21
306.271400
 31
0.0
  0
LINE
  5
18b
100
AcDbEntity
  8
Layer_1
 62
1
100
AcDbLine
 10
64.186760
 20
304.349574
 30
0.0
 11
64.329282
 21
305.240618
 31
0.0
  0
LINE
  5
18c
100
AcDbEntity
  8
Layer_1
 62
1
100
AcDbLine
 10
64.329282
 20
305.240618
 30
0.0
 11
64.641194
 21
305.764388
 31
0.0
  0
LINE
  5
18d
100
AcDbEntity
  8
Layer_1
 62
1
100
AcDbLine
 10
64.397156
 20
303.325740
 30
0.0
 11
64.227484
 21
303.862210
 31
0.0
  0
LINE
  5
18e
100
AcDbEntity
  8
Layer_1
 62
1
100
AcDbLine
 10
64.227484
 20
303.862210
 30
0.0
 11
64.186760
 21
304.349574
 31
0.0
  0
LINE
  5
18f
100
AcDbEntity
  8
Layer_1
 62
1
100
AcDbLine
 10
64.993689
 20
302.654370
 30
0.0
 11
64.616330
 21
302.980370
 31
0.0
  0
LINE
  5
190
100
AcDbEntity
  8
Layer_1
 62
1
100
AcDbLine
 10
64.616330
 20
302.980370
 30
0.0
 11
64.397156
 21
303.325740
 31
0.0
  0
LINE
  5
191
100
AcDbEntity
  8
Layer_1
 62
1
100
AcDbLine
 10
65.878682
 20
302.420125
 30
0.0
 11
65.355301
 21
302.493574
 31
0.0
  0
LINE
  5
192
100
AcDbEntity
  8
Layer_1
 62
1
100
AcDbLine
 10
65.355301
 20
302.493574
 30
0.0
 11
64.993689
 21
302.654370
 31
0.0
  0
LINE
  5
193
100
AcDbEntity
  8
Layer_1
 62
1
100
AcDbLine
 10
67.142755
 20
302.930417
 30
0.0
 11
66.521048
 21
302.518903
 31
0.0
  0
LINE
  5
194
100
AcDbEntity
  8
Layer_1
 62
1
100
AcDbLine
 10
66.521048
 20
302.518903
 30
0.0
 11
65.878682
 21
302.420125
 31
0.0
  0
LINE
  5
195
100
AcDbEntity
  8
Layer_1
 62
1
100
AcDbLine
 10
67.599899
 20
304.349574
 30
0.0
 11
67.456530
 21
303.456623
 31
0.0
  0
LINE
  5
196
100
AcDbEntity
  8
Layer_1
 62
1
100
AcDbLine
 10
67.456530
 20
303.456623
 30
0.0
 11
67.142755
 21
302.930417
 31
0.0
  0
LINE
  5
197
100
AcDbEntity
  8
Layer_1
 62
1
100
AcDbLine
 10
67.140582
 20
305.752464
 30
0.0
 11
67.510970
 21
305.056750
 31
0.0
  0
LINE
  5
198
100
AcDbEntity
  8
Layer_1
 62
1
100
AcDbLine
 10
67.510970
 20
305.056750
 30
0.0
 11
67.599899
 21
304.349574
 31
0.0
  0
LINE
  5
199
100
AcDbEntity
  8
Layer_1
 62
1
100
AcDbLine
 10
69.524993
 20
174.132616
 30
0.0
 11
69.833744
 21
174.111196
 31
0.0
  0
LINE
  5
19a
100
AcDbEntity
  8
Layer_1
 62
1
100
AcDbLine
 10
69.833744
 20
174.111196
 30
0.0
 11
70.051027
 21
174.064293
 31
0.0
  0
LINE
  5
19b
100
AcDbEntity
  8
Layer_1
 62
1
100
AcDbLine
 10
68.488701
 20
173.801824
 30
0.0
 11
68.994076
 21
174.068574
 31
0.0
  0
LINE
  5
19c
100
AcDbEntity
  8
Layer_1
 62
1
100
AcDbLine
 10
68.994076
 20
174.068574
 30
0.0
 11
69.524993
 21
174.132616
 31
0.0
  0
LINE
  5
19d
100
AcDbEntity
  8
Layer_1
 62
1
100
AcDbLine
 10
68.122659
 20
172.861502
 30
0.0
 11
68.237439
 21
173.456762
 31
0.0
  0
LINE
  5
19e
100
AcDbEntity
  8
Layer_1
 62
1
100
AcDbLine
 10
68.237439
 20
173.456762
 30
0.0
 11
68.488701
 21
173.801824
 31
0.0
  0
LINE
  5
19f
100
AcDbEntity
  8
Layer_1
 62
1
100
AcDbLine
 10
68.303789
 20
172.210220
 30
0.0
 11
68.157711
 21
172.554763
 31
0.0
  0
LINE
  5
1a0
100
AcDbEntity
  8
Layer_1
 62
1
100
AcDbLine
 10
68.157711
 20
172.554763
 30
0.0
 11
68.122659
 21
172.861502
 31
0.0
  0
LINE
  5
1a1
100
AcDbEntity
  8
Layer_1
 62
1
100
AcDbLine
 10
68.773407
 20
171.807303
 30
0.0
 11
68.483960
 21
171.991916
 31
0.0
  0
LINE
  5
1a2
100
AcDbEntity
  8
Layer_1
 62
1
100
AcDbLine
 10
68.483960
 20
171.991916
 30
0.0
 11
68.303789
 21
172.210220
 31
0.0
  0
LINE
  5
1a3
100
AcDbEntity
  8
Layer_1
 62
1
100
AcDbLine
 10
68.430676
 20
171.512299
 30
0.0
 11
68.591599
 21
171.680176
 31
0.0
  0
LINE
  5
1a4
100
AcDbEntity
  8
Layer_1
 62
1
100
AcDbLine
 10
68.591599
 20
171.680176
 30
0.0
 11
68.773407
 21
171.807303
 31
0.0
  0
LINE
  5
1a5
100
AcDbEntity
  8
Layer_1
 62
1
100
AcDbLine
 10
68.322218
 20
171.156563
 30
0.0
 11
68.356226
 21
171.368069
 31
0.0
  0
LINE
  5
1a6
100
AcDbEntity
  8
Layer_1
 62
1
100
AcDbLine
 10
68.356226
 20
171.368069
 30
0.0
 11
68.430676
 21
171.512299
 31
0.0
  0
LINE
  5
1a7
100
AcDbEntity
  8
Layer_1
 62
1
100
AcDbLine
 10
68.418738
 20
170.840954
 30
0.0
 11
68.340901
 21
171.006737
 31
0.0
  0
LINE
  5
1a8
100
AcDbEntity
  8
Layer_1
 62
1
100
AcDbLine
 10
68.340901
 20
171.006737
 30
0.0
 11
68.322275
 21
171.156563
 31
0.0
  0
LINE
  5
1a9
100
AcDbEntity
  8
Layer_1
 62
1
100
AcDbLine
 10
68.657357
 20
170.641395
 30
0.0
 11
68.512492
 21
170.735510
 31
0.0
  0
LINE
  5
1aa
100
AcDbEntity
  8
Layer_1
 62
1
100
AcDbLine
 10
68.512492
 20
170.735510
 30
0.0
 11
68.418738
 21
170.840954
 31
0.0
  0
LINE
  5
1ab
100
AcDbEntity
  8
Layer_1
 62
1
100
AcDbLine
 10
68.047814
 20
170.305722
 30
0.0
 11
68.345868
 21
170.533115
 31
0.0
  0
LINE
  5
1ac
100
AcDbEntity
  8
Layer_1
 62
1
100
AcDbLine
 10
68.345868
 20
170.533115
 30
0.0
 11
68.657357
 21
170.641395
 31
0.0
  0
LINE
  5
1ad
100
AcDbEntity
  8
Layer_1
 62
1
100
AcDbLine
 10
67.830898
 20
169.719513
 30
0.0
 11
67.898941
 21
170.070101
 31
0.0
  0
LINE
  5
1ae
100
AcDbEntity
  8
Layer_1
 62
1
100
AcDbLine
 10
67.898941
 20
170.070101
 30
0.0
 11
68.047814
 21
170.305722
 31
0.0
  0
LINE
  5
1af
100
AcDbEntity
  8
Layer_1
 62
1
100
AcDbLine
 10
68.225698
 20
168.952724
 30
0.0
 11
67.907323
 21
169.326806
 31
0.0
  0
LINE
  5
1b0
100
AcDbEntity
  8
Layer_1
 62
1
100
AcDbLine
 10
67.907323
 20
169.326806
 30
0.0
 11
67.830898
 21
169.719513
 31
0.0
  0
LINE
  5
1b1
100
AcDbEntity
  8
Layer_1
 62
1
100
AcDbLine
 10
69.349310
 20
168.681582
 30
0.0
 11
68.637771
 21
168.766612
 31
0.0
  0
LINE
  5
1b2
100
AcDbEntity
  8
Layer_1
 62
1
100
AcDbLine
 10
68.637771
 20
168.766612
 30
0.0
 11
68.225698
 21
168.952724
 31
0.0
  0
LINE
  5
1b3
100
AcDbEntity
  8
Layer_1
 62
1
100
AcDbLine
 10
70.792848
 20
169.005324
 30
0.0
 11
70.096436
 21
168.744257
 31
0.0
  0
LINE
  5
1b4
100
AcDbEntity
  8
Layer_1
 62
1
100
AcDbLine
 10
70.096436
 20
168.744257
 30
0.0
 11
69.349310
 21
168.681582
 31
0.0
  0
LINE
  5
1b5
100
AcDbEntity
  8
Layer_1
 62
1
100
AcDbLine
 10
71.287414
 20
169.946185
 30
0.0
 11
71.132333
 21
169.347016
 31
0.0
  0
LINE
  5
1b6
100
AcDbEntity
  8
Layer_1
 62
1
100
AcDbLine
 10
71.132333
 20
169.347016
 30
0.0
 11
70.792848
 21
169.005324
 31
0.0
  0
LINE
  5
1b7
100
AcDbEntity
  8
Layer_1
 62
1
100
AcDbLine
 10
70.964213
 20
170.685317
 30
0.0
 11
71.224846
 21
170.328193
 31
0.0
  0
LINE
  5
1b8
100
AcDbEntity
  8
Layer_1
 62
1
100
AcDbLine
 10
71.224846
 20
170.328193
 30
0.0
 11
71.287414
 21
169.946185
 31
0.0
  0
LINE
  5
1b9
100
AcDbEntity
  8
Layer_1
 62
1
100
AcDbLine
 10
70.036916
 20
170.939650
 30
0.0
 11
70.625434
 21
170.859894
 31
0.0
  0
LINE
  5
1ba
100
AcDbEntity
  8
Layer_1
 62
1
100
AcDbLine
 10
70.625434
 20
170.859894
 30
0.0
 11
70.964213
 21
170.685317
 31
0.0
  0
LINE
  5
1bb
100
AcDbEntity
  8
Layer_1
 62
1
100
AcDbLine
 10
69.379677
 20
170.939650
 30
0.0
 11
70.036916
 21
170.939650
 31
0.0
  0
LINE
  5
1bc
100
AcDbEntity
  8
Layer_1
 62
1
100
AcDbLine
 10
68.949626
 20
171.012314
 30
0.0
 11
69.146222
 21
170.953719
 31
0.0
  0
LINE
  5
1bd
100
AcDbEntity
  8
Layer_1
 62
1
100
AcDbLine
 10
69.146222
 20
170.953719
 30
0.0
 11
69.379677
 21
170.939636
 31
0.0
  0
LINE
  5
1be
100
AcDbEntity
  8
Layer_1
 62
1
100
AcDbLine
 10
68.824376
 20
171.237905
 30
0.0
 11
68.863662
 21
171.091799
 31
0.0
  0
LINE
  5
1bf
100
AcDbEntity
  8
Layer_1
 62
1
100
AcDbLine
 10
68.863662
 20
171.091799
 30
0.0
 11
68.949626
 21
171.012314
 31
0.0
  0
LINE
  5
1c0
100
AcDbEntity
  8
Layer_1
 62
1
100
AcDbLine
 10
69.183363
 20
171.715115
 30
0.0
 11
68.893859
 21
171.471927
 31
0.0
  0
LINE
  5
1c1
100
AcDbEntity
  8
Layer_1
 62
1
100
AcDbLine
 10
68.893859
 20
171.471927
 30
0.0
 11
68.824376
 21
171.237905
 31
0.0
  0
LINE
  5
1c2
100
AcDbEntity
  8
Layer_1
 62
1
100
AcDbLine
 10
69.494626
 20
171.688002
 30
0.0
 11
69.315245
 21
171.696497
 31
0.0
  0
LINE
  5
1c3
100
AcDbEntity
  8
Layer_1
 62
1
100
AcDbLine
 10
69.315245
 20
171.696497
 30
0.0
 11
69.183363
 21
171.715123
 31
0.0
  0
LINE
  5
1c4
100
AcDbEntity
  8
Layer_1
 62
1
100
AcDbLine
 10
70.518472
 20
172.013370
 30
0.0
 11
70.013520
 21
171.750994
 31
0.0
  0
LINE
  5
1c5
100
AcDbEntity
  8
Layer_1
 62
1
100
AcDbLine
 10
70.013520
 20
171.750994
 30
0.0
 11
69.494626
 21
171.688002
 31
0.0
  0
LINE
  5
1c6
100
AcDbEntity
  8
Layer_1
 62
1
100
AcDbLine
 10
70.891541
 20
172.885363
 30
0.0
 11
70.774560
 21
172.342532
 31
0.0
  0
LINE
  5
1c7
100
AcDbEntity
  8
Layer_1
 62
1
100
AcDbLine
 10
70.774560
 20
172.342532
 30
0.0
 11
70.518472
 21
172.013370
 31
0.0
  0
LINE
  5
1c8
100
AcDbEntity
  8
Layer_1
 62
1
100
AcDbLine
 10
70.816724
 20
173.317022
 30
0.0
 11
70.877063
 21
173.087051
 31
0.0
  0
LINE
  5
1c9
100
AcDbEntity
  8
Layer_1
 62
1
100
AcDbLine
 10
70.877063
 20
173.087051
 30
0.0
 11
70.891456
 21
172.885363
 31
0.0
  0
LINE
  5
1ca
100
AcDbEntity
  8
Layer_1
 62
1
100
AcDbLine
 10
70.647532
 20
173.627207
 30
0.0
 11
70.747072
 21
173.471674
 31
0.0
  0
LINE
  5
1cb
100
AcDbEntity
  8
Layer_1
 62
1
100
AcDbLine
 10
70.747072
 20
173.471674
 30
0.0
 11
70.816724
 21
173.317022
 31
0.0
  0
LINE
  5
1cc
100
AcDbEntity
  8
Layer_1
 62
1
100
AcDbLine
 10
71.335138
 20
173.708549
 30
0.0
 11
70.647532
 21
173.627207
 31
0.0
  0
LINE
  5
1cd
100
AcDbEntity
  8
Layer_1
 62
1
100
AcDbLine
 10
71.335138
 20
174.064287
 30
0.0
 11
71.335138
 21
173.708549
 31
0.0
  0
LINE
  5
1ce
100
AcDbEntity
  8
Layer_1
 62
1
100
AcDbLine
 10
70.051027
 20
174.064287
 30
0.0
 11
71.335138
 21
174.064287
 31
0.0
  0
LINE
  5
1cf
100
AcDbEntity
  8
Layer_1
 62
1
100
AcDbLine
 10
76.560595
 20
171.440721
 30
0.0
 11
76.610577
 21
171.114179
 31
0.0
  0
LINE
  5
1d0
100
AcDbEntity
  8
Layer_1
 62
1
100
AcDbLine
 10
76.610577
 20
171.114179
 30
0.0
 11
76.720023
 21
170.926092
 31
0.0
  0
LINE
  5
1d1
100
AcDbEntity
  8
Layer_1
 62
1
100
AcDbLine
 10
76.560595
 20
173.627207
 30
0.0
 11
76.560595
 21
171.440721
 31
0.0
  0
LINE
  5
1d2
100
AcDbEntity
  8
Layer_1
 62
1
100
AcDbLine
 10
77.638656
 20
173.627207
 30
0.0
 11
76.560595
 21
173.627207
 31
0.0
  0
LINE
  5
1d3
100
AcDbEntity
  8
Layer_1
 62
1
100
AcDbLine
 10
77.638656
 20
174.064287
 30
0.0
 11
77.638656
 21
173.627207
 31
0.0
  0
LINE
  5
1d4
100
AcDbEntity
  8
Layer_1
 62
1
100
AcDbLine
 10
76.560595
 20
174.064287
 30
0.0
 11
77.638656
 21
174.064287
 31
0.0
  0
LINE
  5
1d5
100
AcDbEntity
  8
Layer_1
 62
1
100
AcDbLine
 10
76.560595
 20
174.925435
 30
0.0
 11
76.560595
 21
174.064287
 31
0.0
  0
LINE
  5
1d6
100
AcDbEntity
  8
Layer_1
 62
1
100
AcDbLine
 10
76.235221
 20
174.925435
 30
0.0
 11
76.560595
 21
174.925435
 31
0.0
  0
LINE
  5
1d7
100
AcDbEntity
  8
Layer_1
 62
1
100
AcDbLine
 10
75.998776
 20
174.132616
 30
0.0
 11
76.235221
 21
174.925435
 31
0.0
  0
LINE
  5
1d8
100
AcDbEntity
  8
Layer_1
 62
1
100
AcDbLine
 10
75.466250
 20
173.898346
 30
0.0
 11
75.998776
 21
174.132616
 31
0.0
  0
LINE
  5
1d9
100
AcDbEntity
  8
Layer_1
 62
1
100
AcDbLine
 10
75.466250
 20
173.627207
 30
0.0
 11
75.466250
 21
173.898346
 31
0.0
  0
LINE
  5
1da
100
AcDbEntity
  8
Layer_1
 62
1
100
AcDbLine
 10
75.998776
 20
173.627207
 30
0.0
 11
75.466250
 21
173.627207
 31
0.0
  0
LINE
  5
1db
100
AcDbEntity
  8
Layer_1
 62
1
100
AcDbLine
 10
75.998776
 20
171.416860
 30
0.0
 11
75.998776
 21
173.627207
 31
0.0
  0
LINE
  5
1dc
100
AcDbEntity
  8
Layer_1
 62
1
100
AcDbLine
 10
77.075764
 20
170.281316
 30
0.0
 11
76.557096
 21
170.370343
 31
0.0
  0
LINE
  5
1dd
100
AcDbEntity
  8
Layer_1
 62
1
100
AcDbLine
 10
76.557096
 20
170.370343
 30
0.0
 11
76.207281
 21
170.637424
 31
0.0
  0
LINE
  5
1de
100
AcDbEntity
  8
Layer_1
 62
1
100
AcDbLine
 10
76.207281
 20
170.637424
 30
0.0
 11
76.050902
 21
170.972182
 31
0.0
  0
LINE
  5
1df
100
AcDbEntity
  8
Layer_1
 62
1
100
AcDbLine
 10
76.050902
 20
170.972182
 30
0.0
 11
75.998776
 21
171.416860
 31
0.0
  0
LINE
  5
1e0
100
AcDbEntity
  8
Layer_1
 62
1
100
AcDbLine
 10
77.396792
 20
170.310602
 30
0.0
 11
77.208465
 21
170.287008
 31
0.0
  0
LINE
  5
1e1
100
AcDbEntity
  8
Layer_1
 62
1
100
AcDbLine
 10
77.208465
 20
170.287008
 30
0.0
 11
77.075764
 21
170.281336
 31
0.0
  0
LINE
  5
1e2
100
AcDbEntity
  8
Layer_1
 62
1
100
AcDbLine
 10
77.665749
 20
170.383266
 30
0.0
 11
77.536520
 21
170.339098
 31
0.0
  0
LINE
  5
1e3
100
AcDbEntity
  8
Layer_1
 62
1
100
AcDbLine
 10
77.536520
 20
170.339098
 30
0.0
 11
77.396792
 21
170.310594
 31
0.0
  0
LINE
  5
1e4
100
AcDbEntity
  8
Layer_1
 62
1
100
AcDbLine
 10
77.665749
 20
170.813838
 30
0.0
 11
77.665749
 21
170.383266
 31
0.0
  0
LINE
  5
1e5
100
AcDbEntity
  8
Layer_1
 62
1
100
AcDbLine
 10
77.445588
 20
170.768288
 30
0.0
 11
77.583058
 21
170.793264
 31
0.0
  0
LINE
  5
1e6
100
AcDbEntity
  8
Layer_1
 62
1
100
AcDbLine
 10
77.583058
 20
170.793264
 30
0.0
 11
77.665749
 21
170.813838
 31
0.0
  0
LINE
  5
1e7
100
AcDbEntity
  8
Layer_1
 62
1
100
AcDbLine
 10
77.157100
 20
170.746596
 30
0.0
 11
77.321325
 21
170.753397
 31
0.0
  0
LINE
  5
1e8
100
AcDbEntity
  8
Layer_1
 62
1
100
AcDbLine
 10
77.321325
 20
170.753397
 30
0.0
 11
77.445588
 21
170.768271
 31
0.0
  0
LINE
  5
1e9
100
AcDbEntity
  8
Layer_1
 62
1
100
AcDbLine
 10
76.720023
 20
170.926092
 30
0.0
 11
76.935640
 21
170.781349
 31
0.0
  0
LINE
  5
1ea
100
AcDbEntity
  8
Layer_1
 62
1
100
AcDbLine
 10
76.935640
 20
170.781349
 30
0.0
 11
77.157100
 21
170.746599
 31
0.0
  0
LINE
  5
1eb
100
AcDbEntity
  8
Layer_1
 62
1
100
AcDbLine
 10
63.245351
 20
172.772568
 30
0.0
 11
63.245351
 21
170.349648
 31
0.0
  0
LINE
  5
1ec
100
AcDbEntity
  8
Layer_1
 62
1
100
AcDbLine
 10
62.906430
 20
173.808874
 30
0.0
 11
63.179734
 21
173.324346
 31
0.0
  0
LINE
  5
1ed
100
AcDbEntity
  8
Layer_1
 62
1
100
AcDbLine
 10
63.179734
 20
173.324346
 30
0.0
 11
63.245351
 21
172.772568
 31
0.0
  0
LINE
  5
1ee
100
AcDbEntity
  8
Layer_1
 62
1
100
AcDbLine
 10
61.896159
 20
174.132616
 30
0.0
 11
62.543803
 21
174.031090
 31
0.0
  0
LINE
  5
1ef
100
AcDbEntity
  8
Layer_1
 62
1
100
AcDbLine
 10
62.543803
 20
174.031090
 30
0.0
 11
62.906430
 21
173.808874
 31
0.0
  0
LINE
  5
1f0
100
AcDbEntity
  8
Layer_1
 62
1
100
AcDbLine
 10
61.201498
 20
173.981317
 30
0.0
 11
61.572987
 21
174.103324
 31
0.0
  0
LINE
  5
1f1
100
AcDbEntity
  8
Layer_1
 62
1
100
AcDbLine
 10
61.572987
 20
174.103324
 30
0.0
 11
61.896159
 21
174.132605
 31
0.0
  0
LINE
  5
1f2
100
AcDbEntity
  8
Layer_1
 62
1
100
AcDbLine
 10
60.716160
 20
173.555627
 30
0.0
 11
60.953876
 21
173.824345
 31
0.0
  0
LINE
  5
1f3
100
AcDbEntity
  8
Layer_1
 62
1
100
AcDbLine
 10
60.953876
 20
173.824345
 30
0.0
 11
61.201498
 21
173.981317
 31
0.0
  0
LINE
  5
1f4
100
AcDbEntity
  8
Layer_1
 62
1
100
AcDbLine
 10
60.689038
 20
173.555627
 30
0.0
 11
60.716132
 21
173.555627
 31
0.0
  0
LINE
  5
1f5
100
AcDbEntity
  8
Layer_1
 62
1
100
AcDbLine
 10
60.597937
 20
174.064287
 30
0.0
 11
60.689038
 21
173.555627
 31
0.0
  0
LINE
  5
1f6
100
AcDbEntity
  8
Layer_1
 62
1
100
AcDbLine
 10
60.140229
 20
174.064287
 30
0.0
 11
60.597937
 21
174.064287
 31
0.0
  0
LINE
  5
1f7
100
AcDbEntity
  8
Layer_1
 62
1
100
AcDbLine
 10
60.140229
 20
170.349648
 30
0.0
 11
60.140229
 21
174.064287
 31
0.0
  0
LINE
  5
1f8
100
AcDbEntity
  8
Layer_1
 62
1
100
AcDbLine
 10
60.703121
 20
170.349648
 30
0.0
 11
60.140229
 21
170.349648
 31
0.0
  0
LINE
  5
1f9
100
AcDbEntity
  8
Layer_1
 62
1
100
AcDbLine
 10
60.703121
 20
172.298612
 30
0.0
 11
60.703121
 21
170.349648
 31
0.0
  0
LINE
  5
1fa
100
AcDbEntity
  8
Layer_1
 62
1
100
AcDbLine
 10
60.974280
 20
173.339256
 30
0.0
 11
60.755615
 21
172.857646
 31
0.0
  0
LINE
  5
1fb
100
AcDbEntity
  8
Layer_1
 62
1
100
AcDbLine
 10
60.755615
 20
172.857646
 30
0.0
 11
60.703121
 21
172.298612
 31
0.0
  0
LINE
  5
1fc
100
AcDbEntity
  8
Layer_1
 62
1
100
AcDbLine
 10
61.827833
 20
173.654320
 30
0.0
 11
61.273126
 21
173.555517
 31
0.0
  0
LINE
  5
1fd
100
AcDbEntity
  8
Layer_1
 62
1
100
AcDbLine
 10
61.273126
 20
173.555517
 30
0.0
 11
60.974280
 21
173.339256
 31
0.0
  0
LINE
  5
1fe
100
AcDbEntity
  8
Layer_1
 62
1
100
AcDbLine
 10
62.475844
 20
173.430360
 30
0.0
 11
62.170818
 21
173.610960
 31
0.0
  0
LINE
  5
1ff
100
AcDbEntity
  8
Layer_1
 62
1
100
AcDbLine
 10
62.170818
 20
173.610960
 30
0.0
 11
61.827833
 21
173.654320
 31
0.0
  0
LINE
  5
200
100
AcDbEntity
  8
Layer_1
 62
1
100
AcDbLine
 10
62.682459
 20
172.753046
 30
0.0
 11
62.617660
 21
173.188862
 31
0.0
  0
LINE
  5
201
100
AcDbEntity
  8
Layer_1
 62
1
100
AcDbLine
 10
62.617660
 20
173.188862
 30
0.0
 11
62.475844
 21
173.430360
 31
0.0
  0
LINE
  5
202
100
AcDbEntity
  8
Layer_1
 62
1
100
AcDbLine
 10
62.682459
 20
170.349648
 30
0.0
 11
62.682459
 21
172.753046
 31
0.0
  0
LINE
  5
203
100
AcDbEntity
  8
Layer_1
 62
1
100
AcDbLine
 10
63.245351
 20
170.349648
 30
0.0
 11
62.682459
 21
170.349648
 31
0.0
  0
LINE
  5
204
100
AcDbEntity
  8
Layer_1
 62
1
100
AcDbLine
 10
84.112439
 20
302.660895
 30
0.0
 11
83.788589
 21
302.539999
 31
0.0
  0
LINE
  5
205
100
AcDbEntity
  8
Layer_1
 62
1
100
AcDbLine
 10
83.788589
 20
302.539999
 30
0.0
 11
83.548446
 21
302.476499
 31
0.0
  0
LINE
  5
206
100
AcDbEntity
  8
Layer_1
 62
1
100
AcDbLine
 10
84.112439
 20
303.163041
 30
0.0
 11
84.112439
 21
302.660898
 31
0.0
  0
LINE
  5
207
100
AcDbEntity
  8
Layer_1
 62
1
100
AcDbLine
 10
82.926992
 20
302.912496
 30
0.0
 11
83.594307
 21
302.991061
 31
0.0
  0
LINE
  5
208
100
AcDbEntity
  8
Layer_1
 62
1
100
AcDbLine
 10
83.594307
 20
302.991061
 30
0.0
 11
84.112439
 21
303.163041
 31
0.0
  0
LINE
  5
209
100
AcDbEntity
  8
Layer_1
 62
1
100
AcDbLine
 10
82.044145
 20
303.251445
 30
0.0
 11
82.475465
 21
302.978113
 31
0.0
  0
LINE
  5
20a
100
AcDbEntity
  8
Layer_1
 62
1
100
AcDbLine
 10
82.475465
 20
302.978113
 30
0.0
 11
82.926992
 21
302.912496
 31
0.0
  0
LINE
  5
20b
100
AcDbEntity
  8
Layer_1
 62
1
100
AcDbLine
 10
81.713352
 20
304.244339
 30
0.0
 11
81.825648
 21
303.610680
 31
0.0
  0
LINE
  5
20c
100
AcDbEntity
  8
Layer_1
 62
1
100
AcDbLine
 10
81.825648
 20
303.610680
 30
0.0
 11
82.044145
 21
303.251445
 31
0.0
  0
LINE
  5
20d
100
AcDbEntity
  8
Layer_1
 62
1
100
AcDbLine
 10
84.271866
 20
304.244339
 30
0.0
 11
81.713352
 21
304.244339
 31
0.0
  0
LINE
  5
20e
100
AcDbEntity
  8
Layer_1
 62
1
100
AcDbLine
 10
84.271866
 20
304.600080
 30
0.0
 11
84.271866
 21
304.244339
 31
0.0
  0
LINE
  5
20f
100
AcDbEntity
  8
Layer_1
 62
1
100
AcDbLine
 10
83.865156
 20
305.812084
 30
0.0
 11
84.193126
 21
305.205659
 31
0.0
  0
LINE
  5
210
100
AcDbEntity
  8
Layer_1
 62
1
100
AcDbLine
 10
84.193126
 20
305.205659
 30
0.0
 11
84.271866
 21
304.600080
 31
0.0
  0
LINE
  5
211
100
AcDbEntity
  8
Layer_1
 62
1
100
AcDbLine
 10
82.761046
 20
306.271400
 30
0.0
 11
83.450966
 21
306.127360
 31
0.0
  0
LINE
  5
212
100
AcDbEntity
  8
Layer_1
 62
1
100
AcDbLine
 10
83.450966
 20
306.127360
 30
0.0
 11
83.865156
 21
305.812084
 31
0.0
  0
LINE
  5
213
100
AcDbEntity
  8
Layer_1
 62
1
100
AcDbLine
 10
81.572382
 20
305.742691
 30
0.0
 11
82.163214
 21
306.169058
 31
0.0
  0
LINE
  5
214
100
AcDbEntity
  8
Layer_1
 62
1
100
AcDbLine
 10
82.163214
 20
306.169058
 30
0.0
 11
82.761046
 21
306.271400
 31
0.0
  0
LINE
  5
215
100
AcDbEntity
  8
Layer_1
 62
1
100
AcDbLine
 10
81.129858
 20
304.314858
 30
0.0
 11
81.268626
 21
305.205693
 31
0.0
  0
LINE
  5
216
100
AcDbEntity
  8
Layer_1
 62
1
100
AcDbLine
 10
81.268626
 20
305.205693
 30
0.0
 11
81.572382
 21
305.742691
 31
0.0
  0
LINE
  5
217
100
AcDbEntity
  8
Layer_1
 62
1
100
AcDbLine
 10
81.606531
 20
302.922269
 30
0.0
 11
81.222144
 21
303.606446
 31
0.0
  0
LINE
  5
218
100
AcDbEntity
  8
Layer_1
 62
1
100
AcDbLine
 10
81.222144
 20
303.606446
 30
0.0
 11
81.129858
 21
304.314858
 31
0.0
  0
LINE
  5
219
100
AcDbEntity
  8
Layer_1
 62
1
100
AcDbLine
 10
82.906390
 20
302.420125
 30
0.0
 11
82.093082
 21
302.577605
 31
0.0
  0
LINE
  5
21a
100
AcDbEntity
  8
Layer_1
 62
1
100
AcDbLine
 10
82.093082
 20
302.577605
 30
0.0
 11
81.606531
 21
302.922269
 31
0.0
  0
LINE
  5
21b
100
AcDbEntity
  8
Layer_1
 62
1
100
AcDbLine
 10
83.548446
 20
302.476499
 30
0.0
 11
83.216157
 21
302.431025
 31
0.0
  0
LINE
  5
21c
100
AcDbEntity
  8
Layer_1
 62
1
100
AcDbLine
 10
83.216157
 20
302.431025
 30
0.0
 11
82.906390
 21
302.420103
 31
0.0
  0
LINE
  5
21d
100
AcDbEntity
  8
Layer_1
 62
1
100
AcDbLine
 10
76.103988
 20
306.203066
 30
0.0
 11
76.666880
 21
306.203066
 31
0.0
  0
LINE
  5
21e
100
AcDbEntity
  8
Layer_1
 62
1
100
AcDbLine
 10
76.103988
 20
302.488457
 30
0.0
 11
76.103988
 21
306.203069
 31
0.0
  0
LINE
  5
21f
100
AcDbEntity
  8
Layer_1
 62
1
100
AcDbLine
 10
76.666880
 20
302.488457
 30
0.0
 11
76.103988
 21
302.488457
 31
0.0
  0
LINE
  5
220
100
AcDbEntity
  8
Layer_1
 62
1
100
AcDbLine
 10
76.666880
 20
306.203066
 30
0.0
 11
76.666880
 21
302.488457
 31
0.0
  0
LINE
  5
221
100
AcDbEntity
  8
Layer_1
 62
1
100
AcDbLine
 10
74.256956
 20
303.579528
 30
0.0
 11
74.306966
 21
303.252963
 31
0.0
  0
LINE
  5
222
100
AcDbEntity
  8
Layer_1
 62
1
100
AcDbLine
 10
74.306966
 20
303.252963
 30
0.0
 11
74.416384
 21
303.064896
 31
0.0
  0
LINE
  5
223
100
AcDbEntity
  8
Layer_1
 62
1
100
AcDbLine
 10
74.256956
 20
305.766011
 30
0.0
 11
74.256956
 21
303.579531
 31
0.0
  0
LINE
  5
224
100
AcDbEntity
  8
Layer_1
 62
1
100
AcDbLine
 10
75.335017
 20
305.766011
 30
0.0
 11
74.256956
 21
305.766011
 31
0.0
  0
LINE
  5
225
100
AcDbEntity
  8
Layer_1
 62
1
100
AcDbLine
 10
75.335017
 20
306.203066
 30
0.0
 11
75.335017
 21
305.766011
 31
0.0
  0
LINE
  5
226
100
AcDbEntity
  8
Layer_1
 62
1
100
AcDbLine
 10
74.256956
 20
306.203066
 30
0.0
 11
75.335017
 21
306.203066
 31
0.0
  0
LINE
  5
227
100
AcDbEntity
  8
Layer_1
 62
1
100
AcDbLine
 10
74.256956
 20
307.064233
 30
0.0
 11
74.256956
 21
306.203066
 31
0.0
  0
LINE
  5
228
100
AcDbEntity
  8
Layer_1
 62
1
100
AcDbLine
 10
73.931582
 20
307.064233
 30
0.0
 11
74.256956
 21
307.064233
 31
0.0
  0
LINE
  5
229
100
AcDbEntity
  8
Layer_1
 62
1
100
AcDbLine
 10
73.695165
 20
306.271400
 30
0.0
 11
73.931582
 21
307.064233
 31
0.0
  0
LINE
  5
22a
100
AcDbEntity
  8
Layer_1
 62
1
100
AcDbLine
 10
73.162640
 20
306.037156
 30
0.0
 11
73.695165
 21
306.271400
 31
0.0
  0
LINE
  5
22b
100
AcDbEntity
  8
Layer_1
 62
1
100
AcDbLine
 10
73.162640
 20
305.766011
 30
0.0
 11
73.162640
 21
306.037156
 31
0.0
  0
LINE
  5
22c
100
AcDbEntity
  8
Layer_1
 62
1
100
AcDbLine
 10
73.695165
 20
305.766011
 30
0.0
 11
73.162640
 21
305.766011
 31
0.0
  0
LINE
  5
22d
100
AcDbEntity
  8
Layer_1
 62
1
100
AcDbLine
 10
73.695165
 20
303.555646
 30
0.0
 11
73.695165
 21
305.766011
 31
0.0
  0
LINE
  5
22e
100
AcDbEntity
  8
Layer_1
 62
1
100
AcDbLine
 10
74.772125
 20
302.420125
 30
0.0
 11
74.253457
 21
302.509133
 31
0.0
  0
LINE
  5
22f
100
AcDbEntity
  8
Layer_1
 62
1
100
AcDbLine
 10
74.253457
 20
302.509133
 30
0.0
 11
73.903671
 21
302.776219
 31
0.0
  0
LINE
  5
230
100
AcDbEntity
  8
Layer_1
 62
1
100
AcDbLine
 10
73.903671
 20
302.776219
 30
0.0
 11
73.747291
 21
303.110971
 31
0.0
  0
LINE
  5
231
100
AcDbEntity
  8
Layer_1
 62
1
100
AcDbLine
 10
73.747291
 20
303.110971
 30
0.0
 11
73.695165
 21
303.555646
 31
0.0
  0
LINE
  5
232
100
AcDbEntity
  8
Layer_1
 62
1
100
AcDbLine
 10
75.093181
 20
302.449406
 30
0.0
 11
74.904826
 21
302.425784
 31
0.0
  0
LINE
  5
233
100
AcDbEntity
  8
Layer_1
 62
1
100
AcDbLine
 10
74.904826
 20
302.425784
 30
0.0
 11
74.772125
 21
302.420139
 31
0.0
  0
LINE
  5
234
100
AcDbEntity
  8
Layer_1
 62
1
100
AcDbLine
 10
75.362139
 20
302.522078
 30
0.0
 11
75.232881
 21
302.477910
 31
0.0
  0
LINE
  5
235
100
AcDbEntity
  8
Layer_1
 62
1
100
AcDbLine
 10
75.232881
 20
302.477910
 30
0.0
 11
75.093181
 21
302.449335
 31
0.0
  0
LINE
  5
236
100
AcDbEntity
  8
Layer_1
 62
1
100
AcDbLine
 10
75.362139
 20
302.952642
 30
0.0
 11
75.362139
 21
302.522078
 31
0.0
  0
LINE
  5
237
100
AcDbEntity
  8
Layer_1
 62
1
100
AcDbLine
 10
75.141977
 20
302.907100
 30
0.0
 11
75.279419
 21
302.932133
 31
0.0
  0
LINE
  5
238
100
AcDbEntity
  8
Layer_1
 62
1
100
AcDbLine
 10
75.279419
 20
302.932133
 30
0.0
 11
75.362139
 21
302.952594
 31
0.0
  0
LINE
  5
239
100
AcDbEntity
  8
Layer_1
 62
1
100
AcDbLine
 10
74.853490
 20
302.885403
 30
0.0
 11
75.017715
 21
302.892091
 31
0.0
  0
LINE
  5
23a
100
AcDbEntity
  8
Layer_1
 62
1
100
AcDbLine
 10
75.017715
 20
302.892091
 30
0.0
 11
75.141977
 21
302.906908
 31
0.0
  0
LINE
  5
23b
100
AcDbEntity
  8
Layer_1
 62
1
100
AcDbLine
 10
74.416384
 20
303.064896
 30
0.0
 11
74.632030
 21
302.920153
 31
0.0
  0
LINE
  5
23c
100
AcDbEntity
  8
Layer_1
 62
1
100
AcDbLine
 10
74.632030
 20
302.920153
 30
0.0
 11
74.853490
 21
302.885228
 31
0.0
  0
LINE
  5
23d
100
AcDbEntity
  8
Layer_1
 62
1
100
AcDbLine
 10
72.183272
 20
306.833234
 30
0.0
 11
72.038069
 21
306.862515
 31
0.0
  0
LINE
  5
23e
100
AcDbEntity
  8
Layer_1
 62
1
100
AcDbLine
 10
72.038069
 20
306.862515
 30
0.0
 11
71.945218
 21
306.926509
 31
0.0
  0
LINE
  5
23f
100
AcDbEntity
  8
Layer_1
 62
1
100
AcDbLine
 10
72.417009
 20
306.926472
 30
0.0
 11
72.295343
 21
306.851260
 31
0.0
  0
LINE
  5
240
100
AcDbEntity
  8
Layer_1
 62
1
100
AcDbLine
 10
72.295343
 20
306.851260
 30
0.0
 11
72.183272
 21
306.833282
 31
0.0
  0
LINE
  5
241
100
AcDbEntity
  8
Layer_1
 62
1
100
AcDbLine
 10
72.515137
 20
307.209578
 30
0.0
 11
72.484347
 21
307.027262
 31
0.0
  0
LINE
  5
242
100
AcDbEntity
  8
Layer_1
 62
1
100
AcDbLine
 10
72.484347
 20
307.027262
 30
0.0
 11
72.416980
 21
306.926472
 31
0.0
  0
LINE
  5
243
100
AcDbEntity
  8
Layer_1
 62
1
100
AcDbLine
 10
72.417009
 20
307.491024
 30
0.0
 11
72.496144
 21
307.357566
 31
0.0
  0
LINE
  5
244
100
AcDbEntity
  8
Layer_1
 62
1
100
AcDbLine
 10
72.496144
 20
307.357566
 30
0.0
 11
72.515053
 21
307.209578
 31
0.0
  0
LINE
  5
245
100
AcDbEntity
  8
Layer_1
 62
1
100
AcDbLine
 10
72.183272
 20
307.582641
 30
0.0
 11
72.323367
 21
307.554066
 31
0.0
  0
LINE
  5
246
100
AcDbEntity
  8
Layer_1
 62
1
100
AcDbLine
 10
72.323367
 20
307.554066
 30
0.0
 11
72.417009
 21
307.491165
 31
0.0
  0
LINE
  5
247
100
AcDbEntity
  8
Layer_1
 62
1
100
AcDbLine
 10
71.945218
 20
307.492646
 30
0.0
 11
72.066630
 21
307.565211
 31
0.0
  0
LINE
  5
248
100
AcDbEntity
  8
Layer_1
 62
1
100
AcDbLine
 10
72.066630
 20
307.565211
 30
0.0
 11
72.183272
 21
307.582512
 31
0.0
  0
LINE
  5
249
100
AcDbEntity
  8
Layer_1
 62
1
100
AcDbLine
 10
71.850306
 20
307.209578
 30
0.0
 11
71.880081
 21
307.393479
 31
0.0
  0
LINE
  5
24a
100
AcDbEntity
  8
Layer_1
 62
1
100
AcDbLine
 10
71.880081
 20
307.393479
 30
0.0
 11
71.945218
 21
307.492646
 31
0.0
  0
LINE
  5
24b
100
AcDbEntity
  8
Layer_1
 62
1
100
AcDbLine
 10
71.945218
 20
306.926472
 30
0.0
 11
71.868679
 21
307.061233
 31
0.0
  0
LINE
  5
24c
100
AcDbEntity
  8
Layer_1
 62
1
100
AcDbLine
 10
71.868679
 20
307.061233
 30
0.0
 11
71.850335
 21
307.209578
 31
0.0
  0
LINE
  5
24d
100
AcDbEntity
  8
Layer_1
 62
1
100
AcDbLine
 10
71.898030
 20
306.203066
 30
0.0
 11
72.460922
 21
306.203066
 31
0.0
  0
LINE
  5
24e
100
AcDbEntity
  8
Layer_1
 62
1
100
AcDbLine
 10
71.898030
 20
302.488457
 30
0.0
 11
71.898030
 21
306.203069
 31
0.0
  0
LINE
  5
24f
100
AcDbEntity
  8
Layer_1
 62
1
100
AcDbLine
 10
72.460922
 20
302.488457
 30
0.0
 11
71.898030
 21
302.488457
 31
0.0
  0
LINE
  5
250
100
AcDbEntity
  8
Layer_1
 62
1
100
AcDbLine
 10
72.460922
 20
306.203066
 30
0.0
 11
72.460922
 21
302.488457
 31
0.0
  0
LINE
  5
251
100
AcDbEntity
  8
Layer_1
 62
1
100
AcDbLine
 10
78.407599
 20
174.064287
 30
0.0
 11
78.970491
 21
174.064287
 31
0.0
  0
LINE
  5
252
100
AcDbEntity
  8
Layer_1
 62
1
100
AcDbLine
 10
78.407599
 20
170.349648
 30
0.0
 11
78.407599
 21
174.064287
 31
0.0
  0
LINE
  5
253
100
AcDbEntity
  8
Layer_1
 62
1
100
AcDbLine
 10
78.970491
 20
170.349648
 30
0.0
 11
78.407599
 21
170.349648
 31
0.0
  0
LINE
  5
254
100
AcDbEntity
  8
Layer_1
 62
1
100
AcDbLine
 10
78.970491
 20
174.064287
 30
0.0
 11
78.970491
 21
170.349648
 31
0.0
  0
LINE
  5
255
100
AcDbEntity
  8
Layer_1
 62
1
100
AcDbLine
 10
78.692841
 20
174.694422
 30
0.0
 11
78.547637
 21
174.723669
 31
0.0
  0
LINE
  5
256
100
AcDbEntity
  8
Layer_1
 62
1
100
AcDbLine
 10
78.547637
 20
174.723669
 30
0.0
 11
78.454786
 21
174.787691
 31
0.0
  0
LINE
  5
257
100
AcDbEntity
  8
Layer_1
 62
1
100
AcDbLine
 10
78.926577
 20
174.787694
 30
0.0
 11
78.804911
 21
174.712479
 31
0.0
  0
LINE
  5
258
100
AcDbEntity
  8
Layer_1
 62
1
100
AcDbLine
 10
78.804911
 20
174.712479
 30
0.0
 11
78.692841
 21
174.694416
 31
0.0
  0
LINE
  5
259
100
AcDbEntity
  8
Layer_1
 62
1
100
AcDbLine
 10
79.024734
 20
175.070765
 30
0.0
 11
78.993972
 21
174.888461
 31
0.0
  0
LINE
  5
25a
100
AcDbEntity
  8
Layer_1
 62
1
100
AcDbLine
 10
78.993972
 20
174.888461
 30
0.0
 11
78.926577
 21
174.787694
 31
0.0
  0
LINE
  5
25b
100
AcDbEntity
  8
Layer_1
 62
1
100
AcDbLine
 10
78.926577
 20
175.352211
 30
0.0
 11
79.005712
 21
175.218788
 31
0.0
  0
LINE
  5
25c
100
AcDbEntity
  8
Layer_1
 62
1
100
AcDbLine
 10
79.005712
 20
175.218788
 30
0.0
 11
79.024621
 21
175.070765
 31
0.0
  0
LINE
  5
25d
100
AcDbEntity
  8
Layer_1
 62
1
100
AcDbLine
 10
78.692841
 20
175.443857
 30
0.0
 11
78.832964
 21
175.415105
 31
0.0
  0
LINE
  5
25e
100
AcDbEntity
  8
Layer_1
 62
1
100
AcDbLine
 10
78.832964
 20
175.415105
 30
0.0
 11
78.926577
 21
175.352200
 31
0.0
  0
LINE
  5
25f
100
AcDbEntity
  8
Layer_1
 62
1
100
AcDbLine
 10
78.454786
 20
175.353837
 30
0.0
 11
78.576198
 21
175.426430
 31
0.0
  0
LINE
  5
260
100
AcDbEntity
  8
Layer_1
 62
1
100
AcDbLine
 10
78.576198
 20
175.426430
 30
0.0
 11
78.692841
 21
175.443872
 31
0.0
  0
LINE
  5
261
100
AcDbEntity
  8
Layer_1
 62
1
100
AcDbLine
 10
78.359875
 20
175.070765
 30
0.0
 11
78.389649
 21
175.254673
 31
0.0
  0
LINE
  5
262
100
AcDbEntity
  8
Layer_1
 62
1
100
AcDbLine
 10
78.389649
 20
175.254673
 30
0.0
 11
78.454786
 21
175.353837
 31
0.0
  0
LINE
  5
263
100
AcDbEntity
  8
Layer_1
 62
1
100
AcDbLine
 10
78.454786
 20
174.787694
 30
0.0
 11
78.378248
 21
174.922429
 31
0.0
  0
LINE
  5
264
100
AcDbEntity
  8
Layer_1
 62
1
100
AcDbLine
 10
78.378248
 20
174.922429
 30
0.0
 11
78.359903
 21
175.070765
 31
0.0
  0
LINE
  5
265
100
AcDbEntity
  8
Layer_1
 62
1
100
AcDbLine
 10
83.044115
 20
174.064287
 30
0.0
 11
81.634189
 21
170.349648
 31
0.0
  0
LINE
  5
266
100
AcDbEntity
  8
Layer_1
 62
1
100
AcDbLine
 10
82.441119
 20
174.064287
 30
0.0
 11
83.044115
 21
174.064287
 31
0.0
  0
LINE
  5
267
100
AcDbEntity
  8
Layer_1
 62
1
100
AcDbLine
 10
81.551752
 20
171.601777
 30
0.0
 11
81.701527
 21
172.022452
 31
0.0
  0
LINE
  5
268
100
AcDbEntity
  8
Layer_1
 62
1
100
AcDbLine
 10
81.701527
 20
172.022452
 30
0.0
 11
81.928462
 21
172.652217
 31
0.0
  0
LINE
  5
269
100
AcDbEntity
  8
Layer_1
 62
1
100
AcDbLine
 10
81.928462
 20
172.652217
 30
0.0
 11
82.160957
 21
173.293711
 31
0.0
  0
LINE
  5
26a
100
AcDbEntity
  8
Layer_1
 62
1
100
AcDbLine
 10
82.160957
 20
173.293711
 30
0.0
 11
82.441119
 21
174.064287
 31
0.0
  0
LINE
  5
26b
100
AcDbEntity
  8
Layer_1
 62
1
100
AcDbLine
 10
81.316407
 20
170.858305
 30
0.0
 11
81.408383
 21
171.179649
 31
0.0
  0
LINE
  5
26c
100
AcDbEntity
  8
Layer_1
 62
1
100
AcDbLine
 10
81.408383
 20
171.179649
 30
0.0
 11
81.551752
 21
171.601777
 31
0.0
  0
LINE
  5
26d
100
AcDbEntity
  8
Layer_1
 62
1
100
AcDbLine
 10
81.289285
 20
170.858305
 30
0.0
 11
81.316378
 21
170.858305
 31
0.0
  0
LINE
  5
26e
100
AcDbEntity
  8
Layer_1
 62
1
100
AcDbLine
 10
80.970430
 20
171.861532
 30
0.0
 11
81.204054
 21
171.165840
 31
0.0
  0
LINE
  5
26f
100
AcDbEntity
  8
Layer_1
 62
1
100
AcDbLine
 10
81.204054
 20
171.165840
 30
0.0
 11
81.289285
 21
170.858305
 31
0.0
  0
LINE
  5
270
100
AcDbEntity
  8
Layer_1
 62
1
100
AcDbLine
 10
80.170020
 20
174.064287
 30
0.0
 11
80.970430
 21
171.861532
 31
0.0
  0
LINE
  5
271
100
AcDbEntity
  8
Layer_1
 62
1
100
AcDbLine
 10
79.566996
 20
174.064287
 30
0.0
 11
80.170020
 21
174.064287
 31
0.0
  0
LINE
  5
272
100
AcDbEntity
  8
Layer_1
 62
1
100
AcDbLine
 10
80.976950
 20
170.349648
 30
0.0
 11
79.566996
 21
174.064287
 31
0.0
  0
LINE
  5
273
100
AcDbEntity
  8
Layer_1
 62
1
100
AcDbLine
 10
81.634189
 20
170.349648
 30
0.0
 11
80.976950
 21
170.349648
 31
0.0
  0
LINE
  5
274
100
AcDbEntity
  8
Layer_1
 62
1
100
AcDbLine
 10
69.857959
 20
304.600080
 30
0.0
 11
70.463382
 21
304.329395
 31
0.0
  0
LINE
  5
275
100
AcDbEntity
  8
Layer_1
 62
1
100
AcDbLine
 10
70.463382
 20
304.329395
 30
0.0
 11
70.750571
 21
304.115293
 31
0.0
  0
LINE
  5
276
100
AcDbEntity
  8
Layer_1
 62
1
100
AcDbLine
 10
69.207211
 20
304.875035
 30
0.0
 11
69.494682
 21
304.742038
 31
0.0
  0
LINE
  5
277
100
AcDbEntity
  8
Layer_1
 62
1
100
AcDbLine
 10
69.494682
 20
304.742038
 30
0.0
 11
69.857959
 21
304.600080
 31
0.0
  0
LINE
  5
278
100
AcDbEntity
  8
Layer_1
 62
1
100
AcDbLine
 10
68.961564
 20
305.074600
 30
0.0
 11
69.076288
 21
304.960441
 31
0.0
  0
LINE
  5
279
100
AcDbEntity
  8
Layer_1
 62
1
100
AcDbLine
 10
69.076288
 20
304.960441
 30
0.0
 11
69.207211
 21
304.875035
 31
0.0
  0
LINE
  5
27a
100
AcDbEntity
  8
Layer_1
 62
1
100
AcDbLine
 10
68.885110
 20
305.328919
 30
0.0
 11
68.909099
 21
305.175390
 31
0.0
  0
LINE
  5
27b
100
AcDbEntity
  8
Layer_1
 62
1
100
AcDbLine
 10
68.909099
 20
305.175390
 30
0.0
 11
68.961564
 21
305.074603
 31
0.0
  0
LINE
  5
27c
100
AcDbEntity
  8
Layer_1
 62
1
100
AcDbLine
 10
69.088452
 20
305.674359
 30
0.0
 11
68.924480
 21
305.504286
 31
0.0
  0
LINE
  5
27d
100
AcDbEntity
  8
Layer_1
 62
1
100
AcDbLine
 10
68.924480
 20
305.504286
 30
0.0
 11
68.885110
 21
305.328919
 31
0.0
  0
LINE
  5
27e
100
AcDbEntity
  8
Layer_1
 62
1
100
AcDbLine
 10
69.692012
 20
305.799629
 30
0.0
 11
69.305537
 21
305.760330
 31
0.0
  0
LINE
  5
27f
100
AcDbEntity
  8
Layer_1
 62
1
100
AcDbLine
 10
69.305537
 20
305.760330
 30
0.0
 11
69.088452
 21
305.674359
 31
0.0
  0
LINE
  5
280
100
AcDbEntity
  8
Layer_1
 62
1
100
AcDbLine
 10
70.705020
 20
305.569689
 30
0.0
 11
70.112072
 21
305.755109
 31
0.0
  0
LINE
  5
281
100
AcDbEntity
  8
Layer_1
 62
1
100
AcDbLine
 10
70.112072
 20
305.755109
 30
0.0
 11
69.692012
 21
305.799629
 31
0.0
  0
LINE
  5
282
100
AcDbEntity
  8
Layer_1
 62
1
100
AcDbLine
 10
70.905652
 20
306.027383
 30
0.0
 11
70.705020
 21
305.569691
 31
0.0
  0
LINE
  5
283
100
AcDbEntity
  8
Layer_1
 62
1
100
AcDbLine
 10
69.732144
 20
306.271400
 30
0.0
 11
70.395733
 21
306.194881
 31
0.0
  0
LINE
  5
284
100
AcDbEntity
  8
Layer_1
 62
1
100
AcDbLine
 10
70.395733
 20
306.194881
 30
0.0
 11
70.905652
 21
306.027383
 31
0.0
  0
LINE
  5
285
100
AcDbEntity
  8
Layer_1
 62
1
100
AcDbLine
 10
68.719164
 20
306.008403
 30
0.0
 11
69.219092
 21
306.220493
 31
0.0
  0
LINE
  5
286
100
AcDbEntity
  8
Layer_1
 62
1
100
AcDbLine
 10
69.219092
 20
306.220493
 30
0.0
 11
69.732144
 21
306.271400
 31
0.0
  0
LINE
  5
287
100
AcDbEntity
  8
Layer_1
 62
1
100
AcDbLine
 10
68.349340
 20
305.290960
 30
0.0
 11
68.465305
 21
305.739905
 31
0.0
  0
LINE
  5
288
100
AcDbEntity
  8
Layer_1
 62
1
100
AcDbLine
 10
68.465305
 20
305.739905
 30
0.0
 11
68.719164
 21
306.008403
 31
0.0
  0
LINE
  5
289
100
AcDbEntity
  8
Layer_1
 62
1
100
AcDbLine
 10
68.456161
 20
304.854433
 30
0.0
 11
68.369998
 21
305.081374
 31
0.0
  0
LINE
  5
28a
100
AcDbEntity
  8
Layer_1
 62
1
100
AcDbLine
 10
68.369998
 20
305.081374
 30
0.0
 11
68.349396
 21
305.290960
 31
0.0
  0
LINE
  5
28b
100
AcDbEntity
  8
Layer_1
 62
1
100
AcDbLine
 10
68.781535
 20
304.527442
 30
0.0
 11
68.571787
 21
304.701045
 31
0.0
  0
LINE
  5
28c
100
AcDbEntity
  8
Layer_1
 62
1
100
AcDbLine
 10
68.571787
 20
304.701045
 30
0.0
 11
68.456161
 21
304.854433
 31
0.0
  0
LINE
  5
28d
100
AcDbEntity
  8
Layer_1
 62
1
100
AcDbLine
 10
69.518502
 20
304.190116
 30
0.0
 11
69.031894
 21
304.391058
 31
0.0
  0
LINE
  5
28e
100
AcDbEntity
  8
Layer_1
 62
1
100
AcDbLine
 10
69.031894
 20
304.391058
 30
0.0
 11
68.781535
 21
304.527442
 31
0.0
  0
LINE
  5
28f
100
AcDbEntity
  8
Layer_1
 62
1
100
AcDbLine
 10
70.252731
 20
303.825696
 30
0.0
 11
69.930010
 21
304.015880
 31
0.0
  0
LINE
  5
290
100
AcDbEntity
  8
Layer_1
 62
1
100
AcDbLine
 10
69.930010
 20
304.015880
 30
0.0
 11
69.518502
 21
304.190116
 31
0.0
  0
LINE
  5
291
100
AcDbEntity
  8
Layer_1
 62
1
100
AcDbLine
 10
70.440381
 20
303.454786
 30
0.0
 11
70.381537
 21
303.677990
 31
0.0
  0
LINE
  5
292
100
AcDbEntity
  8
Layer_1
 62
1
100
AcDbLine
 10
70.381537
 20
303.677990
 30
0.0
 11
70.252731
 21
303.825696
 31
0.0
  0
LINE
  5
293
100
AcDbEntity
  8
Layer_1
 62
1
100
AcDbLine
 10
70.203399
 20
303.025845
 30
0.0
 11
70.394491
 21
303.229573
 31
0.0
  0
LINE
  5
294
100
AcDbEntity
  8
Layer_1
 62
1
100
AcDbLine
 10
70.394491
 20
303.229573
 30
0.0
 11
70.440381
 21
303.454786
 31
0.0
  0
LINE
  5
295
100
AcDbEntity
  8
Layer_1
 62
1
100
AcDbLine
 10
69.526094
 20
302.885403
 30
0.0
 11
69.955495
 21
302.929429
 31
0.0
  0
LINE
  5
296
100
AcDbEntity
  8
Layer_1
 62
1
100
AcDbLine
 10
69.955495
 20
302.929429
 30
0.0
 11
70.203399
 21
303.025845
 31
0.0
  0
LINE
  5
297
100
AcDbEntity
  8
Layer_1
 62
1
100
AcDbLine
 10
68.934443
 20
302.962943
 30
0.0
 11
69.270965
 21
302.900397
 31
0.0
  0
LINE
  5
298
100
AcDbEntity
  8
Layer_1
 62
1
100
AcDbLine
 10
69.270965
 20
302.900397
 30
0.0
 11
69.526094
 21
302.885242
 31
0.0
  0
LINE
  5
299
100
AcDbEntity
  8
Layer_1
 62
1
100
AcDbLine
 10
68.360177
 20
303.176058
 30
0.0
 11
68.672287
 21
303.042425
 31
0.0
  0
LINE
  5
29a
100
AcDbEntity
  8
Layer_1
 62
1
100
AcDbLine
 10
68.672287
 20
303.042425
 30
0.0
 11
68.934443
 21
302.962943
 31
0.0
  0
LINE
  5
29b
100
AcDbEntity
  8
Layer_1
 62
1
100
AcDbLine
 10
68.360177
 20
302.654370
 30
0.0
 11
68.360177
 21
303.176058
 31
0.0
  0
LINE
  5
29c
100
AcDbEntity
  8
Layer_1
 62
1
100
AcDbLine
 10
69.511982
 20
302.420125
 30
0.0
 11
68.786812
 21
302.493574
 31
0.0
  0
LINE
  5
29d
100
AcDbEntity
  8
Layer_1
 62
1
100
AcDbLine
 10
68.786812
 20
302.493574
 30
0.0
 11
68.360177
 21
302.654370
 31
0.0
  0
LINE
  5
29e
100
AcDbEntity
  8
Layer_1
 62
1
100
AcDbLine
 10
70.596562
 20
302.701571
 30
0.0
 11
70.066154
 21
302.474594
 31
0.0
  0
LINE
  5
29f
100
AcDbEntity
  8
Layer_1
 62
1
100
AcDbLine
 10
70.066154
 20
302.474594
 30
0.0
 11
69.511982
 21
302.420125
 31
0.0
  0
LINE
  5
2a0
100
AcDbEntity
  8
Layer_1
 62
1
100
AcDbLine
 10
70.982671
 20
303.501423
 30
0.0
 11
70.861569
 21
302.995116
 31
0.0
  0
LINE
  5
2a1
100
AcDbEntity
  8
Layer_1
 62
1
100
AcDbLine
 10
70.861569
 20
302.995116
 30
0.0
 11
70.596562
 21
302.701571
 31
0.0
  0
LINE
  5
2a2
100
AcDbEntity
  8
Layer_1
 62
1
100
AcDbLine
 10
70.750571
 20
304.115293
 30
0.0
 11
70.937713
 21
303.802520
 31
0.0
  0
LINE
  5
2a3
100
AcDbEntity
  8
Layer_1
 62
1
100
AcDbLine
 10
70.937713
 20
303.802520
 30
0.0
 11
70.982671
 21
303.501423
 31
0.0
  0
LINE
  5
2a4
100
AcDbEntity
  8
Layer_1
 62
1
100
AcDbLine
 10
63.411298
 20
304.349574
 30
0.0
 11
63.283253
 21
303.452387
 31
0.0
  0
LINE
  5
2a5
100
AcDbEntity
  8
Layer_1
 62
1
100
AcDbLine
 10
63.283253
 20
303.452387
 30
0.0
 11
63.002950
 21
302.927138
 31
0.0
  0
LINE
  5
2a6
100
AcDbEntity
  8
Layer_1
 62
1
100
AcDbLine
 10
63.009470
 20
305.766011
 30
0.0
 11
63.333489
 21
305.072732
 31
0.0
  0
LINE
  5
2a7
100
AcDbEntity
  8
Layer_1
 62
1
100
AcDbLine
 10
63.333489
 20
305.072732
 30
0.0
 11
63.411298
 21
304.349574
 31
0.0
  0
LINE
  5
2a8
100
AcDbEntity
  8
Layer_1
 62
1
100
AcDbLine
 10
61.869038
 20
306.271400
 30
0.0
 11
62.590652
 21
306.112933
 31
0.0
  0
LINE
  5
2a9
100
AcDbEntity
  8
Layer_1
 62
1
100
AcDbLine
 10
62.590652
 20
306.112933
 30
0.0
 11
63.009470
 21
305.766011
 31
0.0
  0
LINE
  5
2aa
100
AcDbEntity
  8
Layer_1
 62
1
100
AcDbLine
 10
61.207989
 20
306.135826
 30
0.0
 11
61.557210
 21
306.245154
 31
0.0
  0
LINE
  5
2ab
100
AcDbEntity
  8
Layer_1
 62
1
100
AcDbLine
 10
61.557210
 20
306.245154
 30
0.0
 11
61.869038
 21
306.271259
 31
0.0
  0
LINE
  5
2ac
100
AcDbEntity
  8
Layer_1
 62
1
100
AcDbLine
 10
60.703121
 20
305.694431
 30
0.0
 11
60.968354
 21
305.983568
 31
0.0
  0
LINE
  5
2ad
100
AcDbEntity
  8
Layer_1
 62
1
100
AcDbLine
 10
60.968354
 20
305.983568
 30
0.0
 11
61.207989
 21
306.135826
 31
0.0
  0
LINE
  5
2ae
100
AcDbEntity
  8
Layer_1
 62
1
100
AcDbLine
 10
60.676028
 20
305.694431
 30
0.0
 11
60.703121
 21
305.694431
 31
0.0
  0
LINE
  5
2af
100
AcDbEntity
  8
Layer_1
 62
1
100
AcDbLine
 10
60.597937
 20
306.203066
 30
0.0
 11
60.676028
 21
305.694431
 31
0.0
  0
LINE
  5
2b0
100
AcDbEntity
  8
Layer_1
 62
1
100
AcDbLine
 10
60.140229
 20
306.203066
 30
0.0
 11
60.597937
 21
306.203066
 31
0.0
  0
LINE
  5
2b1
100
AcDbEntity
  8
Layer_1
 62
1
100
AcDbLine
 10
60.140229
 20
300.820383
 30
0.0
 11
60.140229
 21
306.203069
 31
0.0
  0
LINE
  5
2b2
100
AcDbEntity
  8
Layer_1
 62
1
100
AcDbLine
 10
60.703121
 20
300.820383
 30
0.0
 11
60.140229
 21
300.820383
 31
0.0
  0
LINE
  5
2b3
100
AcDbEntity
  8
Layer_1
 62
1
100
AcDbLine
 10
60.703121
 20
302.349604
 30
0.0
 11
60.703121
 21
300.820383
 31
0.0
  0
LINE
  5
2b4
100
AcDbEntity
  8
Layer_1
 62
1
100
AcDbLine
 10
60.661917
 20
302.966719
 30
0.0
 11
60.695163
 21
302.612846
 31
0.0
  0
LINE
  5
2b5
100
AcDbEntity
  8
Layer_1
 62
1
100
AcDbLine
 10
60.695163
 20
302.612846
 30
0.0
 11
60.703065
 21
302.349604
 31
0.0
  0
LINE
  5
2b6
100
AcDbEntity
  8
Layer_1
 62
1
100
AcDbLine
 10
60.703121
 20
302.966719
 30
0.0
 11
60.661917
 21
302.966719
 31
0.0
  0
LINE
  5
2b7
100
AcDbEntity
  8
Layer_1
 62
1
100
AcDbLine
 10
61.205816
 20
302.554074
 30
0.0
 11
60.900395
 21
302.749479
 31
0.0
  0
LINE
  5
2b8
100
AcDbEntity
  8
Layer_1
 62
1
100
AcDbLine
 10
60.900395
 20
302.749479
 30
0.0
 11
60.703121
 21
302.966719
 31
0.0
  0
LINE
  5
2b9
100
AcDbEntity
  8
Layer_1
 62
1
100
AcDbLine
 10
61.869038
 20
302.420125
 30
0.0
 11
61.481998
 21
302.462106
 31
0.0
  0
LINE
  5
2ba
100
AcDbEntity
  8
Layer_1
 62
1
100
AcDbLine
 10
61.481998
 20
302.462106
 30
0.0
 11
61.205816
 21
302.554074
 31
0.0
  0
LINE
  5
2bb
100
AcDbEntity
  8
Layer_1
 62
1
100
AcDbLine
 10
63.002950
 20
302.927138
 30
0.0
 11
62.446126
 21
302.518268
 31
0.0
  0
LINE
  5
2bc
100
AcDbEntity
  8
Layer_1
 62
1
100
AcDbLine
 10
62.446126
 20
302.518268
 30
0.0
 11
61.869038
 21
302.420125
 31
0.0
  0
LINE
  5
2bd
100
AcDbEntity
  8
Layer_1
 62
1
100
AcDbLine
 10
74.799246
 20
172.885363
 30
0.0
 11
74.799246
 21
170.349648
 31
0.0
  0
LINE
  5
2be
100
AcDbEntity
  8
Layer_1
 62
1
100
AcDbLine
 10
74.478755
 20
173.830565
 30
0.0
 11
74.737214
 21
173.389040
 31
0.0
  0
LINE
  5
2bf
100
AcDbEntity
  8
Layer_1
 62
1
100
AcDbLine
 10
74.737214
 20
173.389040
 30
0.0
 11
74.799246
 21
172.885363
 31
0.0
  0
LINE
  5
2c0
100
AcDbEntity
  8
Layer_1
 62
1
100
AcDbLine
 10
73.494505
 20
174.125025
 30
0.0
 11
74.130267
 21
174.032681
 31
0.0
  0
LINE
  5
2c1
100
AcDbEntity
  8
Layer_1
 62
1
100
AcDbLine
 10
74.130267
 20
174.032681
 30
0.0
 11
74.478755
 21
173.830565
 31
0.0
  0
LINE
  5
2c2
100
AcDbEntity
  8
Layer_1
 62
1
100
AcDbLine
 10
72.837802
 20
174.040428
 30
0.0
 11
73.204888
 21
174.108644
 31
0.0
  0
LINE
  5
2c3
100
AcDbEntity
  8
Layer_1
 62
1
100
AcDbLine
 10
73.204888
 20
174.108644
 30
0.0
 11
73.494505
 21
174.125013
 31
0.0
  0
LINE
  5
2c4
100
AcDbEntity
  8
Layer_1
 62
1
100
AcDbLine
 10
72.236415
 20
173.807245
 30
0.0
 11
72.560236
 21
173.953591
 31
0.0
  0
LINE
  5
2c5
100
AcDbEntity
  8
Layer_1
 62
1
100
AcDbLine
 10
72.560236
 20
173.953591
 30
0.0
 11
72.837802
 21
174.040428
 31
0.0
  0
LINE
  5
2c6
100
AcDbEntity
  8
Layer_1
 62
1
100
AcDbLine
 10
72.409953
 20
173.376673
 30
0.0
 11
72.236415
 21
173.807245
 31
0.0
  0
LINE
  5
2c7
100
AcDbEntity
  8
Layer_1
 62
1
100
AcDbLine
 10
73.459820
 20
173.660828
 30
0.0
 11
72.901810
 21
173.571717
 31
0.0
  0
LINE
  5
2c8
100
AcDbEntity
  8
Layer_1
 62
1
100
AcDbLine
 10
72.901810
 20
173.571717
 30
0.0
 11
72.409953
 21
173.376673
 31
0.0
  0
LINE
  5
2c9
100
AcDbEntity
  8
Layer_1
 62
1
100
AcDbLine
 10
74.061743
 20
173.452591
 30
0.0
 11
73.780509
 21
173.620513
 31
0.0
  0
LINE
  5
2ca
100
AcDbEntity
  8
Layer_1
 62
1
100
AcDbLine
 10
73.780509
 20
173.620513
 30
0.0
 11
73.459820
 21
173.660828
 31
0.0
  0
LINE
  5
2cb
100
AcDbEntity
  8
Layer_1
 62
1
100
AcDbLine
 10
74.249365
 20
172.807273
 30
0.0
 11
74.190521
 21
173.225040
 31
0.0
  0
LINE
  5
2cc
100
AcDbEntity
  8
Layer_1
 62
1
100
AcDbLine
 10
74.190521
 20
173.225040
 30
0.0
 11
74.061743
 21
173.452591
 31
0.0
  0
LINE
  5
2cd
100
AcDbEntity
  8
Layer_1
 62
1
100
AcDbLine
 10
74.249365
 20
172.576260
 30
0.0
 11
74.249365
 21
172.807273
 31
0.0
  0
LINE
  5
2ce
100
AcDbEntity
  8
Layer_1
 62
1
100
AcDbLine
 10
73.619247
 20
172.555654
 30
0.0
 11
74.249365
 21
172.576257
 31
0.0
  0
LINE
  5
2cf
100
AcDbEntity
  8
Layer_1
 62
1
100
AcDbLine
 10
71.819939
 20
171.376730
 30
0.0
 11
71.961022
 21
171.922636
 31
0.0
  0
LINE
  5
2d0
100
AcDbEntity
  8
Layer_1
 62
1
100
AcDbLine
 10
71.961022
 20
171.922636
 30
0.0
 11
72.384214
 21
172.300692
 31
0.0
  0
LINE
  5
2d1
100
AcDbEntity
  8
Layer_1
 62
1
100
AcDbLine
 10
72.384214
 20
172.300692
 30
0.0
 11
72.914623
 21
172.479985
 31
0.0
  0
LINE
  5
2d2
100
AcDbEntity
  8
Layer_1
 62
1
100
AcDbLine
 10
72.914623
 20
172.479985
 30
0.0
 11
73.619247
 21
172.555654
 31
0.0
  0
LINE
  5
2d3
100
AcDbEntity
  8
Layer_1
 62
1
100
AcDbLine
 10
72.133375
 20
170.566558
 30
0.0
 11
71.880617
 21
170.961195
 31
0.0
  0
LINE
  5
2d4
100
AcDbEntity
  8
Layer_1
 62
1
100
AcDbLine
 10
71.880617
 20
170.961195
 30
0.0
 11
71.819939
 21
171.376730
 31
0.0
  0
LINE
  5
2d5
100
AcDbEntity
  8
Layer_1
 62
1
100
AcDbLine
 10
72.998866
 20
170.281316
 30
0.0
 11
72.455391
 21
170.370772
 31
0.0
  0
LINE
  5
2d6
100
AcDbEntity
  8
Layer_1
 62
1
100
AcDbLine
 10
72.455391
 20
170.370772
 30
0.0
 11
72.133375
 21
170.566558
 31
0.0
  0
LINE
  5
2d7
100
AcDbEntity
  8
Layer_1
 62
1
100
AcDbLine
 10
73.689182
 20
170.405502
 30
0.0
 11
73.336686
 21
170.305358
 31
0.0
  0
LINE
  5
2d8
100
AcDbEntity
  8
Layer_1
 62
1
100
AcDbLine
 10
73.336686
 20
170.305358
 30
0.0
 11
72.998866
 21
170.281313
 31
0.0
  0
LINE
  5
2d9
100
AcDbEntity
  8
Layer_1
 62
1
100
AcDbLine
 10
74.242874
 20
170.878916
 30
0.0
 11
73.932401
 21
170.558351
 31
0.0
  0
LINE
  5
2da
100
AcDbEntity
  8
Layer_1
 62
1
100
AcDbLine
 10
73.932401
 20
170.558351
 30
0.0
 11
73.689182
 21
170.405502
 31
0.0
  0
LINE
  5
2db
100
AcDbEntity
  8
Layer_1
 62
1
100
AcDbLine
 10
74.269995
 20
170.878916
 30
0.0
 11
74.242902
 21
170.878916
 31
0.0
  0
LINE
  5
2dc
100
AcDbEntity
  8
Layer_1
 62
1
100
AcDbLine
 10
74.381699
 20
170.349648
 30
0.0
 11
74.269995
 21
170.878916
 31
0.0
  0
LINE
  5
2dd
100
AcDbEntity
  8
Layer_1
 62
1
100
AcDbLine
 10
74.799246
 20
170.349648
 30
0.0
 11
74.381699
 21
170.349648
 31
0.0
  0
LINE
  5
2de
100
AcDbEntity
  8
Layer_1
 62
1
100
AcDbLine
 10
68.627526
 20
169.268333
 30
0.0
 11
68.981235
 21
169.142391
 31
0.0
  0
LINE
  5
2df
100
AcDbEntity
  8
Layer_1
 62
1
100
AcDbLine
 10
68.981235
 20
169.142391
 30
0.0
 11
69.355801
 21
169.112160
 31
0.0
  0
LINE
  5
2e0
100
AcDbEntity
  8
Layer_1
 62
1
100
AcDbLine
 10
69.355801
 20
169.112154
 30
0.0
 11
70.033727
 21
169.178648
 31
0.0
  0
LINE
  5
2e1
100
AcDbEntity
  8
Layer_1
 62
1
100
AcDbLine
 10
70.033727
 20
169.178648
 30
0.0
 11
70.404595
 21
169.324187
 31
0.0
  0
LINE
  5
2e2
100
AcDbEntity
  8
Layer_1
 62
1
100
AcDbLine
 10
70.404595
 20
169.324187
 30
0.0
 11
70.679197
 21
169.608772
 31
0.0
  0
LINE
  5
2e3
100
AcDbEntity
  8
Layer_1
 62
1
100
AcDbLine
 10
70.679197
 20
169.608772
 30
0.0
 11
70.745124
 21
169.898465
 31
0.0
  0
LINE
  5
2e4
100
AcDbEntity
  8
Layer_1
 62
1
100
AcDbLine
 10
70.745124
 20
169.898465
 30
0.0
 11
70.686817
 21
170.178333
 31
0.0
  0
LINE
  5
2e5
100
AcDbEntity
  8
Layer_1
 62
1
100
AcDbLine
 10
70.686817
 20
170.178333
 30
0.0
 11
70.559140
 21
170.317110
 31
0.0
  0
LINE
  5
2e6
100
AcDbEntity
  8
Layer_1
 62
1
100
AcDbLine
 10
70.559140
 20
170.317110
 30
0.0
 11
70.247595
 21
170.411567
 31
0.0
  0
LINE
  5
2e7
100
AcDbEntity
  8
Layer_1
 62
1
100
AcDbLine
 10
70.247595
 20
170.411567
 30
0.0
 11
69.857959
 21
170.434258
 31
0.0
  0
LINE
  5
2e8
100
AcDbEntity
  8
Layer_1
 62
1
100
AcDbLine
 10
69.857959
 20
170.434244
 30
0.0
 11
69.183363
 21
170.434244
 31
0.0
  0
LINE
  5
2e9
100
AcDbEntity
  8
Layer_1
 62
1
100
AcDbLine
 10
69.183363
 20
170.434244
 30
0.0
 11
68.807612
 21
170.376930
 31
0.0
  0
LINE
  5
2ea
100
AcDbEntity
  8
Layer_1
 62
1
100
AcDbLine
 10
68.807612
 20
170.376930
 30
0.0
 11
68.586858
 21
170.251493
 31
0.0
  0
LINE
  5
2eb
100
AcDbEntity
  8
Layer_1
 62
1
100
AcDbLine
 10
68.586858
 20
170.251493
 30
0.0
 11
68.414561
 21
169.996647
 31
0.0
  0
LINE
  5
2ec
100
AcDbEntity
  8
Layer_1
 62
1
100
AcDbLine
 10
68.414561
 20
169.996647
 30
0.0
 11
68.373188
 21
169.726021
 31
0.0
  0
LINE
  5
2ed
100
AcDbEntity
  8
Layer_1
 62
1
100
AcDbLine
 10
68.373188
 20
169.726021
 30
0.0
 11
68.452944
 21
169.433907
 31
0.0
  0
LINE
  5
2ee
100
AcDbEntity
  8
Layer_1
 62
1
100
AcDbLine
 10
68.452944
 20
169.433907
 30
0.0
 11
68.627526
 21
169.268333
 31
0.0
  0
LINE
  5
2ef
100
AcDbEntity
  8
Layer_1
 62
1
100
AcDbLine
 10
62.555035
 20
303.281820
 30
0.0
 11
62.774999
 21
303.810846
 31
0.0
  0
LINE
  5
2f0
100
AcDbEntity
  8
Layer_1
 62
1
100
AcDbLine
 10
62.774999
 20
303.810846
 30
0.0
 11
62.827803
 21
304.356065
 31
0.0
  0
LINE
  5
2f1
100
AcDbEntity
  8
Layer_1
 62
1
100
AcDbLine
 10
61.800712
 20
302.891894
 30
0.0
 11
62.274563
 21
303.014166
 31
0.0
  0
LINE
  5
2f2
100
AcDbEntity
  8
Layer_1
 62
1
100
AcDbLine
 10
62.274563
 20
303.014166
 30
0.0
 11
62.555035
 21
303.281820
 31
0.0
  0
LINE
  5
2f3
100
AcDbEntity
  8
Layer_1
 62
1
100
AcDbLine
 10
60.963979
 20
303.229186
 30
0.0
 11
61.354914
 21
302.957194
 31
0.0
  0
LINE
  5
2f4
100
AcDbEntity
  8
Layer_1
 62
1
100
AcDbLine
 10
61.354914
 20
302.957194
 30
0.0
 11
61.800712
 21
302.891896
 31
0.0
  0
LINE
  5
2f5
100
AcDbEntity
  8
Layer_1
 62
1
100
AcDbLine
 10
60.703121
 20
304.349574
 30
0.0
 11
60.784938
 21
303.612336
 31
0.0
  0
LINE
  5
2f6
100
AcDbEntity
  8
Layer_1
 62
1
100
AcDbLine
 10
60.784938
 20
303.612336
 30
0.0
 11
60.963979
 21
303.229186
 31
0.0
  0
LINE
  5
2f7
100
AcDbEntity
  8
Layer_1
 62
1
100
AcDbLine
 10
60.703121
 20
304.474280
 30
0.0
 11
60.703121
 21
304.349574
 31
0.0
  0
LINE
  5
2f8
100
AcDbEntity
  8
Layer_1
 62
1
100
AcDbLine
 10
60.963979
 20
305.478037
 30
0.0
 11
60.756828
 21
305.007996
 31
0.0
  0
LINE
  5
2f9
100
AcDbEntity
  8
Layer_1
 62
1
100
AcDbLine
 10
60.756828
 20
305.007996
 30
0.0
 11
60.703121
 21
304.474280
 31
0.0
  0
LINE
  5
2fa
100
AcDbEntity
  8
Layer_1
 62
1
100
AcDbLine
 10
61.787701
 20
305.793104
 30
0.0
 11
61.248770
 21
305.694326
 31
0.0
  0
LINE
  5
2fb
100
AcDbEntity
  8
Layer_1
 62
1
100
AcDbLine
 10
61.248770
 20
305.694326
 30
0.0
 11
60.963979
 21
305.478037
 31
0.0
  0
LINE
  5
2fc
100
AcDbEntity
  8
Layer_1
 62
1
100
AcDbLine
 10
62.555035
 20
305.422194
 30
0.0
 11
62.179962
 21
305.721315
 31
0.0
  0
LINE
  5
2fd
100
AcDbEntity
  8
Layer_1
 62
1
100
AcDbLine
 10
62.179962
 20
305.721315
 30
0.0
 11
61.787701
 21
305.793104
 31
0.0
  0
LINE
  5
2fe
100
AcDbEntity
  8
Layer_1
 62
1
100
AcDbLine
 10
62.827803
 20
304.356063
 30
0.0
 11
62.742262
 21
305.033009
 31
0.0
  0
LINE
  5
2ff
100
AcDbEntity
  8
Layer_1
 62
1
100
AcDbLine
 10
62.742262
 20
305.033009
 30
0.0
 11
62.555035
 21
305.422194
 31
0.0
  0
LINE
  5
300
100
AcDbEntity
  8
Layer_1
 62
1
100
AcDbLine
 10
68.898121
 20
172.285057
 30
0.0
 11
69.199139
 21
172.123691
 31
0.0
  0
LINE
  5
301
100
AcDbEntity
  8
Layer_1
 62
1
100
AcDbLine
 10
69.199139
 20
172.123691
 30
0.0
 11
69.511982
 21
172.084953
 31
0.0
  0
LINE
  5
302
100
AcDbEntity
  8
Layer_1
 62
1
100
AcDbLine
 10
69.511982
 20
172.084953
 30
0.0
 11
69.908420
 21
172.147705
 31
0.0
  0
LINE
  5
303
100
AcDbEntity
  8
Layer_1
 62
1
100
AcDbLine
 10
69.908420
 20
172.147705
 30
0.0
 11
70.175797
 21
172.335961
 31
0.0
  0
LINE
  5
304
100
AcDbEntity
  8
Layer_1
 62
1
100
AcDbLine
 10
70.175797
 20
172.335961
 30
0.0
 11
70.335168
 21
172.885363
 31
0.0
  0
LINE
  5
305
100
AcDbEntity
  8
Layer_1
 62
1
100
AcDbLine
 10
70.335168
 20
172.885363
 30
0.0
 11
70.269862
 21
173.288078
 31
0.0
  0
LINE
  5
306
100
AcDbEntity
  8
Layer_1
 62
1
100
AcDbLine
 10
70.269862
 20
173.288078
 30
0.0
 11
70.073972
 21
173.559677
 31
0.0
  0
LINE
  5
307
100
AcDbEntity
  8
Layer_1
 62
1
100
AcDbLine
 10
70.073972
 20
173.559677
 30
0.0
 11
69.502218
 21
173.721565
 31
0.0
  0
LINE
  5
308
100
AcDbEntity
  8
Layer_1
 62
1
100
AcDbLine
 10
69.502218
 20
173.721562
 30
0.0
 11
69.115122
 21
173.654729
 31
0.0
  0
LINE
  5
309
100
AcDbEntity
  8
Layer_1
 62
1
100
AcDbLine
 10
69.115122
 20
173.654729
 30
0.0
 11
68.891602
 21
173.508448
 31
0.0
  0
LINE
  5
30a
100
AcDbEntity
  8
Layer_1
 62
1
100
AcDbLine
 10
68.891602
 20
173.508448
 30
0.0
 11
68.719305
 21
173.204624
 31
0.0
  0
LINE
  5
30b
100
AcDbEntity
  8
Layer_1
 62
1
100
AcDbLine
 10
68.719305
 20
173.204624
 30
0.0
 11
68.677959
 21
172.874515
 31
0.0
  0
LINE
  5
30c
100
AcDbEntity
  8
Layer_1
 62
1
100
AcDbLine
 10
68.677959
 20
172.874515
 30
0.0
 11
68.746991
 21
172.497785
 31
0.0
  0
LINE
  5
30d
100
AcDbEntity
  8
Layer_1
 62
1
100
AcDbLine
 10
68.746991
 20
172.497785
 30
0.0
 11
68.898121
 21
172.285057
 31
0.0
  0
LINE
  5
30e
100
AcDbEntity
  8
Layer_1
 62
1
100
AcDbLine
 10
66.732235
 20
172.563246
 30
0.0
 11
66.657926
 21
173.080571
 31
0.0
  0
LINE
  5
30f
100
AcDbEntity
  8
Layer_1
 62
1
100
AcDbLine
 10
66.657926
 20
173.080571
 30
0.0
 11
66.495253
 21
173.377757
 31
0.0
  0
LINE
  5
310
100
AcDbEntity
  8
Layer_1
 62
1
100
AcDbLine
 10
64.789784
 20
172.563246
 30
0.0
 11
66.732235
 21
172.563246
 31
0.0
  0
LINE
  5
311
100
AcDbEntity
  8
Layer_1
 62
1
100
AcDbLine
 10
65.103756
 20
173.369623
 30
0.0
 11
64.874084
 21
172.973236
 31
0.0
  0
LINE
  5
312
100
AcDbEntity
  8
Layer_1
 62
1
100
AcDbLine
 10
64.874084
 20
172.973236
 30
0.0
 11
64.789784
 21
172.563246
 31
0.0
  0
LINE
  5
313
100
AcDbEntity
  8
Layer_1
 62
1
100
AcDbLine
 10
65.816875
 20
173.660828
 30
0.0
 11
65.373024
 21
173.569507
 31
0.0
  0
LINE
  5
314
100
AcDbEntity
  8
Layer_1
 62
1
100
AcDbLine
 10
65.373024
 20
173.569507
 30
0.0
 11
65.103756
 21
173.369623
 31
0.0
  0
LINE
  5
315
100
AcDbEntity
  8
Layer_1
 62
1
100
AcDbLine
 10
66.495253
 20
173.377757
 30
0.0
 11
66.165730
 21
173.606026
 31
0.0
  0
LINE
  5
316
100
AcDbEntity
  8
Layer_1
 62
1
100
AcDbLine
 10
66.165730
 20
173.606026
 30
0.0
 11
65.816875
 21
173.660828
 31
0.0
  0
LINE
  5
317
100
AcDbEntity
  8
Layer_1
 62
1
100
AcDbLine
 10
84.343974
 20
173.369623
 30
0.0
 11
84.114301
 21
172.973236
 31
0.0
  0
LINE
  5
318
100
AcDbEntity
  8
Layer_1
 62
1
100
AcDbLine
 10
84.114301
 20
172.973236
 30
0.0
 11
84.030002
 21
172.563246
 31
0.0
  0
LINE
  5
319
100
AcDbEntity
  8
Layer_1
 62
1
100
AcDbLine
 10
84.030002
 20
172.563246
 30
0.0
 11
85.972452
 21
172.563246
 31
0.0
  0
LINE
  5
31a
100
AcDbEntity
  8
Layer_1
 62
1
100
AcDbLine
 10
85.972452
 20
172.563246
 30
0.0
 11
85.898143
 21
173.080571
 31
0.0
  0
LINE
  5
31b
100
AcDbEntity
  8
Layer_1
 62
1
100
AcDbLine
 10
85.898143
 20
173.080571
 30
0.0
 11
85.735470
 21
173.377757
 31
0.0
  0
LINE
  5
31c
100
AcDbEntity
  8
Layer_1
 62
1
100
AcDbLine
 10
85.735470
 20
173.377757
 30
0.0
 11
85.405948
 21
173.606026
 31
0.0
  0
LINE
  5
31d
100
AcDbEntity
  8
Layer_1
 62
1
100
AcDbLine
 10
85.405948
 20
173.606026
 30
0.0
 11
85.057093
 21
173.660828
 31
0.0
  0
LINE
  5
31e
100
AcDbEntity
  8
Layer_1
 62
1
100
AcDbLine
 10
85.057093
 20
173.660828
 30
0.0
 11
84.613242
 21
173.569507
 31
0.0
  0
LINE
  5
31f
100
AcDbEntity
  8
Layer_1
 62
1
100
AcDbLine
 10
84.613242
 20
173.569507
 30
0.0
 11
84.343974
 21
173.369623
 31
0.0
  0
LINE
  5
320
100
AcDbEntity
  8
Layer_1
 62
1
100
AcDbLine
 10
82.040363
 20
305.508413
 30
0.0
 11
81.810691
 21
305.112031
 31
0.0
  0
LINE
  5
321
100
AcDbEntity
  8
Layer_1
 62
1
100
AcDbLine
 10
81.810691
 20
305.112031
 30
0.0
 11
81.726391
 21
304.702033
 31
0.0
  0
LINE
  5
322
100
AcDbEntity
  8
Layer_1
 62
1
100
AcDbLine
 10
81.726391
 20
304.702033
 30
0.0
 11
83.668842
 21
304.702033
 31
0.0
  0
LINE
  5
323
100
AcDbEntity
  8
Layer_1
 62
1
100
AcDbLine
 10
83.668842
 20
304.702033
 30
0.0
 11
83.594533
 21
305.219380
 31
0.0
  0
LINE
  5
324
100
AcDbEntity
  8
Layer_1
 62
1
100
AcDbLine
 10
83.594533
 20
305.219380
 30
0.0
 11
83.431860
 21
305.516560
 31
0.0
  0
LINE
  5
325
100
AcDbEntity
  8
Layer_1
 62
1
100
AcDbLine
 10
83.431860
 20
305.516560
 30
0.0
 11
83.102337
 21
305.744808
 31
0.0
  0
LINE
  5
326
100
AcDbEntity
  8
Layer_1
 62
1
100
AcDbLine
 10
83.102337
 20
305.744808
 30
0.0
 11
82.753454
 21
305.799629
 31
0.0
  0
LINE
  5
327
100
AcDbEntity
  8
Layer_1
 62
1
100
AcDbLine
 10
82.753454
 20
305.799629
 30
0.0
 11
82.309631
 21
305.708296
 31
0.0
  0
LINE
  5
328
100
AcDbEntity
  8
Layer_1
 62
1
100
AcDbLine
 10
82.309631
 20
305.708296
 30
0.0
 11
82.040363
 21
305.508413
 31
0.0
  0
LINE
  5
329
100
AcDbEntity
  8
Layer_1
 62
1
100
AcDbLine
 10
65.054960
 20
303.264464
 30
0.0
 11
65.457663
 21
302.964038
 31
0.0
  0
LINE
  5
32a
100
AcDbEntity
  8
Layer_1
 62
1
100
AcDbLine
 10
65.457663
 20
302.964038
 30
0.0
 11
65.891692
 21
302.891894
 31
0.0
  0
LINE
  5
32b
100
AcDbEntity
  8
Layer_1
 62
1
100
AcDbLine
 10
65.891692
 20
302.891894
 30
0.0
 11
66.427548
 21
303.008206
 31
0.0
  0
LINE
  5
32c
100
AcDbEntity
  8
Layer_1
 62
1
100
AcDbLine
 10
66.427548
 20
303.008206
 30
0.0
 11
66.731162
 21
303.262804
 31
0.0
  0
LINE
  5
32d
100
AcDbEntity
  8
Layer_1
 62
1
100
AcDbLine
 10
66.731162
 20
303.262804
 30
0.0
 11
66.962048
 21
303.786400
 31
0.0
  0
LINE
  5
32e
100
AcDbEntity
  8
Layer_1
 62
1
100
AcDbLine
 10
66.962048
 20
303.786400
 30
0.0
 11
67.017477
 21
304.349574
 31
0.0
  0
LINE
  5
32f
100
AcDbEntity
  8
Layer_1
 62
1
100
AcDbLine
 10
67.017477
 20
304.349574
 30
0.0
 11
66.927702
 21
305.035973
 31
0.0
  0
LINE
  5
330
100
AcDbEntity
  8
Layer_1
 62
1
100
AcDbLine
 10
66.927702
 20
305.035973
 30
0.0
 11
66.731162
 21
305.425439
 31
0.0
  0
LINE
  5
331
100
AcDbEntity
  8
Layer_1
 62
1
100
AcDbLine
 10
66.731162
 20
305.425439
 30
0.0
 11
66.324762
 21
305.721950
 31
0.0
  0
LINE
  5
332
100
AcDbEntity
  8
Layer_1
 62
1
100
AcDbLine
 10
66.324762
 20
305.721950
 30
0.0
 11
65.885201
 21
305.793104
 31
0.0
  0
LINE
  5
333
100
AcDbEntity
  8
Layer_1
 62
1
100
AcDbLine
 10
65.885201
 20
305.793104
 30
0.0
 11
65.351773
 21
305.679332
 31
0.0
  0
LINE
  5
334
100
AcDbEntity
  8
Layer_1
 62
1
100
AcDbLine
 10
65.351773
 20
305.679332
 30
0.0
 11
65.051714
 21
305.430341
 31
0.0
  0
LINE
  5
335
100
AcDbEntity
  8
Layer_1
 62
1
100
AcDbLine
 10
65.051714
 20
305.430341
 30
0.0
 11
64.824751
 21
304.912605
 31
0.0
  0
LINE
  5
336
100
AcDbEntity
  8
Layer_1
 62
1
100
AcDbLine
 10
64.824751
 20
304.912605
 30
0.0
 11
64.770254
 21
304.349574
 31
0.0
  0
LINE
  5
337
100
AcDbEntity
  8
Layer_1
 62
1
100
AcDbLine
 10
64.770254
 20
304.349574
 30
0.0
 11
64.859549
 21
303.658127
 31
0.0
  0
LINE
  5
338
100
AcDbEntity
  8
Layer_1
 62
1
100
AcDbLine
 10
64.859549
 20
303.658127
 30
0.0
 11
65.054960
 21
303.264464
 31
0.0
  0
LINE
  5
339
100
AcDbEntity
  8
Layer_1
 62
1
100
AcDbLine
 10
73.936465
 20
171.034550
 30
0.0
 11
74.178301
 21
171.429334
 31
0.0
  0
LINE
  5
33a
100
AcDbEntity
  8
Layer_1
 62
1
100
AcDbLine
 10
74.178301
 20
171.429334
 30
0.0
 11
74.236354
 21
171.840927
 31
0.0
  0
LINE
  5
33b
100
AcDbEntity
  8
Layer_1
 62
1
100
AcDbLine
 10
74.236354
 20
172.176054
 30
0.0
 11
73.673462
 21
172.153251
 31
0.0
  0
LINE
  5
33c
100
AcDbEntity
  8
Layer_1
 62
1
100
AcDbLine
 10
73.673462
 20
172.153279
 30
0.0
 11
73.039252
 21
172.076049
 31
0.0
  0
LINE
  5
33d
100
AcDbEntity
  8
Layer_1
 62
1
100
AcDbLine
 10
73.039252
 20
172.076049
 30
0.0
 11
72.706032
 21
171.944502
 31
0.0
  0
LINE
  5
33e
100
AcDbEntity
  8
Layer_1
 62
1
100
AcDbLine
 10
72.706032
 20
171.944502
 30
0.0
 11
72.467272
 21
171.673278
 31
0.0
  0
LINE
  5
33f
100
AcDbEntity
  8
Layer_1
 62
1
100
AcDbLine
 10
72.467272
 20
171.673278
 30
0.0
 11
72.409953
 21
171.370222
 31
0.0
  0
LINE
  5
340
100
AcDbEntity
  8
Layer_1
 62
1
100
AcDbLine
 10
72.409953
 20
171.370222
 30
0.0
 11
72.467780
 21
171.073759
 31
0.0
  0
LINE
  5
341
100
AcDbEntity
  8
Layer_1
 62
1
100
AcDbLine
 10
72.467780
 20
171.073759
 30
0.0
 11
72.594329
 21
170.905487
 31
0.0
  0
LINE
  5
342
100
AcDbEntity
  8
Layer_1
 62
1
100
AcDbLine
 10
72.594329
 20
170.905487
 30
0.0
 11
72.847087
 21
170.777358
 31
0.0
  0
LINE
  5
343
100
AcDbEntity
  8
Layer_1
 62
1
100
AcDbLine
 10
72.847087
 20
170.777358
 30
0.0
 11
73.110570
 21
170.746596
 31
0.0
  0
LINE
  5
344
100
AcDbEntity
  8
Layer_1
 62
1
100
AcDbLine
 10
73.110570
 20
170.746596
 30
0.0
 11
73.628814
 21
170.836899
 31
0.0
  0
LINE
  5
345
100
AcDbEntity
  8
Layer_1
 62
1
100
AcDbLine
 10
73.628814
 20
170.836899
 30
0.0
 11
73.936465
 21
171.034550
 31
0.0
  0
LINE
  5
346
100
AcDbEntity
  8
Layer_1
 62
1
100
AcDbLine
 10
74.236354
 20
171.840927
 30
0.0
 11
74.236354
 21
172.176054
 31
0.0
  0
LINE
  5
347
100
AcDbEntity
  8
Layer_1
 62
7
100
AcDbLine
 10
231.835216
 20
381.184326
 30
0.0
 11
231.835216
 21
401.175066
 31
0.0
  0
LINE
  5
348
100
AcDbEntity
  8
Layer_1
 62
7
100
AcDbLine
 10
145.275297
 20
401.175066
 30
0.0
 11
231.835216
 21
401.175066
 31
0.0
  0
LINE
  5
349
100
AcDbEntity
  8
Layer_1
 62
7
100
AcDbLine
 10
145.275297
 20
381.184326
 30
0.0
 11
145.275297
 21
401.175066
 31
0.0
  0
LINE
  5
34a
100
AcDbEntity
  8
Layer_1
 62
7
100
AcDbLine
 10
145.275297
 20
381.184326
 30
0.0
 11
231.835216
 21
381.184326
 31
0.0
  0
SPLINE
  5
34b
100
AcDbEntity
  8
Layer_1
 62
5
100
AcDbSpline
 70
0
 71
3
 72
19
 73
15
 74
13
 40
0.000000
 40
0.000000
 40
0.000000
 40
0.000000
 40
2.221123
 40
4.376367
 40
6.597498
 40
8.818618
 40
10.973866
 40
13.194990
 40
15.416115
 40
17.571363
 40
19.792483
 40
22.013614
 40
24.168858
 40
26.389981
 40
26.389981
 40
26.389981
 40
26.389981
 10
48.798706
 20
172.848488
 30
0.0
 10
48.681950
 20
172.099630
 30
0.0
 10
48.451903
 20
170.624125
 30
0.0
 10
46.760689
 20
168.999710
 30
0.0
 10
44.554571
 20
168.397820
 30
0.0
 10
42.325293
 20
168.999715
 30
0.0
 10
40.702190
 20
170.624123
 30
0.0
 10
40.099845
 20
172.848488
 30
0.0
 10
40.702190
 20
175.072853
 30
0.0
 10
42.325293
 20
176.697262
 30
0.0
 10
44.554571
 20
177.299157
 30
0.0
 10
46.760689
 20
176.697266
 30
0.0
 10
48.451903
 20
175.072852
 30
0.0
 10
48.681950
 20
173.597347
 30
0.0
 10
48.798706
 20
172.848488
 30
0.0
 11
48.798706
 21
172.848488
 31
0.0
 11
48.218728
 21
170.704424
 31
0.0
 11
46.694741
 21
169.180435
 31
0.0
 11
44.550669
 21
168.600454
 31
0.0
 11
42.406609
 21
169.180435
 31
0.0
 11
40.882616
 21
170.704424
 31
0.0
 11
40.302632
 21
172.848488
 31
0.0
 11
40.882616
 21
174.992553
 31
0.0
 11
42.406609
 21
176.516541
 31
0.0
 11
44.550669
 21
177.096523
 31
0.0
 11
46.694741
 21
176.516541
 31
0.0
 11
48.218728
 21
174.992553
 31
0.0
 11
48.798706
 21
172.848488
 31
0.0
  0
SPLINE
  5
34c
100
AcDbEntity
  8
Layer_1
 62
7
100
AcDbSpline
 70
0
 71
3
 72
10
 73
6
 74
4
 40
0.000000
 40
0.000000
 40
0.000000
 40
0.000000
 40
4.558871
 40
9.011193
 40
13.570064
 40
13.570064
 40
13.570064
 40
13.570064
 10
163.581616
 20
331.912868
 30
0.0
 10
165.034161
 20
331.403464
 30
0.0
 10
167.905302
 20
330.396561
 30
0.0
 10
170.956947
 20
326.659063
 30
0.0
 10
171.369283
 20
323.644552
 30
0.0
 10
171.577889
 20
322.119475
 30
0.0
 11
163.581616
 21
331.912868
 31
0.0
 11
167.723053
 21
330.007138
 31
0.0
 11
170.538946
 21
326.558383
 31
0.0
 11
171.577889
 21
322.119475
 31
0.0
  0
LINE
  5
34d
100
AcDbEntity
  8
Layer_1
 62
7
100
AcDbLine
 10
163.581616
 20
331.912868
 30
0.0
 11
163.581616
 21
349.804592
 31
0.0
  0
SPLINE
  5
34e
100
AcDbEntity
  8
Layer_1
 62
7
100
AcDbSpline
 70
0
 71
3
 72
10
 73
6
 74
4
 40
0.000000
 40
0.000000
 40
0.000000
 40
0.000000
 40
4.558889
 40
9.011212
 40
13.570090
 40
13.570090
 40
13.570090
 40
13.570090
 10
171.577889
 20
155.716314
 30
0.0
 10
171.369284
 20
154.191230
 30
0.0
 10
170.956951
 20
151.176711
 30
0.0
 10
167.905299
 20
147.439210
 30
0.0
 10
165.034161
 20
146.432295
 30
0.0
 10
163.581616
 20
145.922884
 30
0.0
 11
171.577889
 21
155.716314
 31
0.0
 11
170.538946
 21
151.277388
 31
0.0
 11
167.723053
 21
147.828630
 31
0.0
 11
163.581616
 21
145.922884
 31
0.0
  0
LINE
  5
34f
100
AcDbEntity
  8
Layer_1
 62
7
100
AcDbLine
 10
214.358087
 20
349.804592
 30
0.0
 11
214.358087
 21
128.031172
 31
0.0
  0
SPLINE
  5
350
100
AcDbEntity
  8
Layer_1
 62
7
100
AcDbSpline
 70
0
 71
3
 72
13
 73
9
 74
7
 40
0.000000
 40
0.000000
 40
0.000000
 40
0.000000
 40
13.274477
 40
26.155229
 40
39.429698
 40
52.704177
 40
65.584942
 40
78.859421
 40
78.859421
 40
78.859421
 40
78.859421
 10
163.581616
 20
349.804592
 30
0.0
 10
164.279922
 20
354.280121
 30
0.0
 10
165.655821
 20
363.098433
 30
0.0
 10
175.755756
 20
372.806687
 30
0.0
 10
188.969837
 20
376.403885
 30
0.0
 10
202.183920
 20
372.806685
 30
0.0
 10
212.283873
 20
363.098439
 30
0.0
 10
213.659779
 20
354.280121
 30
0.0
 10
214.358087
 20
349.804592
 30
0.0
 11
163.581616
 21
349.804592
 31
0.0
 11
167.047849
 21
362.618528
 31
0.0
 11
176.155908
 21
371.726604
 31
0.0
 11
188.969833
 21
375.192845
 31
0.0
 11
201.783770
 21
371.726604
 31
0.0
 11
210.891846
 21
362.618528
 31
0.0
 11
214.358087
 21
349.804592
 31
0.0
  0
LINE
  5
351
100
AcDbEntity
  8
Layer_1
 62
7
100
AcDbLine
 10
163.581616
 20
145.922884
 30
0.0
 11
163.581616
 21
128.031172
 31
0.0
  0
LINE
  5
352
100
AcDbEntity
  8
Layer_1
 62
7
100
AcDbLine
 10
171.577889
 20
155.716314
 30
0.0
 11
171.577889
 21
322.119475
 31
0.0
  0
LINE
  5
353
100
AcDbEntity
  8
Layer_1
 62
5
100
AcDbLine
 10
179.874060
 20
122.433762
 30
0.0
 11
179.874060
 21
112.238485
 31
0.0
  0
LINE
  5
354
100
AcDbEntity
  8
Layer_1
 62
5
100
AcDbLine
 10
179.874060
 20
355.402012
 30
0.0
 11
179.874060
 21
365.597290
 31
0.0
  0
LINE
  5
355
100
AcDbEntity
  8
Layer_1
 62
5
100
AcDbLine
 10
190.069335
 20
355.402012
 30
0.0
 11
179.874057
 21
355.402012
 31
0.0
  0
LINE
  5
356
100
AcDbEntity
  8
Layer_1
 62
5
100
AcDbLine
 10
190.069335
 20
355.402012
 30
0.0
 11
190.069335
 21
365.597290
 31
0.0
  0
LINE
  5
357
100
AcDbEntity
  8
Layer_1
 62
5
100
AcDbLine
 10
190.069335
 20
365.597290
 30
0.0
 11
179.874057
 21
365.597290
 31
0.0
  0
LINE
  5
358
100
AcDbEntity
  8
Layer_1
 62
5
100
AcDbLine
 10
190.069335
 20
112.238485
 30
0.0
 11
179.874057
 21
112.238485
 31
0.0
  0
LINE
  5
359
100
AcDbEntity
  8
Layer_1
 62
5
100
AcDbLine
 10
190.069335
 20
122.433762
 30
0.0
 11
190.069335
 21
112.238485
 31
0.0
  0
LINE
  5
35a
100
AcDbEntity
  8
Layer_1
 62
5
100
AcDbLine
 10
190.069335
 20
122.433762
 30
0.0
 11
179.874057
 21
122.433762
 31
0.0
  0
LINE
  5
35b
100
AcDbEntity
  8
Layer_1
 62
7
100
AcDbLine
 10
89.273092
 20
64.759126
 30
0.0
 11
84.275397
 21
64.759126
 31
0.0
  0
LINE
  5
35c
100
AcDbEntity
  8
Layer_1
 62
7
100
AcDbLine
 10
89.273092
 20
69.756813
 30
0.0
 11
89.273092
 21
64.759126
 31
0.0
  0
LINE
  5
35d
100
AcDbEntity
  8
Layer_1
 62
7
100
AcDbLine
 10
131.253649
 20
69.756813
 30
0.0
 11
131.253649
 21
64.759126
 31
0.0
  0
LINE
  5
35e
100
AcDbEntity
  8
Layer_1
 62
7
100
AcDbLine
 10
136.251311
 20
64.759126
 30
0.0
 11
131.253649
 21
64.759126
 31
0.0
  0
LINE
  5
35f
100
AcDbEntity
  8
Layer_1
 62
7
100
AcDbLine
 10
136.251311
 20
69.756813
 30
0.0
 11
136.251311
 21
64.759126
 31
0.0
  0
LINE
  5
360
100
AcDbEntity
  8
Layer_1
 62
7
100
AcDbLine
 10
144.247619
 20
69.756813
 30
0.0
 11
136.251311
 21
69.756813
 31
0.0
  0
LINE
  5
361
100
AcDbEntity
  8
Layer_1
 62
7
100
AcDbLine
 10
144.247619
 20
69.756813
 30
0.0
 11
144.247619
 21
52.764682
 31
0.0
  0
LINE
  5
362
100
AcDbEntity
  8
Layer_1
 62
7
100
AcDbLine
 10
34.298532
 20
52.764682
 30
0.0
 11
144.247619
 21
52.764682
 31
0.0
  0
LINE
  5
363
100
AcDbEntity
  8
Layer_1
 62
7
100
AcDbLine
 10
34.298532
 20
69.756813
 30
0.0
 11
34.298532
 21
52.764682
 31
0.0
  0
LINE
  5
364
100
AcDbEntity
  8
Layer_1
 62
7
100
AcDbLine
 10
84.275397
 20
69.756813
 30
0.0
 11
84.275397
 21
64.759126
 31
0.0
  0
LINE
  5
365
100
AcDbEntity
  8
Layer_1
 62
7
100
AcDbLine
 10
131.253649
 20
69.756813
 30
0.0
 11
89.273092
 21
69.756813
 31
0.0
  0
LINE
  5
366
100
AcDbEntity
  8
Layer_1
 62
7
100
AcDbLine
 10
84.275397
 20
69.756813
 30
0.0
 11
34.298532
 21
69.756813
 31
0.0
  0
LINE
  5
367
100
AcDbEntity
  8
Layer_1
 62
7
100
AcDbLine
 10
16.231252
 20
69.174070
 30
0.0
 11
16.231252
 21
64.176409
 31
0.0
  0
LINE
  5
368
100
AcDbEntity
  8
Layer_1
 62
7
100
AcDbLine
 10
11.233568
 20
69.174070
 30
0.0
 11
16.231252
 21
69.174070
 31
0.0
  0
LINE
  5
369
100
AcDbEntity
  8
Layer_1
 62
7
100
AcDbLine
 10
11.233568
 20
111.154626
 30
0.0
 11
16.231252
 21
111.154626
 31
0.0
  0
LINE
  5
36a
100
AcDbEntity
  8
Layer_1
 62
7
100
AcDbLine
 10
16.231252
 20
116.152323
 30
0.0
 11
16.231252
 21
111.154626
 31
0.0
  0
LINE
  5
36b
100
AcDbEntity
  8
Layer_1
 62
7
100
AcDbLine
 10
11.233568
 20
116.152323
 30
0.0
 11
16.231252
 21
116.152323
 31
0.0
  0
LINE
  5
36c
100
AcDbEntity
  8
Layer_1
 62
7
100
AcDbLine
 10
11.233568
 20
124.148631
 30
0.0
 11
11.233568
 21
116.152323
 31
0.0
  0
LINE
  5
36d
100
AcDbEntity
  8
Layer_1
 62
7
100
AcDbLine
 10
11.233568
 20
124.148631
 30
0.0
 11
28.225696
 21
124.148631
 31
0.0
  0
LINE
  5
36e
100
AcDbEntity
  8
Layer_1
 62
7
100
AcDbLine
 10
28.225696
 20
14.199544
 30
0.0
 11
28.225696
 21
124.148631
 31
0.0
  0
LINE
  5
36f
100
AcDbEntity
  8
Layer_1
 62
7
100
AcDbLine
 10
11.233568
 20
14.199544
 30
0.0
 11
28.225696
 21
14.199544
 31
0.0
  0
LINE
  5
370
100
AcDbEntity
  8
Layer_1
 62
7
100
AcDbLine
 10
11.233568
 20
64.176409
 30
0.0
 11
16.231252
 21
64.176409
 31
0.0
  0
LINE
  5
371
100
AcDbEntity
  8
Layer_1
 62
7
100
AcDbLine
 10
11.233568
 20
111.154626
 30
0.0
 11
11.233568
 21
69.174070
 31
0.0
  0
LINE
  5
372
100
AcDbEntity
  8
Layer_1
 62
7
100
AcDbLine
 10
11.233568
 20
64.176409
 30
0.0
 11
11.233568
 21
14.199546
 31
0.0
  0
LINE
  5
373
100
AcDbEntity
  8
Layer_1
 62
7
100
AcDbLine
 10
284.837852
 20
406.220959
 30
0.0
 11
284.837852
 21
492.780880
 31
0.0
  0
LINE
  5
374
100
AcDbEntity
  8
Layer_1
 62
7
100
AcDbLine
 10
284.837852
 20
492.780880
 30
0.0
 11
11.088503
 21
492.780880
 31
0.0
  0
LINE
  5
375
100
AcDbEntity
  8
Layer_1
 62
7
100
AcDbLine
 10
11.088503
 20
406.220959
 30
0.0
 11
11.088503
 21
492.780880
 31
0.0
  0
LINE
  5
376
100
AcDbEntity
  8
Layer_1
 62
7
100
AcDbLine
 10
11.088503
 20
406.220959
 30
0.0
 11
284.837852
 21
406.220959
 31
0.0
  0
LINE
  5
377
100
AcDbEntity
  8
Layer_1
 62
7
100
AcDbLine
 10
17.924529
 20
348.716869
 30
0.0
 11
17.924529
 21
396.594692
 31
0.0
  0
LINE
  5
378
100
AcDbEntity
  8
Layer_1
 62
7
100
AcDbLine
 10
12.926859
 20
396.594692
 30
0.0
 11
17.924529
 21
396.594692
 31
0.0
  0
LINE
  5
379
100
AcDbEntity
  8
Layer_1
 62
7
100
AcDbLine
 10
12.926859
 20
348.716869
 30
0.0
 11
12.926859
 21
396.594692
 31
0.0
  0
LINE
  5
37a
100
AcDbEntity
  8
Layer_1
 62
7
100
AcDbLine
 10
12.926859
 20
348.716869
 30
0.0
 11
17.924529
 21
348.716869
 31
0.0
  0
LINE
  5
37b
100
AcDbEntity
  8
Layer_1
 62
7
100
AcDbLine
 10
27.692367
 20
395.275269
 30
0.0
 11
27.692367
 21
370.286845
 31
0.0
  0
LINE
  5
37c
100
AcDbEntity
  8
Layer_1
 62
7
100
AcDbLine
 10
24.793708
 20
370.286845
 30
0.0
 11
27.692367
 21
370.286845
 31
0.0
  0
LINE
  5
37d
100
AcDbEntity
  8
Layer_1
 62
7
100
AcDbLine
 10
24.793708
 20
395.275269
 30
0.0
 11
24.793708
 21
370.286845
 31
0.0
  0
LINE
  5
37e
100
AcDbEntity
  8
Layer_1
 62
7
100
AcDbLine
 10
24.793708
 20
395.275269
 30
0.0
 11
27.692367
 21
395.275269
 31
0.0
  0
SPLINE
  5
37f
100
AcDbEntity
  8
Layer_1
 62
7
100
AcDbSpline
 70
0
 71
3
 72
13
 73
9
 74
7
 40
0.000000
 40
0.000000
 40
0.000000
 40
0.000000
 40
13.274473
 40
26.155222
 40
39.429690
 40
52.704169
 40
65.584930
 40
78.859405
 40
78.859405
 40
78.859405
 40
78.859405
 10
163.581616
 20
128.031172
 30
0.0
 10
164.279922
 20
123.555644
 30
0.0
 10
165.655821
 20
114.737334
 30
0.0
 10
175.755758
 20
105.029085
 30
0.0
 10
188.969837
 20
101.431891
 30
0.0
 10
202.183918
 20
105.029087
 30
0.0
 10
212.283873
 20
114.737328
 30
0.0
 10
213.659779
 20
123.555643
 30
0.0
 10
214.358087
 20
128.031172
 30
0.0
 11
163.581616
 21
128.031172
 31
0.0
 11
167.047849
 21
115.217240
 31
0.0
 11
176.155908
 21
106.109168
 31
0.0
 11
188.969833
 21
102.642929
 31
0.0
 11
201.783770
 21
106.109168
 31
0.0
 11
210.891846
 21
115.217240
 31
0.0
 11
214.358087
 21
128.031172
 31
0.0
  0
ENDSEC
  0
SECTION
  2
OBJECTS
  0
DICTIONARY
  5
C
330
0
100
AcDbDictionary
  3
ACAD_GROUP
350
D
  3
ACAD_MLINESTYLE
350
17
  0
DICTIONARY
  5
D
330
C
100
AcDbDictionary
  0
DICTIONARY
  5
1A
330
C
100
AcDbDictionary
  0
DICTIONARY
  5
17
330
C
100
AcDbDictionary
  3
STANDARD
350
18
  0
DICTIONARY
  5
19
330
C
100
AcDbDictionary
  0
ENDSEC
  0
EOF
